<?xml version="1.0" encoding="utf-8"?><!-- Uploaded to: SVG Repo, www.svgrepo.com, Generator: SVG Repo Mixer Tools -->
<svg width="800px" height="800px" viewBox="0 0 36 36" xmlns="http://www.w3.org/2000/svg" xmlns:xlink="http://www.w3.org/1999/xlink" aria-hidden="true" role="img" class="iconify iconify--twemoji" preserveAspectRatio="xMidYMid meet"><path fill="#AAB8C2" d="M18 3C12.477 3 8 7.477 8 13v10h4V13a6 6 0 0 1 12 0v10h4V13c0-5.523-4.477-10-10-10z"></path><path fill="#FFAC33" d="M31 32a4 4 0 0 1-4 4H9a4 4 0 0 1-4-4V20a4 4 0 0 1 4-4h18a4 4 0 0 1 4 4v12z"></path></svg>