<svg width="140" height="22" viewBox="0 0 140 22" fill="none" xmlns="http://www.w3.org/2000/svg">
<path fill-rule="evenodd" clip-rule="evenodd" d="M30.625 1.8125C30.625 1.19994 30.625 0.893664 30.7442 0.659698C30.8491 0.453896 31.0164 0.286573 31.2222 0.181712C31.4562 0.0625 31.7624 0.0625 32.375 0.0625H42C42.6126 0.0625 42.9188 0.0625 43.1528 0.181712C43.3586 0.286573 43.5259 0.453896 43.6308 0.659698C43.75 0.893664 43.75 1.19994 43.75 1.8125V2.6875C43.75 3.30006 43.75 3.60634 43.8692 3.8403C43.9741 4.0461 44.1414 4.21343 44.3472 4.31829C44.5812 4.4375 44.8874 4.4375 45.5 4.4375H46.375C46.9876 4.4375 47.2938 4.4375 47.5278 4.55671C47.7336 4.66157 47.9009 4.8289 48.0058 5.0347C48.125 5.26866 48.125 5.57494 48.125 6.1875V20.1875C48.125 20.8001 48.125 21.1063 48.0058 21.3403C47.9009 21.5461 47.7336 21.7134 47.5278 21.8183C47.2938 21.9375 46.9876 21.9375 46.375 21.9375H45.5C44.8874 21.9375 44.5812 21.9375 44.3472 21.8183C44.1414 21.7134 43.9741 21.5461 43.8692 21.3403C43.75 21.1063 43.75 20.8001 43.75 20.1875V14.9375C43.75 14.3249 43.75 14.0187 43.6308 13.7847C43.5259 13.5789 43.3586 13.4116 43.1528 13.3067C42.9188 13.1875 42.6126 13.1875 42 13.1875H32.375C31.7624 13.1875 31.4562 13.1875 31.2222 13.3067C31.0164 13.4116 30.8491 13.5789 30.7442 13.7847C30.625 14.0187 30.625 14.3249 30.625 14.9375V20.1875C30.625 20.8001 30.625 21.1063 30.5058 21.3403C30.4009 21.5461 30.2336 21.7134 30.0278 21.8183C29.7938 21.9375 29.4876 21.9375 28.875 21.9375H28C27.3874 21.9375 27.0812 21.9375 26.8472 21.8183C26.6414 21.7134 26.4741 21.5461 26.3692 21.3403C26.25 21.1063 26.25 20.8001 26.25 20.1875V6.1875C26.25 5.57494 26.25 5.26866 26.3692 5.0347C26.4741 4.8289 26.6414 4.66157 26.8472 4.55671C27.0812 4.4375 27.3874 4.4375 28 4.4375L28.8987 4.4375C29.4955 4.43748 29.7969 4.43595 30.0278 4.31829C30.2336 4.21343 30.4009 4.0461 30.5058 3.8403C30.6237 3.6089 30.625 3.30677 30.625 2.70756V1.8125ZM43.75 7.0625V6.1875C43.75 5.57494 43.75 5.26866 43.6308 5.0347C43.5259 4.8289 43.3586 4.66157 43.1528 4.55671C42.9188 4.4375 42.6126 4.4375 42 4.4375H32.375C31.7624 4.4375 31.4562 4.4375 31.2222 4.55671C31.0164 4.66157 30.8491 4.8289 30.7442 5.0347C30.625 5.26866 30.625 5.57494 30.625 6.1875V7.0625C30.625 7.67506 30.625 7.98134 30.7442 8.2153C30.8491 8.4211 31.0164 8.58843 31.2222 8.69329C31.4562 8.8125 31.7624 8.8125 32.375 8.8125H42C42.6126 8.8125 42.9188 8.8125 43.1528 8.69329C43.3586 8.58843 43.5259 8.4211 43.6308 8.2153C43.75 7.98134 43.75 7.67506 43.75 7.0625Z" fill="#D9D9D9"/>
<path fill-rule="evenodd" clip-rule="evenodd" d="M122.5 1.8125C122.5 1.19994 122.5 0.893664 122.619 0.659698C122.724 0.453896 122.891 0.286573 123.097 0.181712C123.331 0.0625 123.637 0.0625 124.25 0.0625H133.875C134.488 0.0625 134.794 0.0625 135.028 0.181712C135.234 0.286573 135.401 0.453896 135.506 0.659698C135.625 0.893664 135.625 1.19994 135.625 1.8125V2.6875C135.625 3.30006 135.625 3.60634 135.744 3.8403C135.849 4.0461 136.016 4.21343 136.222 4.31829C136.456 4.4375 136.762 4.4375 137.375 4.4375H138.25C138.863 4.4375 139.169 4.4375 139.403 4.55671C139.609 4.66157 139.776 4.8289 139.881 5.0347C140 5.26866 140 5.57494 140 6.1875V20.1875C140 20.8001 140 21.1063 139.881 21.3403C139.776 21.5461 139.609 21.7134 139.403 21.8183C139.169 21.9375 138.863 21.9375 138.25 21.9375H137.375C136.762 21.9375 136.456 21.9375 136.222 21.8183C136.016 21.7134 135.849 21.5461 135.744 21.3403C135.625 21.1063 135.625 20.8001 135.625 20.1875V14.9375C135.625 14.3249 135.625 14.0187 135.506 13.7847C135.401 13.5789 135.234 13.4116 135.028 13.3067C134.794 13.1875 134.488 13.1875 133.875 13.1875H124.25C123.637 13.1875 123.331 13.1875 123.097 13.3067C122.891 13.4116 122.724 13.5789 122.619 13.7847C122.5 14.0187 122.5 14.3249 122.5 14.9375V20.1875C122.5 20.8001 122.5 21.1063 122.381 21.3403C122.276 21.5461 122.109 21.7134 121.903 21.8183C121.669 21.9375 121.363 21.9375 120.75 21.9375H119.875C119.262 21.9375 118.956 21.9375 118.722 21.8183C118.516 21.7134 118.349 21.5461 118.244 21.3403C118.125 21.1063 118.125 20.8001 118.125 20.1875V6.1875C118.125 5.57494 118.125 5.26866 118.244 5.0347C118.349 4.8289 118.516 4.66157 118.722 4.55671C118.956 4.4375 119.262 4.4375 119.875 4.4375L120.774 4.4375C121.37 4.43748 121.672 4.43595 121.903 4.31829C122.109 4.21343 122.276 4.0461 122.381 3.8403C122.499 3.6089 122.5 3.30677 122.5 2.70756V1.8125ZM135.625 7.0625V6.1875C135.625 5.57494 135.625 5.26866 135.506 5.0347C135.401 4.8289 135.234 4.66157 135.028 4.55671C134.794 4.4375 134.488 4.4375 133.875 4.4375H124.25C123.637 4.4375 123.331 4.4375 123.097 4.55671C122.891 4.66157 122.724 4.8289 122.619 5.0347C122.5 5.26866 122.5 5.57494 122.5 6.1875V7.0625C122.5 7.67506 122.5 7.98134 122.619 8.2153C122.724 8.4211 122.891 8.58843 123.097 8.69329C123.331 8.8125 123.637 8.8125 124.25 8.8125H133.875C134.488 8.8125 134.794 8.8125 135.028 8.69329C135.234 8.58843 135.401 8.4211 135.506 8.2153C135.625 7.98134 135.625 7.67506 135.625 7.0625Z" fill="#D9D9D9"/>
<path d="M56.875 1.8125C56.875 1.19994 56.875 0.893664 56.9942 0.659698C57.0991 0.453896 57.2664 0.286573 57.4722 0.181712C57.7062 0.0625 58.0124 0.0625 58.625 0.0625H72.625C73.2376 0.0625 73.5438 0.0625 73.7778 0.181712C73.9836 0.286573 74.1509 0.453896 74.2558 0.659698C74.375 0.893664 74.375 1.19994 74.375 1.8125V2.6875C74.375 3.30006 74.375 3.60634 74.2558 3.8403C74.1509 4.0461 73.9836 4.21343 73.7778 4.31829C73.5438 4.4375 73.2376 4.4375 72.625 4.4375H58.625C58.0124 4.4375 57.7062 4.4375 57.4722 4.55671C57.2664 4.66157 57.0991 4.8289 56.9942 5.0347C56.875 5.26866 56.875 5.57494 56.875 6.1875V7.0625C56.875 7.67506 56.875 7.98134 56.9942 8.2153C57.0991 8.4211 57.2664 8.58843 57.4722 8.69329C57.7062 8.8125 58.0124 8.8125 58.625 8.8125H72.625C73.2376 8.8125 73.5438 8.8125 73.7778 8.93171C73.9836 9.03657 74.1509 9.20389 74.2558 9.4097C74.375 9.64366 74.375 9.94994 74.375 10.5625V15.8125C74.375 16.4251 74.375 16.7313 74.2558 16.9653C74.1509 17.1711 73.9836 17.3384 73.7778 17.4433C73.5438 17.5625 73.2376 17.5625 72.625 17.5625H71.75C71.1374 17.5625 70.8312 17.5625 70.5972 17.6817C70.3914 17.7866 70.2241 17.9539 70.1192 18.1597C70 18.3937 70 18.6999 70 19.3125V20.1875C70 20.8001 70 21.1063 69.8808 21.3403C69.7759 21.5461 69.6086 21.7134 69.4028 21.8183C69.1688 21.9375 68.8626 21.9375 68.25 21.9375H54.25C53.6374 21.9375 53.3312 21.9375 53.0972 21.8183C52.8914 21.7134 52.7241 21.5461 52.6192 21.3403C52.5 21.1063 52.5 20.8001 52.5 20.1875V19.3125C52.5 18.6999 52.5 18.3937 52.6192 18.1597C52.7241 17.9539 52.8914 17.7866 53.0972 17.6817C53.3312 17.5625 53.6374 17.5625 54.25 17.5625H68.25C68.8626 17.5625 69.1688 17.5625 69.4028 17.4433C69.6086 17.3384 69.7759 17.1711 69.8808 16.9653C70 16.7313 70 16.4251 70 15.8125V14.9375C70 14.3249 70 14.0187 69.8808 13.7847C69.7759 13.5789 69.6086 13.4116 69.4028 13.3067C69.1688 13.1875 68.8626 13.1875 68.25 13.1875H54.25C53.6374 13.1875 53.3312 13.1875 53.0972 13.0683C52.8914 12.9634 52.7241 12.7961 52.6192 12.5903C52.5 12.3563 52.5 12.0501 52.5 11.4375V6.1875C52.5 5.57494 52.5 5.26866 52.6192 5.0347C52.7241 4.8289 52.8914 4.66157 53.0972 4.55671C53.3312 4.4375 53.6374 4.4375 54.25 4.4375H55.125C55.7376 4.4375 56.0438 4.4375 56.2778 4.31829C56.4836 4.21343 56.6509 4.0461 56.7558 3.8403C56.875 3.60634 56.875 3.30006 56.875 2.6875V1.8125Z" fill="#D9D9D9"/>
<path d="M83.125 1.8125C83.125 1.19994 83.125 0.893664 83.0058 0.659698C82.9009 0.453896 82.7336 0.286573 82.5278 0.181712C82.2938 0.0625 81.9876 0.0625 81.375 0.0625H80.5C79.8874 0.0625 79.5812 0.0625 79.3472 0.181712C79.1414 0.286573 78.9741 0.453896 78.8692 0.659698C78.75 0.893664 78.75 1.19994 78.75 1.8125V7.0625C78.75 7.67506 78.75 7.98134 78.8692 8.2153C78.9741 8.4211 79.1414 8.58843 79.3472 8.69329C79.5812 8.8125 79.8874 8.8125 80.5 8.8125H81.375C81.9876 8.8125 82.2938 8.8125 82.5278 8.93171C82.7336 9.03657 82.9009 9.2039 83.0058 9.4097C83.1237 9.6411 83.125 9.94323 83.125 10.5424V11.4375C83.125 12.0501 83.125 12.3563 83.2442 12.5903C83.3491 12.7961 83.5164 12.9634 83.7222 13.0683C83.9562 13.1875 84.2624 13.1875 84.875 13.1875H94.5C95.1126 13.1875 95.4188 13.1875 95.6528 13.3067C95.8586 13.4116 96.0259 13.5789 96.1308 13.7847C96.25 14.0187 96.25 14.3249 96.25 14.9375V15.8125C96.25 16.4251 96.25 16.7313 96.1308 16.9653C96.0259 17.1711 95.8586 17.3384 95.6528 17.4433C95.4188 17.5625 95.1126 17.5625 94.5 17.5625H80.5C79.8874 17.5625 79.5812 17.5625 79.3472 17.6817C79.1414 17.7866 78.9741 17.9539 78.8692 18.1597C78.75 18.3937 78.75 18.6999 78.75 19.3125V20.1875C78.75 20.8001 78.75 21.1063 78.8692 21.3403C78.9741 21.5461 79.1414 21.7134 79.3472 21.8183C79.5812 21.9375 79.8874 21.9375 80.5 21.9375H94.5C95.1126 21.9375 95.4188 21.9375 95.6528 21.8183C95.8586 21.7134 96.0259 21.5461 96.1308 21.3403C96.25 21.1063 96.25 20.8001 96.25 20.1875V19.3125C96.25 18.6999 96.25 18.3937 96.3692 18.1597C96.4741 17.9539 96.6414 17.7866 96.8472 17.6817C97.0812 17.5625 97.3874 17.5625 98 17.5625H98.875C99.4876 17.5625 99.7938 17.5625 100.028 17.4433C100.234 17.3384 100.401 17.1711 100.506 16.9653C100.625 16.7313 100.625 16.4251 100.625 15.8125V1.8125C100.625 1.19994 100.625 0.893664 100.506 0.659698C100.401 0.453896 100.234 0.286573 100.028 0.181712C99.7938 0.0625 99.4876 0.0625 98.875 0.0625H98C97.3874 0.0625 97.0812 0.0625 96.8472 0.181712C96.6414 0.286573 96.4741 0.453896 96.3692 0.659698C96.25 0.893664 96.25 1.19994 96.25 1.8125V7.0625C96.25 7.67506 96.25 7.98134 96.1308 8.2153C96.0259 8.4211 95.8586 8.58843 95.6528 8.69329C95.4188 8.8125 95.1126 8.8125 94.5 8.8125H84.875C84.2624 8.8125 83.9562 8.8125 83.7222 8.69329C83.5164 8.58843 83.3491 8.4211 83.2442 8.2153C83.125 7.98134 83.125 7.67506 83.125 7.0625V1.8125Z" fill="#D9D9D9"/>
<path d="M4.375 1.8125C4.375 1.19994 4.375 0.893664 4.49421 0.659698C4.59907 0.453896 4.7664 0.286573 4.9722 0.181712C5.20616 0.0625 5.51244 0.0625 6.125 0.0625H20.125C20.7376 0.0625 21.0438 0.0625 21.2778 0.181712C21.4836 0.286573 21.6509 0.453896 21.7558 0.659698C21.875 0.893664 21.875 1.19994 21.875 1.8125V2.6875C21.875 3.30006 21.875 3.60634 21.7558 3.8403C21.6509 4.0461 21.4836 4.21343 21.2778 4.31829C21.0438 4.4375 20.7376 4.4375 20.125 4.4375H6.125C5.51244 4.4375 5.20616 4.4375 4.9722 4.55671C4.7664 4.66157 4.59907 4.8289 4.49421 5.0347C4.375 5.26866 4.375 5.57494 4.375 6.1875V7.0625C4.375 7.67506 4.375 7.98134 4.49421 8.2153C4.59907 8.4211 4.7664 8.58843 4.9722 8.69329C5.20616 8.8125 5.51244 8.8125 6.125 8.8125H20.125C20.7376 8.8125 21.0438 8.8125 21.2778 8.93171C21.4836 9.03657 21.6509 9.20389 21.7558 9.4097C21.875 9.64366 21.875 9.94994 21.875 10.5625V11.4375C21.875 12.0501 21.875 12.3563 21.7558 12.5903C21.6509 12.7961 21.4836 12.9634 21.2778 13.0683C21.0438 13.1875 20.7376 13.1875 20.125 13.1875H6.125C5.51244 13.1875 5.20616 13.1875 4.9722 13.3067C4.7664 13.4116 4.59907 13.5789 4.49421 13.7847C4.375 14.0187 4.375 14.3249 4.375 14.9375V15.8125C4.375 16.4251 4.375 16.7313 4.49421 16.9653C4.59907 17.1711 4.7664 17.3384 4.9722 17.4433C5.20616 17.5625 5.51244 17.5625 6.125 17.5625H20.125C20.7376 17.5625 21.0438 17.5625 21.2778 17.6817C21.4836 17.7866 21.6509 17.9539 21.7558 18.1597C21.875 18.3937 21.875 18.6999 21.875 19.3125V20.1875C21.875 20.8001 21.875 21.1063 21.7558 21.3403C21.6509 21.5461 21.4836 21.7134 21.2778 21.8183C21.0438 21.9375 20.7376 21.9375 20.125 21.9375H6.125C5.51244 21.9375 5.20616 21.9375 4.9722 21.8183C4.7664 21.7134 4.59907 21.5461 4.49421 21.3403C4.375 21.1063 4.375 20.8001 4.375 20.1875V19.3125C4.375 18.6999 4.375 18.3937 4.25579 18.1597C4.15093 17.9539 3.9836 17.7866 3.7778 17.6817C3.54384 17.5625 3.23756 17.5625 2.625 17.5625H1.75C1.13744 17.5625 0.831164 17.5625 0.597198 17.4433C0.391396 17.3384 0.224073 17.1711 0.119212 16.9653C0 16.7313 0 16.4251 0 15.8125V6.1875C0 5.57494 0 5.26866 0.119212 5.0347C0.224073 4.8289 0.391396 4.66157 0.597198 4.55671C0.831164 4.4375 1.13744 4.4375 1.75 4.4375H2.625C3.23756 4.4375 3.54384 4.4375 3.7778 4.31829C3.9836 4.21343 4.15093 4.0461 4.25579 3.8403C4.375 3.60634 4.375 3.30006 4.375 2.6875V1.8125Z" fill="#D9D9D9"/>
<path d="M112 8.8125C112.613 8.8125 112.919 8.8125 113.153 8.69329C113.359 8.58843 113.526 8.4211 113.631 8.2153C113.75 7.98134 113.75 7.67506 113.75 7.0625V6.1875C113.75 5.57494 113.75 5.26866 113.631 5.0347C113.526 4.8289 113.359 4.66157 113.153 4.55671C112.919 4.4375 112.613 4.4375 112 4.4375H111.125C110.512 4.4375 110.206 4.4375 109.972 4.55671C109.766 4.66157 109.599 4.8289 109.494 5.0347C109.375 5.26866 109.375 5.57494 109.375 6.1875V7.08256C109.375 7.68177 109.374 7.9839 109.256 8.2153C109.151 8.4211 108.984 8.58843 108.778 8.69329C108.544 8.8125 108.238 8.8125 107.625 8.8125H106.75C106.137 8.8125 105.831 8.8125 105.597 8.93171C105.391 9.03657 105.224 9.20389 105.119 9.4097C105 9.64366 105 9.94994 105 10.5625V11.4375C105 12.0501 105 12.3563 105.119 12.5903C105.224 12.7961 105.391 12.9634 105.597 13.0683C105.831 13.1875 106.137 13.1875 106.75 13.1875H107.625C108.238 13.1875 108.544 13.1875 108.778 13.0683C108.984 12.9634 109.151 12.7961 109.256 12.5903C109.375 12.3563 109.375 12.0501 109.375 11.4375V10.5625C109.375 9.94994 109.375 9.64366 109.494 9.4097C109.599 9.20389 109.766 9.03657 109.972 8.93171C110.206 8.8125 110.512 8.8125 111.125 8.8125H112Z" fill="#D9D9D9"/>
</svg>
