<svg width="110" height="110" viewBox="0 0 110 110" fill="none" xmlns="http://www.w3.org/2000/svg">
<g clip-path="url(#clip0_746_295)">
<path d="M88.9221 18.8696H21.0046V80.5984H88.9221V18.8696Z" fill="white"/>
<path fill-rule="evenodd" clip-rule="evenodd" d="M109.963 55.0001C109.963 85.3357 85.3558 109.927 55 109.927C24.6446 109.927 0.0366211 85.3357 0.0366211 55.0001C0.0366211 24.6648 24.6446 0.0732422 55 0.0732422C85.3558 0.0732422 109.963 24.6648 109.963 55.0001ZM39.425 76.8582H28.7581C26.5167 76.8582 25.4095 76.8582 24.7344 76.4267C24.0053 75.9542 23.5597 75.1716 23.5057 74.3079C23.4652 73.5121 24.0188 72.5403 25.126 70.5972L51.4638 24.2041C52.5845 22.2341 53.1515 21.249 53.8672 20.8847C54.6368 20.4935 55.555 20.4935 56.3246 20.8847C57.0403 21.249 57.6074 22.2341 58.728 24.2041L64.1425 33.6495L64.1701 33.6977C65.3806 35.8112 65.9944 36.8829 66.2624 38.0078C66.5594 39.2357 66.5594 40.5311 66.2624 41.759C65.9923 42.8924 65.3847 43.9719 64.156 46.1174L50.3214 70.5568L50.2856 70.6194C49.0672 72.7503 48.4497 73.8303 47.5939 74.645C46.6623 75.5359 45.5416 76.1831 44.3128 76.5481C43.1921 76.8582 41.9364 76.8582 39.425 76.8582ZM66.3623 76.8582H81.6467C83.9016 76.8582 85.036 76.8582 85.7115 76.4135C86.4404 75.9411 86.8993 75.1446 86.9403 74.2816C86.9791 73.5114 86.4375 72.5774 85.3763 70.7473C85.3397 70.685 85.3031 70.6216 85.2658 70.5571L77.6097 57.4685L77.5226 57.3211C76.4467 55.5031 75.9037 54.585 75.2062 54.2301C74.437 53.8387 73.5317 53.8387 72.7624 54.2301C72.0603 54.5944 71.4932 55.5524 70.3725 57.482L62.7436 70.5706L62.7175 70.6156C61.6008 72.5421 61.0426 73.5048 61.0829 74.2947C61.1369 75.1585 61.5825 75.9542 62.3115 76.4267C62.9732 76.8582 64.1074 76.8582 66.3623 76.8582Z" fill="#E84142"/>
</g>
<defs>
<clipPath id="clip0_746_295">
<rect width="110" height="110" fill="white"/>
</clipPath>
</defs>
</svg>
