<svg width="110" height="110" viewBox="0 0 110 110" fill="none" xmlns="http://www.w3.org/2000/svg">
<g clip-path="url(#clip0_746_302)">
<path d="M55 110C85.3757 110 110 85.3757 110 55C110 24.6243 85.3757 0 55 0C24.6243 0 0 24.6243 0 55C0 85.3757 24.6243 110 55 110Z" fill="#0AC18E"/>
<path d="M72.1561 36.5316C69.3921 30.2639 63.0406 28.9238 55.2652 30.222L52.7665 20.5342L46.8756 22.0558L49.3325 31.7157C47.783 32.1065 46.1916 32.4415 44.6142 32.8882L42.1574 23.2842L36.2665 24.8058L38.7652 34.4936C37.4949 34.8565 26.8718 37.5786 26.8718 37.5786L28.4911 43.8882C28.4911 43.8882 32.8185 42.6738 32.7766 42.7715C35.1777 42.1433 36.3084 43.3438 36.8388 44.4745L43.7069 71.0253C43.7906 71.7931 43.651 73.1053 42.0038 73.552C42.1015 73.6078 37.7183 74.6547 37.7183 74.6547L38.3604 82.0113C38.3604 82.0113 48.8858 79.3172 50.2678 78.9682L52.7944 88.7677L58.6853 87.2461L56.1586 77.3768C57.7779 76.9999 59.3553 76.6091 60.8909 76.2042L63.4036 86.0177L69.2944 84.4961L66.7678 74.7106C75.8414 72.505 82.2487 66.7816 80.9365 58.0291C80.099 52.7525 74.3338 48.425 69.5457 47.9365C72.4911 45.3261 73.9848 41.5151 72.1561 36.5316ZM69.3223 59.6344C70.4949 68.3032 58.448 69.3641 54.4695 70.4111L51.0076 57.4428C55 56.3959 67.3401 51.9986 69.3223 59.6344ZM62.0635 41.9758C63.3058 49.6814 53.0038 50.5748 49.6815 51.4263L46.5266 39.6585C49.8629 38.8349 59.5368 34.8426 62.0635 41.9758Z" fill="white"/>
</g>
<defs>
<clipPath id="clip0_746_302">
<rect width="110" height="110" fill="white"/>
</clipPath>
</defs>
</svg>
