<svg width="110" height="110" viewBox="0 0 110 110" fill="none" xmlns="http://www.w3.org/2000/svg">
<g clip-path="url(#clip0_716_216)">
<path fill-rule="evenodd" clip-rule="evenodd" d="M55 0C85.3778 0 110 24.6222 110 55C110 85.3778 85.3778 110 55 110C24.6222 110 0 85.3778 0 55C0 24.6222 24.6222 0 55 0Z" fill="#F0B90B"/>
<path d="M30.228 55.0001L30.2676 69.5433L42.625 76.815V85.3294L23.0357 73.8402V50.7473L30.228 55.0001ZM30.228 40.4568V48.9316L23.0312 44.6744V36.1996L30.228 31.9424L37.4599 36.1996L30.228 40.4568ZM47.7857 36.1996L54.9824 31.9424L62.2143 36.1996L54.9824 40.4568L47.7857 36.1996Z" fill="white"/>
<path d="M35.4282 66.5289V58.0145L42.6249 62.2717V70.7465L35.4282 66.5289ZM47.7856 79.8647L54.9823 84.1219L62.2143 79.8647V88.3394L54.9823 92.5966L47.7856 88.3394V79.8647ZM72.5356 36.1996L79.7323 31.9424L86.9643 36.1996V44.6744L79.7323 48.9316V40.4568L72.5356 36.1996ZM79.7323 69.5433L79.772 55.0001L86.9687 50.7429V73.8358L67.3793 85.325V76.8106L79.7323 69.5433Z" fill="white"/>
<path d="M74.5717 66.5291L67.375 70.7466V62.2719L74.5717 58.0146V66.5291Z" fill="white"/>
<path d="M74.5716 43.471L74.6113 51.9854L62.2187 59.2571V73.8356L55.022 78.0532L47.8253 73.8356V59.2571L35.4326 51.9854V43.471L42.6602 39.2138L54.9779 46.5207L67.3705 39.2138L74.6025 43.471H74.5716ZM35.4282 28.9322L54.9823 17.4033L74.5716 28.9322L67.3749 33.1894L54.9823 25.8825L42.6249 33.1894L35.4282 28.9322Z" fill="white"/>
</g>
<defs>
<clipPath id="clip0_716_216">
<rect width="110" height="110" fill="white"/>
</clipPath>
</defs>
</svg>
