<svg width="110" height="110" viewBox="0 0 110 110" fill="none" xmlns="http://www.w3.org/2000/svg">
<path d="M108.354 68.3048C101.008 97.7693 71.1617 115.701 41.6903 108.353C12.2312 101.008 -5.70235 71.163 1.64736 41.7009C8.99061 12.233 38.8368 -5.69986 68.2991 1.64579C97.7683 8.99143 115.701 38.8394 108.354 68.3053L108.354 68.3048H108.354Z" fill="#F7931A"/>
<path d="M79.2555 47.1638C80.3503 39.8445 74.7773 35.9101 67.1565 33.2855L69.6288 23.3708L63.5927 21.867L61.1861 31.5206C59.5993 31.1248 57.9697 30.752 56.35 30.3823L58.7741 20.665L52.7419 19.1611L50.2683 29.0725C48.9552 28.7736 47.6654 28.4781 46.4141 28.1668L46.4211 28.1356L38.0973 26.0573L36.4916 32.5034C36.4916 32.5034 40.9699 33.5298 40.8755 33.593C43.3197 34.203 43.7618 35.8208 43.6884 37.1032L40.8723 48.3983C41.0406 48.441 41.2589 48.5029 41.4998 48.5996C41.2984 48.5496 41.0841 48.4951 40.8618 48.4418L36.9146 64.2646C36.6159 65.0072 35.8577 66.1215 34.1487 65.6983C34.2092 65.786 29.7617 64.6036 29.7617 64.6036L26.7649 71.5122L34.6198 73.4701C36.0811 73.8365 37.5131 74.2199 38.9233 74.5804L36.4255 84.6087L42.4545 86.1126L44.9281 76.1907C46.5752 76.6378 48.1736 77.0502 49.7384 77.4389L47.2731 87.314L53.3094 88.8179L55.8069 78.8083C66.0996 80.7561 73.8389 79.9708 77.0965 70.6621C79.7214 63.1675 76.9658 58.8447 71.5509 56.0257C75.4949 55.1162 78.4656 52.5225 79.2576 47.1646L79.2557 47.1632L79.2555 47.1638ZM65.4646 66.5C63.5992 73.9946 50.9792 69.9432 46.8876 68.9273L50.2022 55.6415C54.2935 56.6628 67.4141 58.6839 65.4648 66.5H65.4646ZM67.3313 47.0552C65.6297 53.8723 55.1259 50.4089 51.7186 49.5596L54.7237 37.5102C58.131 38.3594 69.1039 39.9445 67.3318 47.0552H67.3313Z" fill="white"/>
</svg>
