<svg width="110" height="110" viewBox="0 0 110 110" fill="none" xmlns="http://www.w3.org/2000/svg">
<g clip-path="url(#clip0_746_373)">
<path d="M32.4133 54.6682C32.2 58.3588 35.0533 61.5184 38.76 61.7308C38.8933 61.7308 39.0267 61.7308 39.16 61.7308C42.8933 61.7308 45.9067 58.7305 45.88 55.0133C45.88 51.2962 42.8667 48.2959 39.1333 48.3224C35.56 48.3224 32.6 51.1103 32.4133 54.6682Z" fill="#0033AD"/>
<path d="M7.29337 52.9423C6.09337 52.8626 5.05337 53.7919 5.00004 54.9867C4.94671 56.1815 5.85337 57.217 7.05337 57.2701C8.25337 57.3498 9.26671 56.4205 9.34671 55.2257C9.42671 54.0309 8.49337 53.0219 7.29337 52.9423Z" fill="#0033AD"/>
<path d="M31.9867 15.7443C33.0533 15.2132 33.48 13.8857 32.9467 12.8236C32.4133 11.7616 31.08 11.3367 30.0133 11.8678C28.9467 12.3988 28.52 13.6998 29.0533 14.7619C29.5867 15.8505 30.8933 16.3018 31.9867 15.7443Z" fill="#0033AD"/>
<path d="M38.8134 27.6124C40.4667 26.7894 41.1334 24.7715 40.3067 23.1253C39.48 21.4791 37.4534 20.8153 35.8 21.6384C34.1467 22.4615 33.48 24.4794 34.3067 26.1256C35.1334 27.7717 37.16 28.4355 38.8134 27.6124Z" fill="#0033AD"/>
<path d="M15.8266 35.7637C17.1066 36.5867 18.8133 36.2416 19.6666 34.9671C20.4933 33.6927 20.1466 31.9934 18.8666 31.1437C17.5866 30.3206 15.8799 30.6658 15.0266 31.9403C14.1733 33.2147 14.5466 34.9406 15.8266 35.7637Z" fill="#0033AD"/>
<path d="M19.9068 51.7473C18.0402 51.6411 16.4668 53.0483 16.3602 54.9069C16.2535 56.7655 17.6668 58.332 19.5335 58.4382C21.4002 58.5444 22.9735 57.1372 23.0802 55.2786C23.1868 53.4466 21.7735 51.8535 19.9068 51.7473Z" fill="#0033AD"/>
<path d="M16.2 74.2362C14.84 74.9265 14.28 76.5727 14.9733 77.9534C15.6667 79.3075 17.32 79.8651 18.7067 79.1747C20.0667 78.4844 20.6267 76.8382 19.9333 75.4576C19.24 74.1035 17.56 73.5459 16.2 74.2362Z" fill="#0033AD"/>
<path d="M29.2667 44.8174C31.1067 46.0122 33.56 45.5077 34.7334 43.6757C35.9334 41.8437 35.4267 39.4009 33.5867 38.2327C31.7467 37.0379 29.2934 37.5424 28.12 39.3744C26.92 41.1799 27.4267 43.6226 29.2667 44.8174Z" fill="#0033AD"/>
<path d="M70.7333 27.3468C72.28 28.3558 74.3867 27.931 75.4 26.391C76.4133 24.851 75.9867 22.7535 74.44 21.7445C72.8933 20.7356 70.7867 21.1604 69.7733 22.7004C68.7333 24.2669 69.16 26.3379 70.7333 27.3468Z" fill="#0033AD"/>
<path d="M77.6133 15.5319C78.6266 16.1956 79.96 15.9036 80.6266 14.8946C81.2933 13.8857 81 12.5581 79.9866 11.8943C78.9733 11.2306 77.64 11.5226 76.9733 12.505C76.3333 13.514 76.6266 14.8681 77.6133 15.5319Z" fill="#0033AD"/>
<path d="M71.2401 48.2695C67.5334 48.0571 64.3334 50.898 64.1467 54.5887C63.9334 58.2793 66.7867 61.4654 70.4934 61.6513C70.6267 61.6513 70.7601 61.6513 70.8667 61.6513C74.5734 61.6513 77.5867 58.651 77.5867 54.9338C77.6134 51.4025 74.8134 48.4553 71.2401 48.2695Z" fill="#0033AD"/>
<path d="M41.0267 44.3398C42.1733 46.5966 44.4933 48.0304 47.0533 48.0304C50.76 48.0304 53.7733 45.0301 53.7733 41.3129C53.7733 40.2774 53.5333 39.2419 53.0533 38.2861C51.3733 34.9672 47.32 33.6396 44.0133 35.3123C40.68 37.0116 39.3467 41.0474 41.0267 44.3398Z" fill="#0033AD"/>
<path d="M93.8 35.7636C95.16 35.0733 95.6933 33.4006 95 32.0464C94.3067 30.6923 92.6267 30.1613 91.2667 30.8516C89.9067 31.542 89.3733 33.1881 90.04 34.5423C90.76 35.8964 92.4133 36.4539 93.8 35.7636Z" fill="#0033AD"/>
<path d="M76.7333 37.8878C74.7866 38.8702 73.9866 41.2332 74.9733 43.1715C75.96 45.1097 78.3333 45.9063 80.28 44.9239C82.2266 43.9415 83.0266 41.5784 82.04 39.6402C81.0533 37.7019 78.68 36.9319 76.7333 37.8878Z" fill="#0033AD"/>
<path d="M54.7334 14.5227C56.2534 14.6023 57.5601 13.4341 57.6667 11.9207C57.7734 10.4072 56.5734 9.10622 55.0534 9.00002C53.5334 8.92037 52.2267 10.0621 52.1201 11.5755C52.0401 13.1155 53.2134 14.4165 54.7334 14.5227Z" fill="#0033AD"/>
<path d="M54.7067 31.8607C56.8934 31.9934 58.7601 30.3207 58.8667 28.1435C59.0001 25.9663 57.3201 24.1077 55.1334 24.0015C52.9467 23.8688 51.0801 25.5415 50.9734 27.7187C50.8667 29.8959 52.5201 31.7545 54.7067 31.8607Z" fill="#0033AD"/>
<path d="M33.2668 72.1123C35.2134 71.1299 36.0134 68.7668 35.0268 66.8286C34.0401 64.8903 31.6668 64.0938 29.7201 65.0762C27.7734 66.0586 26.9734 68.4217 27.9601 70.3599C28.9468 72.2981 31.3201 73.0947 33.2668 72.1123Z" fill="#0033AD"/>
<path d="M57.2667 37.6221C55.24 40.7285 56.0933 44.8705 59.2133 46.8884C62.3333 48.9063 66.4933 48.0567 68.52 44.9502C70.5467 41.8437 69.6933 37.7017 66.5733 35.6838C65.48 34.9669 64.2 34.5952 62.8933 34.5952C60.6267 34.5952 58.52 35.7369 57.2667 37.6221Z" fill="#0033AD"/>
<path d="M68.9733 65.6601C67.2933 62.3412 63.2399 61.0136 59.9333 62.6864C56.5999 64.3591 55.2666 68.3949 56.9466 71.6872C58.6266 75.0061 62.6799 76.3337 65.9866 74.661C69.2933 73.0148 70.6533 69.0321 68.9999 65.7132C68.9999 65.6867 68.9999 65.6867 68.9733 65.6601Z" fill="#0033AD"/>
<path d="M80.7334 65.1824C78.8934 63.9876 76.4401 64.4921 75.2667 66.3241C74.0667 68.1561 74.5734 70.5988 76.4134 71.7671C78.2534 72.9619 80.7067 72.4574 81.8801 70.6254C83.0801 68.8199 82.5734 66.3772 80.7334 65.1824Z" fill="#0033AD"/>
<path d="M93.64 55.1195C93.7466 53.2609 92.3333 51.6944 90.4666 51.5882C88.6 51.482 87.0266 52.8892 86.92 54.7478C86.8133 56.6063 88.2266 58.1729 90.0933 58.2791C91.9333 58.3853 93.5333 56.9515 93.64 55.1195Z" fill="#0033AD"/>
<path d="M102.947 52.7299C101.747 52.6502 100.707 53.5795 100.653 54.7743C100.6 55.9691 101.507 57.0046 102.707 57.0577C103.907 57.1374 104.92 56.2081 105 55.0133C105.053 53.8185 104.147 52.8095 102.947 52.7299Z" fill="#0033AD"/>
<path d="M94.1734 74.2365C92.8934 73.4134 91.1868 73.7586 90.3334 75.033C89.5068 76.3075 89.8534 78.0068 91.1334 78.8564C92.4134 79.6795 94.1201 79.3343 94.9734 78.0599C95.8268 76.7854 95.4534 75.0596 94.1734 74.2365Z" fill="#0033AD"/>
<path d="M32.3599 94.4686C31.3466 93.8048 30.0133 94.0969 29.3466 95.0792C28.6799 96.0882 28.9733 97.4158 29.9599 98.0795C30.9733 98.7433 32.3066 98.4513 32.9733 97.4689C33.6666 96.4865 33.3733 95.1323 32.3599 94.4686Z" fill="#0033AD"/>
<path d="M78.0133 94.2562C76.9467 94.7872 76.52 96.1148 77.0533 97.1768C77.5867 98.2389 78.92 98.6637 79.9867 98.1327C81.0533 97.6017 81.48 96.3007 80.9467 95.2386C80.4133 94.15 79.1067 93.6986 78.0133 94.2562Z" fill="#0033AD"/>
<path d="M52.7335 72.3778C54.7602 69.2714 53.9068 65.1294 50.7868 63.0849C47.6668 61.067 43.5068 61.9167 41.4535 65.0232C39.4002 68.1297 40.2802 72.2716 43.4002 74.3161C44.4935 75.033 45.7735 75.4047 47.0802 75.4047C49.3735 75.4312 51.4802 74.2895 52.7335 72.3778Z" fill="#0033AD"/>
<path d="M39.2666 82.6532C37.7199 81.6443 35.6133 82.0691 34.5999 83.6091C33.5866 85.149 34.0133 87.2466 35.5599 88.2555C37.1066 89.2645 39.2133 88.8397 40.2266 87.2997C41.2666 85.7597 40.8399 83.6622 39.2666 82.6532Z" fill="#0033AD"/>
<path d="M54.9734 95.4775C53.4534 95.3978 52.1467 96.5661 52.04 98.0795C51.9334 99.5929 53.1334 100.894 54.6534 101C56.1734 101.08 57.48 99.9381 57.5867 98.4247C57.6667 96.8847 56.4934 95.5837 54.9734 95.4775Z" fill="#0033AD"/>
<path d="M54.9999 78.1392C52.8133 78.0065 50.9466 79.6792 50.8399 81.8564C50.7066 84.0336 52.3866 85.8922 54.5733 85.9984C56.7599 86.1046 58.6266 84.4584 58.7333 82.2812C58.8666 80.1306 57.1866 78.2454 54.9999 78.1392Z" fill="#0033AD"/>
<path d="M71.1866 82.3874C69.5333 83.237 68.8666 85.2549 69.72 86.9011C70.5733 88.5473 72.6 89.211 74.2533 88.3614C75.9066 87.5383 76.5733 85.5204 75.7466 83.8742C74.8933 82.2281 72.8666 81.5377 71.1866 82.3874Z" fill="#0033AD"/>
</g>
<defs>
<clipPath id="clip0_746_373">
<rect width="100" height="92" fill="white" transform="translate(5 9)"/>
</clipPath>
</defs>
</svg>
