<svg width="110" height="110" viewBox="0 0 110 110" fill="none" xmlns="http://www.w3.org/2000/svg">
<g clip-path="url(#clip0_716_246)">
<path d="M110 55C110 24.6243 85.3757 0 55 0C24.6243 0 0 24.6243 0 55C0 85.3757 24.6243 110 55 110C85.3757 110 110 85.3757 110 55Z" fill="#3B00B9"/>
<path fill-rule="evenodd" clip-rule="evenodd" d="M12.3439 58.1685C13.8886 79.265 30.7352 96.1115 51.8318 97.656V102.42C28.1093 100.859 9.14131 81.8906 7.57983 58.1685H12.3439Z" fill="url(#paint0_linear_716_246)"/>
<path fill-rule="evenodd" clip-rule="evenodd" d="M51.809 12.3212C30.7125 13.8659 13.8659 30.7125 12.3212 51.8091H7.55713C9.11853 28.0866 28.0866 9.11853 51.809 7.55713V12.3212Z" fill="#29ABE2"/>
<path fill-rule="evenodd" clip-rule="evenodd" d="M97.6559 51.786C96.1114 30.6896 79.2648 13.8429 58.1682 12.2982V7.53418C81.8905 9.09558 100.859 28.0636 102.42 51.786H97.6559Z" fill="url(#paint1_linear_716_246)"/>
<path fill-rule="evenodd" clip-rule="evenodd" d="M58.1912 97.6333C79.2875 96.0888 96.1341 79.2422 97.6794 58.1455H102.443C100.881 81.8679 81.9139 100.836 58.1912 102.397V97.6333Z" fill="#29ABE2"/>
<path d="M75.2081 48.765C76.1064 42.7597 71.5336 39.5313 65.2808 37.3777L67.3091 29.2426L62.3567 28.0085L60.382 35.9292C59.0801 35.6048 57.7428 35.2988 56.4142 34.9956L58.403 27.0227L53.4535 25.7886L51.4237 33.9208C50.346 33.6754 49.2881 33.4329 48.2613 33.1776L48.2669 33.1522L41.4372 31.447L40.1197 36.7359C40.1197 36.7359 43.7942 37.5779 43.7166 37.6301C45.7223 38.1308 46.0848 39.458 46.0242 40.5101C44.171 47.9438 42.3214 55.3607 40.4667 62.7954C40.2213 63.4047 39.5993 64.3186 38.1972 63.9717C38.2466 64.0436 34.5975 63.0733 34.5975 63.0733L32.1389 68.7416L38.5836 70.348C39.7826 70.6484 40.9575 70.9629 42.1142 71.2591L40.0647 79.487L45.0115 80.7211L47.0412 72.5806C48.3925 72.9473 49.7043 73.2858 50.9879 73.6046L48.9651 81.7074L53.9176 82.9415L55.967 74.7286C64.4119 76.3264 70.7621 75.6822 73.435 68.0449C75.5888 61.8956 73.3278 58.3486 68.8846 56.0356C72.1205 55.2894 74.5578 53.1612 75.2081 48.765ZM63.8928 64.6303C62.3624 70.7796 52.0076 67.4553 48.6506 66.6218L51.3701 55.721C54.7272 56.5587 65.4923 58.2174 63.8928 64.6303ZM65.4246 48.6762C64.0282 54.2697 55.4099 51.4278 52.6142 50.7311L55.0798 40.8444C57.8755 41.5411 66.8789 42.8414 65.4246 48.6762Z" fill="white"/>
</g>
<defs>
<linearGradient id="paint0_linear_716_246" x1="40.2883" y1="92.5132" x2="10.5752" y2="67.4909" gradientUnits="userSpaceOnUse">
<stop offset="0.21" stop-color="#ED1E79"/>
<stop offset="1" stop-color="#522785"/>
</linearGradient>
<linearGradient id="paint1_linear_716_246" x1="90.9007" y1="41.8919" x2="61.1879" y2="16.8702" gradientUnits="userSpaceOnUse">
<stop offset="0.21" stop-color="#F15A24"/>
<stop offset="0.6841" stop-color="#FBB03B"/>
</linearGradient>
<clipPath id="clip0_716_246">
<rect width="110" height="110" fill="white"/>
</clipPath>
</defs>
</svg>
