<svg width="110" height="110" viewBox="0 0 110 110" fill="none" xmlns="http://www.w3.org/2000/svg">
<g clip-path="url(#clip0_716_287)">
<path d="M110 55C110 24.6243 85.3757 0 55 0C24.6243 0 0 24.6243 0 55C0 85.3757 24.6243 110 55 110C85.3757 110 110 85.3757 110 55Z" fill="#3B00B9"/>
<path fill-rule="evenodd" clip-rule="evenodd" d="M12.3439 58.1685C13.8886 79.2649 30.7352 96.1115 51.8318 97.656V102.421C28.1093 100.859 9.14131 81.8906 7.57983 58.1685H12.3439Z" fill="url(#paint0_linear_716_287)"/>
<path fill-rule="evenodd" clip-rule="evenodd" d="M51.809 12.3212C30.7125 13.8659 13.8659 30.7125 12.3212 51.8091H7.55713C9.11853 28.0866 28.0866 9.11853 51.809 7.55713V12.3212Z" fill="#29ABE2"/>
<path fill-rule="evenodd" clip-rule="evenodd" d="M97.6559 51.7861C96.1114 30.6895 79.2648 13.8428 58.1682 12.2982V7.53418C81.8905 9.09559 100.859 28.0636 102.42 51.7861H97.6559Z" fill="url(#paint1_linear_716_287)"/>
<path fill-rule="evenodd" clip-rule="evenodd" d="M58.1912 97.6333C79.2875 96.0888 96.1341 79.2422 97.6794 58.1455H102.443C100.881 81.8679 81.9139 100.836 58.1912 102.397V97.6333Z" fill="#29ABE2"/>
<path d="M67.2245 62.0369C67.2245 55.5558 63.335 53.3332 55.5558 52.4041C49.9993 51.6618 48.888 50.1815 48.888 47.59C48.888 44.9984 50.7417 43.3315 54.4445 43.3315C57.7785 43.3315 59.6321 44.4428 60.5567 47.221C60.7434 47.7767 61.2991 48.1456 61.8547 48.1456H64.8197C65.562 48.1456 66.1177 47.59 66.1177 46.8476V46.6609C65.3753 42.5847 62.0414 39.4375 57.7829 39.0685V34.6233C57.7829 33.881 57.2272 33.3253 56.3026 33.1431H53.5244C52.782 33.1431 52.2264 33.6987 52.0441 34.6233V38.8818C46.4876 39.6242 42.967 43.327 42.967 47.9589C42.967 54.0711 46.6699 56.4804 54.449 57.405C59.6365 58.3296 61.3035 59.4409 61.3035 62.4059C61.3035 65.3708 58.7119 67.4067 55.1913 67.4067C50.3772 67.4067 48.7102 65.3708 48.1546 62.5926C47.9679 61.8502 47.4122 61.4813 46.8566 61.4813H43.7094C42.967 61.4813 42.4114 62.0369 42.4114 62.7792V62.9659C43.1537 67.5979 46.1142 70.9318 52.2264 71.8564V76.3017C52.2264 77.0438 52.782 77.5999 53.7066 77.7814H56.4849C57.2272 77.7814 57.7829 77.2262 57.9652 76.3017V71.8564C63.5172 70.9273 67.2245 67.0378 67.2245 62.0369Z" fill="white"/>
<path d="M45.554 81.4844C31.107 76.2971 23.6969 60.1832 29.0711 45.9229C31.8494 38.1438 37.9616 32.2184 45.554 29.4401C46.2962 29.0712 46.6652 28.5155 46.6652 27.5865V24.9949C46.6652 24.2526 46.2962 23.6969 45.554 23.5146C45.3673 23.5146 44.9983 23.5146 44.8116 23.7013C27.2175 29.2579 17.5847 47.9633 23.1412 65.5619C26.4751 75.9324 34.4409 83.8984 44.8116 87.2323C45.554 87.6015 46.2919 87.2323 46.4786 86.4902C46.6653 86.3033 46.6652 86.121 46.6652 85.7473V83.1563C46.6652 82.5957 46.1096 81.8581 45.554 81.4844ZM65.1839 23.6969C64.4416 23.3279 63.7037 23.6969 63.517 24.4393C63.3303 24.6259 63.3303 24.8082 63.3303 25.1816V27.7732C63.3303 28.5155 63.886 29.2534 64.4416 29.6268C78.8888 34.8144 86.2987 50.9282 80.9245 65.1884C78.1459 72.9676 72.034 78.8934 64.4416 81.6713C63.6992 82.0405 63.3303 82.5957 63.3303 83.5247V86.1165C63.3303 86.8586 63.6992 87.4146 64.4416 87.597C64.6283 87.597 64.9972 87.597 65.1839 87.4101C82.778 81.8536 92.4105 63.1481 86.854 45.5495C83.5201 34.9966 75.3725 27.0308 65.1839 23.6969Z" fill="white"/>
</g>
<defs>
<linearGradient id="paint0_linear_716_287" x1="40.2883" y1="92.5132" x2="10.5752" y2="67.4909" gradientUnits="userSpaceOnUse">
<stop offset="0.21" stop-color="#ED1E79"/>
<stop offset="1" stop-color="#522785"/>
</linearGradient>
<linearGradient id="paint1_linear_716_287" x1="90.9007" y1="41.8919" x2="61.1879" y2="16.8702" gradientUnits="userSpaceOnUse">
<stop offset="0.21" stop-color="#F15A24"/>
<stop offset="0.6841" stop-color="#FBB03B"/>
</linearGradient>
<clipPath id="clip0_716_287">
<rect width="110" height="110" fill="white"/>
</clipPath>
</defs>
</svg>
