<svg width="110" height="110" viewBox="0 0 110 110" fill="none" xmlns="http://www.w3.org/2000/svg">
<g clip-path="url(#clip0_745_162)">
<path d="M55 110C85.3757 110 110 85.3757 110 55C110 24.6243 85.3757 0 55 0C24.6243 0 0 24.6243 0 55C0 85.3757 24.6243 110 55 110Z" fill="#988430"/>
<path d="M55 108.238C84.4026 108.238 108.238 84.4026 108.238 55C108.238 25.5973 84.4026 1.76172 55 1.76172C25.5973 1.76172 1.76172 25.5973 1.76172 55C1.76172 84.4026 25.5973 108.238 55 108.238Z" fill="#7A6A2A"/>
<path d="M55.0001 107.116C83.7832 107.116 107.117 83.783 107.117 54.9998C107.117 26.2167 83.7832 2.8833 55.0001 2.8833C26.2169 2.8833 2.88354 26.2167 2.88354 54.9998C2.88354 83.783 26.2169 107.116 55.0001 107.116Z" fill="#BA9F33"/>
<path fill-rule="evenodd" clip-rule="evenodd" d="M24.0468 49.1264C23.7353 48.8419 23.4062 48.5567 23.1035 48.2722C22.8007 47.9877 22.4898 47.7026 22.1783 47.418L21.2525 46.538C21.1012 46.3867 20.941 46.2535 20.7897 46.1015C20.6383 45.9684 20.4605 45.817 20.3092 45.6833C19.0807 44.5175 17.8452 43.3518 16.6337 42.1855C17.8886 43.3337 19.1171 44.4735 20.3719 45.6387L20.8078 46.0751C20.9592 46.2259 21.1194 46.3597 21.2707 46.511L22.1959 47.3652C22.5074 47.6498 22.8101 47.9349 23.1217 48.2452C23.4332 48.5556 23.7359 48.8413 24.0474 49.1252L24.0468 49.1264ZM7.74277 48.9504C7.74277 48.9504 12.2102 49.4127 14.3909 49.7242C16.4108 50.0093 22.7298 50.9791 22.7298 50.9791L7.74277 48.9504ZM7.74277 48.9504C8.99765 49.0572 10.2525 49.1903 11.5074 49.3241C12.1481 49.3863 12.7623 49.4573 13.3765 49.5195L14.3193 49.6268C14.6308 49.6708 14.9335 49.7154 15.2451 49.76L18.9833 50.3561L20.8518 50.6676C21.4661 50.7743 22.0803 50.8905 22.721 50.9973C22.1067 50.9351 21.4661 50.8459 20.8518 50.7567L18.9833 50.4898L15.2451 49.9383C14.9335 49.8938 14.6308 49.831 14.3193 49.787L13.3759 49.6785C12.7617 49.6163 12.1211 49.5271 11.5068 49.4555C10.2519 49.3047 8.99707 49.144 7.74219 48.9486L7.74277 48.9504ZM22.2851 52.143C22.2851 52.143 17.5149 53.3539 15.9039 53.8168C14.3199 54.2527 9.52272 55.7123 9.52272 55.7123L22.2845 52.1436L22.2851 52.143Z" fill="#CFB66C"/>
<path fill-rule="evenodd" clip-rule="evenodd" d="M22.2846 52.1431C21.2256 52.4546 20.1726 52.7573 19.0984 53.0424L15.9122 53.8966C14.8533 54.2081 13.8002 54.5109 12.7442 54.8224L11.1602 55.2583C10.6351 55.4096 10.1013 55.5428 9.55859 55.6947C10.0831 55.5187 10.6175 55.3386 11.1426 55.1873L12.7266 54.6804C13.7855 54.3507 14.8386 54.0392 15.8946 53.7101C16.9711 53.4431 18.0306 53.158 19.1072 52.8999C20.1303 52.6417 21.2074 52.3842 22.2846 52.1437V52.1431ZM10.1904 58.6492C10.7149 58.4533 16.767 55.6326 18.1732 54.9737C18.8772 54.644 20.9235 53.9177 20.9235 53.9177L10.1904 58.6492Z" fill="#CFB66C"/>
<path fill-rule="evenodd" clip-rule="evenodd" d="M10.1903 58.6493C10.6526 58.4733 11.0891 58.258 11.5338 58.0532L12.8508 57.439L15.4943 56.1665C16.3743 55.7482 17.2297 55.2865 18.1373 54.8934C18.6002 54.6981 19.063 54.5379 19.5253 54.3866L20.2293 54.1642C20.4693 54.102 20.6922 54.0304 20.9333 53.9683C20.0533 54.3866 19.127 54.7427 18.2458 55.1516C17.3658 55.5881 16.4659 55.9442 15.5577 56.3355L12.8702 57.5188C11.9679 57.8843 11.0879 58.2756 10.1897 58.6493H10.1903ZM10.777 61.1133C10.777 61.1133 16.2588 57.9007 18.1455 56.8682C19.1334 56.3167 22.3284 54.7321 22.3284 54.7321L10.777 61.1133Z" fill="#CFB66C"/>
<path fill-rule="evenodd" clip-rule="evenodd" d="M10.7776 61.1141C11.7028 60.5444 12.6461 59.966 13.5895 59.3787L14.9975 58.524C15.478 58.2394 15.9408 57.9725 16.4307 57.688C16.9112 57.4029 17.3741 57.1183 17.8633 56.8514C18.0963 56.7076 18.3403 56.5826 18.5932 56.4777L19.3406 56.104C20.3285 55.6235 21.3165 55.1336 22.3578 54.7153C21.4144 55.312 20.4441 55.8194 19.4743 56.3439C18.9939 56.6108 18.504 56.8514 18.0235 57.1183C17.543 57.3852 17.0801 57.6704 16.5903 57.9285C16.1098 58.213 15.6469 58.48 15.1576 58.7381L13.7068 59.5301L10.7788 61.1141H10.7776ZM22.2845 55.4358C22.2845 55.4358 18.8759 58.0523 17.7724 58.8889C16.6689 59.7255 13.4205 62.0751 13.4205 62.0751L22.2845 55.4358Z" fill="#CFB66C"/>
<path fill-rule="evenodd" clip-rule="evenodd" d="M41.8465 76.5373L40.1023 73.2355L41.1166 69.106L48.352 66.3117L45.2726 59.9933L46.7944 53.6121L49.6515 47.898L58.4802 46.5099L64.9676 40.3247L78.976 41.3836L81.7257 56.3618L76.4305 75.2202L73.4138 84.9835L61.1853 85.4464L55.5076 81.5128L48.8595 78.7355L41.8465 76.5373Z" fill="#E2CC85"/>
<path fill-rule="evenodd" clip-rule="evenodd" d="M63.2948 76.4304C63.2948 76.4304 61.6034 77.2048 58.7188 77.0264C57.884 75.9053 52.0372 75.3802 52.0372 75.3802C52.0372 75.3802 51.3074 75.1579 50.0168 75.6917C48.7179 76.2197 47.4894 76.1546 46.3413 76.4392C45.1932 76.7237 44.0533 75.2289 43.1733 74.9173C42.2933 74.5882 41.1264 73.7962 41.1264 73.7962L38.6624 73.5557L33.7145 71.4642L25.8537 63.6328L23.7177 66.9768L23.0588 71.1152L25.4354 76.0191L31.8342 81.8482L44.3114 85.0162L51.7069 82.8373L60.9716 78.9213L63.2948 76.4298V76.4304Z" fill="#F1D789"/>
<path fill-rule="evenodd" clip-rule="evenodd" d="M18.9651 48.7527L20.5491 43.9561L22.4364 40.8585L28.5143 40.3511L26.6898 45.6733L21.6086 54.7156L23.7177 62.7876L19.98 64.6561L18.8314 62.8943L17.9062 58.854L17.844 54.3149L18.9651 48.7527Z" fill="#F4ECB4"/>
<path fill-rule="evenodd" clip-rule="evenodd" d="M25.7822 76.1011L24.6165 74.4725C24.6165 74.4725 24.3049 73.6981 24.4833 73.0216C24.6593 72.3364 24.6341 72.2918 24.5455 72.0337C24.4569 71.7756 23.7089 70.8856 23.7535 70.12C23.7975 69.3456 23.6913 69.0875 24.2603 68.4738C24.8564 67.8778 24.6786 66.8452 24.6786 66.8452L25.453 67.3257L25.629 67.0588C25.629 67.0588 25.9136 67.2811 25.9136 67.6284C25.9758 67.1479 25.7176 64.9227 26.3049 64.4158C26.8921 63.909 27.9335 66.7918 27.9335 66.7918L27.2928 62.6089L25.6461 58.3198L22.718 54.4038L22.542 50.0871V49.7134C22.542 49.7134 21.1979 51.7784 20.8242 53.4094C20.5573 54.5305 21.1979 55.8922 21.0648 57.5031C20.9574 59.1053 20.8242 58.9804 21.2155 59.6151C21.6069 60.2499 22.5596 61.5552 22.1859 62.4986C21.8568 63.3088 20.7351 62.7391 20.7351 62.7391C20.7351 62.7391 20.5127 63.3974 20.21 63.6379C20.1032 63.2466 19.9877 62.9973 19.7741 62.7579C19.7559 62.9093 19.7119 63.114 19.7119 63.114C19.7119 63.114 19.516 62.4998 19.32 61.7254C19.0537 60.6934 18.7686 59.3318 18.5104 58.602C18.4037 59.0203 18.1367 60.2927 18.1367 60.2927L18.2881 62.251L19.0179 64.9386L19.7219 66.6986L20.4071 68.8522L21.0026 70.2989L21.4831 71.4024L21.9014 73.8858L23.9213 76.0213L24.9984 76.5023L25.781 76.1016L25.7822 76.1011Z" fill="#F3E19D"/>
<path fill-rule="evenodd" clip-rule="evenodd" d="M20.0242 44.8364C20.0242 44.8364 18.5734 47.3004 18.1557 49.7844C17.738 52.2683 17.3637 54.8931 17.6277 58.2746C17.8946 61.6837 18.4021 63.7746 18.8115 65.27C19.5155 67.7534 21.3389 71.2065 21.3389 71.2065L21.4011 71.0728C21.0946 70.4918 20.85 69.8803 20.6713 69.2482C20.4308 68.3049 20.3416 67.1837 20.1192 66.6763C19.9233 66.1694 19.5942 65.7329 19.434 65.1099C19.2826 64.5138 19.258 63.5705 18.7934 62.8676C18.5974 62.5825 18.3569 61.8351 18.2859 61.0877C18.1967 59.966 18.3305 58.7111 18.2237 57.6792C18.0278 55.9614 17.8946 54.7957 18.0723 53.8963C18.2501 52.997 19.1765 50.4438 19.7461 48.4145C20.1198 47.115 19.8969 46.0203 20.5821 44.8898C21.2673 43.7687 21.6862 42.7808 21.837 42.0955C22.013 41.4725 20.0218 44.8364 20.0218 44.8364H20.0242Z" fill="#F2E8B0"/>
<path fill-rule="evenodd" clip-rule="evenodd" d="M26.904 43.8486C26.904 43.8486 26.1566 44.0716 25.8005 44.4629C25.4444 44.8366 25.2931 45.1481 24.8126 45.7799C24.3321 46.4118 24.3051 46.928 23.9132 47.72C23.5219 48.4944 22.6583 49.6602 22.5516 50.0784C22.4448 50.4967 22.267 52.4544 22.0447 53.3802C21.8487 54.306 22.267 55.4453 22.267 55.4453L22.7739 55.3379C22.7739 55.3379 22.7739 55.9967 23.2814 56.442C23.7883 56.8779 23.8774 54.9642 23.8774 54.9642L25.7729 48.5654L28.6294 46.6253L28.9409 45.0589L26.9029 43.8486H26.904Z" fill="#F5EEC0"/>
<path fill-rule="evenodd" clip-rule="evenodd" d="M28.292 46.7502C28.292 46.7502 26.9479 46.8388 26.2897 47.3198C26.0228 47.5152 25.916 47.6753 25.6314 47.9159C25.1064 48.3518 24.5719 48.7525 24.3144 49.3239C24.0293 49.8929 23.7177 50.7565 23.5042 52.3851C23.415 53.0703 23.415 53.7022 23.3528 54.2542C23.2637 55.0016 23.1305 55.5977 23.2015 56.0142C23.2907 56.8684 24.1718 57.3137 24.2575 58.2834L26.082 57.3583L27.7998 50.5852L31.4488 48.2972L29.3838 45.9834L28.2896 46.7461L28.292 46.7502Z" fill="#E6DB9D"/>
<path fill-rule="evenodd" clip-rule="evenodd" d="M18.6666 92.3585C18.6742 92.2916 18.6819 92.2247 18.6895 92.1561C18.9558 89.8681 19.001 88.1339 19.1964 87.048C19.4809 85.5086 19.6768 84.936 19.6323 84.3599C19.5701 83.4347 19.4991 82.7583 19.5883 82.0461C19.7214 81.1027 20.6472 79.9816 20.6208 79.2072C20.6026 78.593 20.2911 78.1928 20.0241 77.8191C19.7572 77.4454 19.5437 77.1339 19.5437 77.1339C19.5437 77.1339 21.3682 75.879 21.3506 70.8237C21.3879 70.8342 21.4237 70.8492 21.4574 70.8683L22.3561 73.4221L22.9704 74.1695L25.3288 78.566L28.3636 81.5122L32.8487 84.5288L35.6612 87.5895L35.9457 95.7506L32.2702 100.521L31.6683 101.611C26.8862 99.2101 22.501 96.0895 18.666 92.3579L18.6666 92.3585Z" fill="#E5CB7A"/>
<path fill-rule="evenodd" clip-rule="evenodd" d="M29.8943 100.165C29.8943 100.165 29.9565 99.1511 30.7931 98.4923C30.9268 98.7147 31.0154 98.9288 30.989 99.0884C31.1404 98.822 32.1993 97.1131 34.5935 96.6678C36.9877 96.2319 37.5661 94.4877 37.5661 94.4877L42.6472 89.8689L48.4588 84.5203L55.5252 82.0369L58.8275 81.2267C58.8275 81.2267 58.8897 81.4673 58.7653 82.0011C59.379 81.9571 60.7406 81.6456 62.1557 81.1469C62.7253 80.9246 63.2598 80.8354 63.5443 81.1293C63.9626 81.5206 64.0248 82.4464 64.0512 82.9979C64.7364 82.8465 65.5284 82.1883 66.1632 82.2505C67.1781 82.3572 68.0769 83.5499 69.1094 83.5499C70.4711 83.5499 71.0847 82.7133 72.0375 82.0545C72.6071 81.6632 73.4255 81.1745 73.8884 80.8442C74.9919 80.034 86.6684 76.4653 86.6684 76.4653L90.7621 76.7323L91.421 81.1287L91.069 92.6215C91.0255 92.6632 90.9821 92.7066 90.9381 92.7483L72.3244 102.47L46.5228 106.425C40.7431 105.481 35.1657 103.562 30.028 100.752L29.896 100.165L29.8943 100.165Z" fill="#D8C173"/>
<path fill-rule="evenodd" clip-rule="evenodd" d="M20.2312 93.8205C20.5979 93.0537 20.9276 92.4125 20.9857 92.1831C21.0314 92.6454 21.1153 93.6597 21.2843 94.738C20.9295 94.4365 20.5785 94.1304 20.2312 93.8199V93.8205Z" fill="#F1D789"/>
<path fill-rule="evenodd" clip-rule="evenodd" d="M39.0791 104.636L42.416 103.708L42.7006 103.797C42.7006 103.797 42.8519 103.886 42.8519 104.189C43.2702 103.949 43.6263 103.993 43.8844 103.833C44.0176 104.118 44.1508 105.061 44.7386 105.176C45.3523 105.31 46.0111 104.91 46.6787 104.403C47.337 103.878 48.0867 103.219 48.654 102.952C48.8622 103.335 49.0466 103.73 49.2061 104.135C49.9535 103.539 51.253 101.119 53.1039 101.163C53.6389 99.8983 54.5327 98.8185 55.6747 98.0567C57.3924 96.891 58.469 96.8018 59.813 96.9086C60.3469 96.2152 61.0047 95.6268 61.7531 95.1732C61.9755 95.2624 62.5897 95.6361 63.3553 95.28C64.1297 94.9245 65.0015 93.5447 66.1496 93.3669C66.7683 93.2818 67.3974 93.4138 67.9296 93.7406C67.9296 93.7406 71.2736 90.4207 73.5809 89.3171C73.4918 89.0502 73.314 88.0447 76.0191 85.8194C76.1705 85.9532 76.0637 86.3269 76.1705 86.3474C76.2145 86.3474 76.8745 86.0629 77.7099 85.4217C78.7424 84.6479 79.9791 83.8377 80.7265 83.6153C82.1345 83.197 83.6282 84.0512 83.6282 84.0512C83.7552 83.9621 83.8967 83.8958 84.0465 83.8553C84.402 83.7931 84.6601 83.7485 84.8561 83.6793C84.8385 84.1421 85.0966 84.9341 84.8561 85.6194C85.1347 85.7761 85.4298 85.9014 85.7361 85.9931C85.5853 86.3222 85.2556 87.1588 84.7041 87.5595C85.1664 87.7818 85.2286 88.04 85.8874 88.2635C85.6205 88.6372 85.1834 89.2784 84.9887 89.6715C84.7927 90.0898 84.0893 91.8251 83.7778 92.4834C83.4487 93.1422 83.004 94.3525 82.7898 94.5954C82.5757 94.8383 81.8019 95.8679 81.2058 96.3747C81.7338 96.1788 83.8939 95.5205 84.8103 95.2712C84.5375 95.6713 83.1547 97.7229 81.8254 99.6959C75.4603 103.511 68.3553 105.926 60.9837 106.779C53.6121 107.632 46.1433 106.905 39.075 104.645L39.0791 104.636Z" fill="#E0CD81"/>
<path fill-rule="evenodd" clip-rule="evenodd" d="M28.5121 46.5099C28.5121 46.5099 27.7383 46.5099 27.5869 46.6167C27.4356 46.7235 28.3613 46.9464 28.6458 47.0532C28.9304 47.16 29.5446 47.6492 29.7048 48.0411C29.8561 48.4148 35.267 50.5949 35.267 50.5949L39.0938 50.3989L40.4132 48.5762L37.9035 46.3779L39.6635 41.1895L37.332 41.5632L31.7253 44.9072L28.9128 45.9843L28.5121 46.5099Z" fill="#DFC57C"/>
<path fill-rule="evenodd" clip-rule="evenodd" d="M36.916 48.2276C36.9714 48.3172 37.0493 48.3907 37.1419 48.4406C37.2346 48.4905 37.3388 48.5152 37.444 48.5122C38.236 48.5122 38.9653 48.7081 39.268 49.1082C39.7754 49.7495 41.1817 51.7963 41.1817 51.7963L44.5456 53.0066L44.7627 49.0455L41.0872 46.4917L36.9043 48.0311V48.2271H36.9137L36.916 48.2276Z" fill="#E5CC7C"/>
<path fill-rule="evenodd" clip-rule="evenodd" d="M36.2559 49.6962C36.2559 49.6962 36.8695 49.7407 37.6439 49.4556C38.4183 49.1705 39.6908 48.5568 40.2429 48.7974C41.0167 49.1265 40.8565 50.159 41.6937 51.0854C42.2006 51.655 43.1263 51.6374 43.6514 52.2517C44.1765 52.8659 45.9828 52.5808 45.9828 52.5808L46.668 56.2768L43.9183 59.8015L43.019 64.1798H39.3007L35.9039 62.8322L34.2307 58.7842L35.0673 54.6904L36.2559 49.6962Z" fill="#D2C281"/>
<path fill-rule="evenodd" clip-rule="evenodd" d="M43.4485 49.8735C43.5407 49.902 43.6365 49.917 43.733 49.9181C43.6262 50.0073 43.4033 50.2027 43.4925 50.7101C43.5816 51.2176 43.8662 51.8582 43.6262 52.2495C43.8178 52.459 43.9606 52.7082 44.0445 52.9794C44.1959 53.4158 44.2405 53.8159 45.2278 53.8787C45.0853 53.9664 44.9539 54.071 44.8365 54.1902C44.8365 54.1902 45.5217 54.7863 45.869 55.3378C46.2246 55.3225 47.1679 55.0292 47.1679 55.0292L47.3639 55.1629L47.7822 54.9869C47.7822 54.9869 47.3909 54.8356 47.6754 53.8834C47.9423 53.0468 48.1829 53.0914 48.2034 53.0292C48.2239 52.967 48.3993 52.0859 48.3993 51.7298C48.5325 51.2675 48.6393 49.8612 48.6393 49.8612L48.3548 46.7554L46.7532 45.7851L45.4508 44.5278L44.2223 46.8416L43.4133 47.6483L43.3511 49.6506L43.4485 49.8735Z" fill="#E2C270"/>
<path fill-rule="evenodd" clip-rule="evenodd" d="M47.3018 47.2754C47.3018 47.2754 47.5863 48.085 47.6937 48.7081C47.7315 48.587 47.7524 48.4612 47.7558 48.3344C47.7558 48.3344 47.9782 49.5628 48.0222 50.0703C48.1114 50.0521 48.1982 50.0257 48.2181 50.1143C48.2381 50.2029 48.4411 51.1914 48.3941 51.7429C48.7647 51.1315 49.2776 50.6187 49.889 50.2481C50.2451 50.0251 50.6634 49.7852 51.0998 49.767C51.7851 49.7494 52.2831 50.2035 53.1021 50.2035C55.0774 50.2035 56.8668 48.7527 58.1838 48.308C59.1536 47.9783 59.9902 47.7383 60.5774 47.2039C60.8626 46.9639 61.37 46.43 61.8323 45.6375C62.4466 44.5815 63.0872 43.6621 63.7284 43.5466C63.4383 43.5999 63.1432 43.6207 62.8484 43.6088C62.8484 43.6088 63.0444 43.4128 63.3764 43.1459C63.7085 42.8789 64.1062 42.5498 64.6753 42.5498C65.6902 42.5498 66.1971 42.7006 66.7668 42.7006C67.3364 42.683 67.6655 42.5498 67.6655 42.5498C67.6655 42.5498 68.2622 42.9681 69.6056 42.9681C70.9497 42.9857 71.8485 43.1013 72.5519 43.1641C73.2553 43.2268 75.6131 42.9681 76.2895 42.9881C76.7306 43.0051 77.1636 43.111 77.5626 43.2996L75.382 36.9636L67.5488 30.1172L62.8854 33.4189L55.7116 40.5921L48.7702 43.1641L47.3194 44.7927V47.2754H47.3018Z" fill="#CCB360"/>
<path fill-rule="evenodd" clip-rule="evenodd" d="M62.8766 43.6439C62.8766 43.6439 63.0726 43.4485 63.4011 43.1816C63.7296 42.9146 64.1315 42.5849 64.7006 42.5849C65.7149 42.5849 66.2224 42.7363 66.792 42.7363C67.3617 42.7187 67.6908 42.5849 67.6908 42.5849C67.6908 42.5849 68.288 43.0026 69.6309 43.0026C70.975 43.0202 71.8737 43.1358 72.5772 43.198C73.2806 43.2602 75.6384 43.0026 76.3148 43.022C76.7557 43.0386 77.1886 43.1446 77.5873 43.3335L76.5993 40.4764L75.4518 38.2964L72.1765 34.7095C72.1765 34.7095 68.2458 32.3957 68.2159 32.3781C68.1983 32.3605 66.8542 32.0044 66.8542 32.0044L63.2943 34.158L60.0641 42.5151L60.002 44.2751L62.0928 45.2631C62.6179 44.3831 63.1969 43.6791 63.7396 43.5899C63.2497 43.6433 62.876 43.6433 62.876 43.6433L62.8766 43.6439Z" fill="#D5B457"/>
<path fill-rule="evenodd" clip-rule="evenodd" d="M62.8319 44.2407C62.5204 44.2583 62.2628 44.1961 62.1912 43.9738C61.9243 43.2264 61.7108 43.1196 61.4872 43.1196C61.2637 43.1196 60.9622 43.6001 60.7832 43.6441C60.6043 43.6881 60.3919 43.0926 60.3919 43.0926L60.196 43.0034C60.196 43.0034 59.0479 43.7508 58.2383 44.632C57.4287 45.5132 56.1022 47.0086 55.5062 47.2749C54.9101 47.5413 52.8627 47.631 52.1622 47.7824C51.4617 47.9338 50.6849 48.4412 50.5782 48.5568C50.4714 48.6724 50.8903 48.7967 50.9525 48.9123C51.0147 49.0191 50.2667 48.9745 50.2045 49.0883C50.1605 49.1775 50.3805 49.6844 50.4896 49.9425C50.6805 49.8476 50.8901 49.7959 51.1032 49.7912C51.7885 49.7736 52.2871 50.2276 53.1055 50.2276C55.0814 50.2276 56.8702 48.7768 58.1872 48.3315C59.1576 48.0024 59.9942 47.7619 60.5814 47.228C60.866 46.9881 61.3734 46.4536 61.8363 45.6616C62.1742 45.1189 62.5039 44.6115 62.8336 44.2378L62.8319 44.2407Z" fill="#D2B257"/>
<path fill-rule="evenodd" clip-rule="evenodd" d="M34.4959 88.2851C34.4959 88.2851 34.3199 87.6263 32.689 85.9267C32.2261 85.4462 31.9416 85.0467 31.6301 84.761C30.8557 84.0306 30.4016 83.8352 29.8501 83.4169C28.6398 82.5182 27.3228 82.5182 26.3084 81.4146C25.2941 80.3111 24.1119 78.2026 23.2906 76.0478C22.481 73.8942 22.2581 73.2089 22.2581 73.1467C22.2581 73.0846 22.481 72.6663 22.7655 72.7285C23.0501 72.7906 23.0501 73.3421 23.1216 73.4759C23.2634 73.6942 23.4242 73.8995 23.6021 74.0895C24.0204 74.5706 24.6165 75.1455 24.9192 76.0032C24.857 75.2734 24.6077 74.4638 24.6077 74.4638C24.6077 74.4638 26.1741 75.4518 27.5087 76.4837C28.8528 77.5162 29.4042 77.8723 29.7967 78.5306C30.1892 79.1888 31.1138 80.9248 31.5567 81.4322C31.9997 81.9397 38.0687 83.8528 38.0687 83.8528L40.9557 86.0053L42.3889 89.1469L41.2672 90.9069L39.1136 91.3698L35.6159 89.8034L34.4959 88.2845V88.2851Z" fill="#D2B159"/>
<path fill-rule="evenodd" clip-rule="evenodd" d="M26.7256 77.4631C26.7256 77.4631 27.4554 78.6288 29.2353 79.7323C30.8375 80.7026 33.3737 81.5838 35.6347 82.1089C36.9336 82.4204 38.2331 82.6603 39.3988 82.6785C42.5404 82.7225 44.7028 81.8243 47.3821 81.5304C48.8329 81.3791 50.6129 81.2635 52.4638 80.8264C54.8398 80.2568 56.2461 79.6155 58.1598 78.7144C59.5478 78.0738 60.8209 77.5933 61.8528 76.9791C63.3037 76.1249 64.3626 75.1727 65.5911 74.8882C65.4397 75.3065 65.2796 76.0539 64.0693 76.8283C64.7099 76.8101 65.5911 76.7661 65.5911 76.7661C65.5911 76.7661 64.7369 77.273 63.2327 78.4123C62.3069 79.1163 61.079 80.3078 59.8241 81.0998C59.014 81.6073 58.1328 81.9798 57.5543 82.2837C56.1463 83.0581 55.5784 83.4494 54.6533 84.3957C54.9824 84.3781 55.0094 84.3957 55.0094 84.3957C55.0094 84.3957 53.8431 84.5471 53.0071 84.9918C52.8311 84.9918 52.526 84.9296 51.9921 85.0809C51.5739 85.2141 51.0218 85.5174 50.4527 85.677C49.6425 85.9175 49.3762 85.8107 49.3762 85.8107L49.5094 86.0777C49.5094 86.0777 48.4534 86.0595 48.1014 86.0953C48.1636 86.1129 48.146 86.1399 48.146 86.1399C48.0841 86.1502 48.0246 86.1713 47.97 86.202C47.8006 86.3118 47.6143 86.3929 47.4185 86.442C47.3117 86.4596 47.2225 86.4596 47.0888 86.4866C47.1334 86.5934 47.4807 87.1906 47.6408 87.5426C47.5077 87.6318 45.5048 89.1448 45.5048 89.1448C45.5669 89.2425 45.6177 89.347 45.6561 89.4563C45.7183 89.6516 45.7453 89.9368 45.8075 90.0699C45.9583 90.3369 46.0475 90.3815 46.0475 90.3815C46.0475 90.3815 45.8075 90.4261 45.3886 90.5328C45.0331 90.622 44.5966 90.7728 43.9806 90.8619C43.7916 90.8865 43.6015 90.9014 43.411 90.9065C43.5001 91.1025 43.8915 91.8499 43.1704 92.7129C42.4494 93.5759 42.2271 93.7014 42.0047 94.2529C41.8928 94.1682 41.7736 94.0936 41.6486 94.0299C41.4087 93.9232 41.079 93.7636 40.9634 93.5495C40.896 93.8348 40.8068 94.1145 40.6965 94.386C40.4741 94.9821 40.145 95.5699 40.0828 96.0146C39.8423 95.7477 39.3976 95.2226 38.7833 95.3294C38.1691 95.4362 37.6798 96.2728 37.5731 96.5133C37.5731 96.3619 37.4663 96.2464 37.4399 96.4241C37.4217 96.6201 37.0838 98.6664 35.1971 100.322C35.1795 99.9037 35.1795 98.9779 35.1349 98.6758C34.9589 98.8518 34.7436 99.1117 33.4617 99.6637C32.2068 100.215 32.4057 100.767 32.4057 100.767C32.4057 100.767 32.2989 99.8872 32.9753 98.9603C33.6606 98.0351 34.0789 97.5986 34.0789 97.5277C34.0678 97.4554 34.0369 97.3875 33.9897 97.3317C33.9005 97.2425 33.7228 97.1358 33.7228 97.0648C33.8295 97.0208 34.8885 96.5133 34.8263 95.4626C34.7641 94.5198 34.364 94.0299 34.0789 93.6832C34.0349 93.6386 34.4977 93.3095 34.435 93.2027C34.3904 93.1406 33.8213 92.7217 33.7497 92.4987C33.7666 92.3657 33.7964 92.2346 33.8389 92.1074C33.9011 91.9115 33.9457 91.7777 33.9281 91.6446C33.8835 91.4222 33.643 90.808 33.572 90.7458C33.6342 90.7634 34.0789 90.7458 34.0789 90.7458C34.0789 90.7458 33.7233 90.1761 33.6606 89.9092C33.5978 89.6423 33.4646 88.9388 33.3936 88.8057C33.545 88.8233 33.9187 88.8497 33.9187 88.8057C33.9369 88.6719 33.5896 88.4496 33.7427 88.2777C33.8495 88.2953 34.0542 88.3845 34.2496 88.6338C34.1428 88.3487 33.9651 87.7972 33.5908 87.5748C33.7668 87.5127 34.3652 87.3519 34.8902 87.6634C35.4153 87.975 35.5942 88.4108 35.5942 88.4108C35.5942 88.4108 35.9057 88.6514 36.3868 89.0075C36.9383 89.4434 37.6411 90.0635 38.7628 90.5023C39.0033 90.6361 39.617 90.6361 40.0623 90.5469C40.2562 90.5007 40.442 90.4258 40.6137 90.3246C40.6757 90.288 40.7414 90.2581 40.8097 90.2354C40.714 90.0433 40.604 89.8588 40.4806 89.6833C40.6319 89.6833 40.8097 89.7015 40.8097 89.7015C40.8097 89.7015 40.9165 89.461 40.436 88.9975C40.5428 88.8907 40.6765 88.8215 40.6765 88.6414C40.5252 88.6238 40.2582 88.4015 40.196 88.3123C40.2846 88.2501 40.4184 88.0454 40.5697 87.9832C40.436 87.8764 40.1069 87.4311 39.9555 87.3871C40.1001 87.3334 40.24 87.2679 40.3738 87.1912C40.3738 87.1912 39.6264 86.9952 39.3859 86.8351C39.1453 86.6591 38.7898 86.3546 38.5763 86.2654C38.3533 86.1762 37.962 86.1322 37.8019 85.9539C37.9526 85.9985 38.1932 85.9539 38.3715 85.9539C38.5047 85.9539 38.5675 85.9715 38.6115 85.9715C38.5939 85.9093 38.5939 85.7755 38.9412 85.7315C39.1082 85.7064 39.2703 85.6553 39.4216 85.5802C39.4216 85.5802 39.0919 85.5626 38.7176 85.2065C38.3433 84.8504 38.0324 84.5658 37.8189 84.5212C37.5965 84.4767 37.1782 84.6726 36.9201 84.6544C36.564 84.6104 36.4126 84.4321 36.4126 84.4321C36.4126 84.4321 35.2293 84.5388 32.604 82.9372C30.3342 81.5486 29.3462 80.3207 29.3462 80.3207C29.1338 80.2436 28.9285 80.1482 28.7326 80.0356C27.8784 79.5909 26.6945 78.6651 26.7303 77.4543L26.7256 77.4631Z" fill="#C2A44D"/>
<path fill-rule="evenodd" clip-rule="evenodd" d="M59.4675 24.0466C59.6734 24.1135 59.8564 24.2369 59.9955 24.4027C60.4138 24.8832 60.6807 25.7908 59.7286 26.7611C60.1023 26.8943 60.2566 26.9371 60.5828 26.8943C60.2537 27.2862 59.5062 28.1228 59.4616 28.8526C59.4171 29.4487 59.7908 29.627 59.7908 29.627C59.7908 29.627 59.2211 30.2853 59.1947 31.387C59.4637 31.0836 59.7581 30.8038 60.0747 30.5504C60.7335 30.0254 61.6411 29.4293 62.2554 29.0556C62.247 29.2122 62.2681 29.369 62.3175 29.5179C62.3175 29.5179 63.4651 28.5745 64.4295 28.9934C64.8654 29.1894 64.6695 29.803 64.6695 29.803C64.6695 29.803 65.2661 29.5807 65.6844 29.999C66.1027 30.4173 66.6941 31.4961 66.9974 31.9144C67.1306 32.1104 67.4779 32.4841 67.8334 33.0625C68.3191 33.8724 68.7246 34.7277 69.0443 35.6163C69.0619 35.1534 69.1774 34.433 70.4951 34.8865C71.8122 35.3494 73.307 36.3197 74.5619 38.2305C75.8167 40.1413 76.1277 42.2984 76.7595 43.1198C77.4002 43.9118 78.059 45.2288 78.1036 45.7809C78.1482 46.3329 77.9076 48.1123 79.2247 52.9271C79.5984 51.4322 80.168 48.1123 80.168 48.1123L80.4796 45.1842L80.8357 36.1244L71.3751 28.2648L63.9796 22.8979L59.1648 23.3608L59.4669 24.0461L59.4675 24.0466Z" fill="#CAA13E"/>
<path fill-rule="evenodd" clip-rule="evenodd" d="M77.0446 37.5295C77.0446 37.5295 76.9109 36.6495 74.6862 35.1535C72.461 33.6762 70.7256 33.6762 69.124 32.4213C67.8955 31.4334 66.6143 29.1636 65.78 28.4162C64.9698 27.6776 64.8367 25.5415 64.8367 25.5415L67.5688 23.2535L71.632 17.3804L75.067 13.5981L76.7131 15.8861L79.0011 18.5737L80.2736 23.9669L80.7365 31.8611L77.0405 37.53L77.0446 37.5295Z" fill="#B59544"/>
<path fill-rule="evenodd" clip-rule="evenodd" d="M79.795 46.9921C79.8623 45.7949 79.7145 44.5954 79.3585 43.4504C78.7718 41.6258 77.4899 38.3863 76.8945 37.173C76.6539 35.829 76.8323 35.7222 77.0904 35.5709C77.3486 35.4195 78.3189 34.8669 78.8504 32.9279C79.3819 30.989 81.0311 30.9256 81.0311 30.9256L82.0454 30.1782L83.5854 34.0314L84.9289 37.5116L85.3472 40.1727L85.6587 42.4419L84.9289 47.2391L81.325 50.4962L79.7944 46.9921H79.795Z" fill="#C89D3A"/>
<path fill-rule="evenodd" clip-rule="evenodd" d="M29.5029 100.46V100.362C29.5778 100.315 29.6439 100.255 29.6983 100.186C29.7605 100.096 29.8056 99.9897 29.8496 99.9633C29.9388 99.9187 30.3571 99.7873 30.5795 99.8296C30.8018 99.8718 31.3896 100.114 31.7012 100.096C32.3418 100.079 33.0892 99.589 34.2731 99.812C36.0531 100.141 36.4714 101.351 37.5039 102.037C38.2079 102.518 38.9365 102.304 39.0433 102.304H39.2832C39.3278 102.304 39.657 101.93 39.8353 101.948C40.1914 101.966 40.2266 102.26 40.449 102.277C40.974 102.339 41.989 102.01 42.4964 102.144C42.6469 102.191 42.7837 102.274 42.8953 102.385C43.0068 102.497 43.0898 102.634 43.1371 102.784C43.2438 103.113 43.1547 103.531 42.8965 103.772C42.3451 104.279 41.82 104.76 41.7132 105.18C41.849 105.284 41.9794 105.394 42.1039 105.511C37.7005 104.389 33.4638 102.693 29.5029 100.465V100.46Z" fill="#CEB052"/>
<path fill-rule="evenodd" clip-rule="evenodd" d="M76.8933 82.6784C76.8933 82.6784 78.2814 80.8275 78.7624 79.9105C79.2429 78.9654 77.2406 66.9974 77.2406 66.9974L81.2634 53.8173L81.156 49.5276C81.156 49.5276 81.352 45.5671 81.8149 43.8493C82.3669 44.8372 84.0847 46.0299 84.4584 46.6618C84.6344 45.4509 85.2322 42.8971 85.1436 40.1738C85.4727 40.6807 86.2647 45.7806 86.2647 45.7806L87.0567 49.2155L88.0893 52.8646L89.2374 56.7184L89.9226 59.3795L90.3139 60.0202L90.6436 61.1413L90.9551 62.3522L91.8539 65.1911L92.3819 67.5225L92.8002 71.75C92.8912 72.0737 92.9567 72.404 92.9961 72.7379C93.0137 73.2008 92.9339 73.4677 92.9339 73.5481C92.9339 73.6285 93.0853 74.5625 93.0231 75.2659C92.9339 75.9699 92.9339 76.5208 92.3819 77.0259C91.8298 77.531 91.4831 80.55 91.4831 80.55L90.4952 79.8918C90.4952 79.8918 90.6911 78.9924 90.2282 78.174C89.7654 77.3556 88.8666 77.186 88.3591 77.3198C87.8522 77.4266 86.8379 77.5861 86.5082 77.8713C86.1967 78.1558 85.4317 79.037 84.7282 79.4377C83.8482 79.9657 82.4144 80.0073 81.6494 80.1851C80.875 80.3611 80.0208 80.8891 79.1215 81.5021C78.4163 81.9587 77.6718 82.3514 76.8968 82.6755L76.8933 82.6784Z" fill="#CCA847"/>
<path fill-rule="evenodd" clip-rule="evenodd" d="M76.8933 102.124C76.8933 102.124 76.952 102.162 77.0652 102.224C83.388 99.2618 89.0533 95.0627 93.7265 89.8748C93.6755 88.0737 93.6092 86.2275 93.5365 85.5434C93.3857 84.0926 93.4925 82.6154 93.4479 81.7612C93.4033 80.907 92.9228 77.4269 92.7005 76.5281C92.4599 75.6294 91.9965 75.1841 91.9261 75.1841C91.8639 75.2023 91.4896 76.8754 91.4896 77.2961C91.4896 77.7167 91.4004 78.7293 91.4004 78.9874C91.3382 78.9693 91.3118 78.8114 91.3118 78.7469C91.2226 78.9693 91.1159 79.3611 91.0713 79.4057C91.0267 79.4503 91.1335 79.032 91.0713 78.9429C91.0091 78.8537 90.8953 78.8983 90.9199 78.6759C90.9305 78.5441 90.9512 78.4132 90.9821 78.2846C90.9821 78.2846 90.7152 78.6759 90.5198 79.6727C90.3239 80.6606 90.3239 80.6876 90.2529 80.7762C90.1907 80.8835 89.8346 81.2391 89.8164 81.3728C89.7988 81.6128 90.1461 81.8533 90.1725 81.9865C90.1901 82.2094 89.861 83.2414 89.7542 83.7465C89.6474 84.2516 89.692 85.2413 89.5782 85.7488C89.489 86.2117 89.4022 86.4786 89.0977 86.6739C89.3201 86.7185 89.5336 86.7807 89.5336 86.7807C89.5336 86.7807 89.8451 88.0978 89.0531 89.2195C88.7686 89.6108 88.6976 89.7891 88.3949 90.1452C87.7983 90.8035 87.3354 91.5533 87.2908 92.0408C87.26 91.8969 87.2392 91.751 87.2286 91.6043C87.2286 91.6043 86.3034 92.6814 85.9115 93.2957C85.4047 94.0877 84.7013 94.0431 84.5035 94.239C84.3058 94.435 84.263 94.7905 84.3275 95.0756C84.1515 95.1196 83.8207 95.1824 83.5977 95.8676C83.491 96.2231 83.224 96.5716 82.8057 96.811C82.3874 97.0503 81.88 97.1225 81.6218 97.1847C81.8442 97.2469 81.9334 97.2469 82.0401 97.3178C81.907 97.5402 81.2927 97.8875 80.6075 98.3328C79.9223 98.7511 79.5926 99.3647 79.4236 99.7654C79.2476 100.139 78.9877 100.38 78.5694 100.424C78.7454 100.531 79.0059 100.78 79.1391 100.86C78.9431 100.905 78.6111 100.905 78.0179 101.412C77.3949 101.928 77.1814 102.08 76.8962 102.124L76.8933 102.124Z" fill="#C39D3C"/>
<path fill-rule="evenodd" clip-rule="evenodd" d="M64.5098 106.248C64.8505 106.01 65.2196 105.814 65.6086 105.666C66.9966 105.114 68.4651 105.008 69.0435 104.83C69.5956 104.654 70.0315 104.411 70.7167 104.278C70.6985 104.434 70.6833 104.581 70.6668 104.719C68.6467 105.354 66.5895 105.865 64.5068 106.248H64.5098Z" fill="#D2BA6B"/>
<path fill-rule="evenodd" clip-rule="evenodd" d="M90.1119 69.7382C90.1119 69.7382 89.8274 71.2776 89.3199 72.248C88.8125 73.2183 88.2639 74.5618 88.2639 74.5618C88.2673 74.259 88.3031 73.9575 88.3707 73.6624C87.7301 74.0361 86.1725 74.9355 85.7307 75.3356C85.3124 75.7093 84.609 76.3681 84.4312 76.6796C84.8495 75.4518 85.2854 74.3482 85.357 73.8408C84.7164 74.3036 81.7255 76.7688 80.1685 78.3974L75.318 82.3222C74.7582 82.6242 74.1818 82.8941 73.5914 83.1306C72.7554 83.4861 71.7675 83.7889 71.0376 84.074C71.2336 83.5489 71.5445 83.0855 71.981 82.6408C72.4439 82.2049 73.8319 80.7007 74.0455 80.0008C74.2414 79.2709 74.286 78.8351 74.0279 78.2208C73.7874 78.283 73.2359 78.31 72.8622 78.4168C72.4885 78.5235 72.0878 78.9236 72.0878 78.9236C72.0878 78.9236 72.3723 77.2951 72.9866 75.7556C72.5237 75.7732 71.7317 75.9064 71.7317 75.9064C71.7317 75.9064 72.8352 74.0555 74.7237 72.7654C74.1453 72.8885 73.5794 73.0641 73.0329 73.2899C71.9294 73.7528 70.7191 74.438 69.8203 74.8117C70.3272 74.1077 73.8871 69.0272 76.0055 64.2922C78.1175 59.5666 78.9066 58.3563 79.3695 55.8201C79.6094 54.5652 79.5455 52.7108 79.6094 51.0499C79.6716 49.4032 79.8764 47.9259 79.7432 46.938C80.2947 47.6232 82.3597 49.5545 82.4307 53.8712C82.4929 58.1873 80.4554 64.017 78.2924 67.158C78.8204 67.3094 80.1885 67.4877 81.5941 65.046C82.9998 62.6043 82.9828 61.9226 83.4902 60.9077C83.5524 61.4152 83.5342 61.5929 83.5342 61.5929C83.5342 61.5929 85.5817 59.1101 86.5515 55.9861C86.7474 57.3302 87.3259 58.5141 86.4177 60.9793C85.6081 63.2039 84.5492 63.7472 84.5492 63.7472C84.5492 63.7472 85.0742 63.658 85.848 63.1951C85.9818 63.5242 85.9554 63.8991 86.1777 64.0317C86.4001 64.1643 86.7028 64.3878 86.7474 64.6013C86.9874 64.2452 87.3611 63.7912 87.4772 63.4532C87.388 64.1572 87.3259 67.2355 87.6532 68.8019C88.339 68.7397 89.0419 68.6951 89.5223 67.4578C89.1932 68.6687 89.1932 69.3979 89.4156 70.4305C89.7805 70.1817 90.1096 69.7364 90.1096 69.7364L90.1119 69.7382Z" fill="#C0993A"/>
<path fill-rule="evenodd" clip-rule="evenodd" d="M66.988 20.6829C66.988 20.6829 66.3028 20.9675 65.1371 20.9675C64.1228 20.9675 64.4073 20.5762 62.8233 20.5762C60.3851 20.5762 51.8679 21.9842 50.3725 21.9642C49.4021 21.9466 53.6472 22.3825 53.6472 22.3825L64.4965 22.5339L66.6765 22.3579L67.4867 20.7093L66.988 20.6829Z" fill="#A88F33"/>
<path fill-rule="evenodd" clip-rule="evenodd" d="M38.856 41.8911C38.856 41.8911 37.4674 42.95 36.8801 43.7602C36.2929 44.5704 35.9813 45.1037 35.3137 45.7625C35.4704 45.7685 35.627 45.7475 35.7766 45.7003C35.7766 45.7003 35.7766 45.8763 35.6698 45.9227C35.7621 45.9124 35.8555 45.9228 35.9432 45.9533C36.0309 45.9837 36.1107 46.0334 36.1767 46.0987C35.9808 46.2055 35.4469 46.7399 35.8652 47.3717C36.1767 47.8522 36.8355 47.8962 36.8355 47.8962C36.8355 47.8962 36.6842 48.3327 37.316 48.2881C38.6777 48.2259 40.1995 47.6293 40.9023 47.7807C41.6063 47.9567 42.0064 48.0212 42.5045 48.8848C43.0325 49.7389 43.4924 49.8727 43.4924 49.8727C43.4924 49.8727 43.804 49.0801 43.733 47.8968C43.9884 47.259 44.13 46.5813 44.1513 45.8945L43.6884 42.486L41.6685 39.9316L39.052 41.3825L38.856 41.8893V41.8911Z" fill="#E3C571"/>
<path fill-rule="evenodd" clip-rule="evenodd" d="M41.3389 41.3834C41.3389 41.3834 41.5348 41.8463 42.3538 41.8903C42.2646 42.0862 42.2646 42.1132 42.2916 42.264C42.3092 42.4153 42.3356 42.6377 42.3356 42.6377C42.4258 42.594 42.5073 42.5344 42.5761 42.4617C42.6207 42.6576 42.5316 42.9686 42.5761 43.1915C42.6037 43.3271 42.6484 43.4586 42.7093 43.5828C42.7223 43.5524 42.7372 43.5228 42.7539 43.4942C42.7715 43.4496 42.9299 43.9747 43.3681 44.3742C43.3678 44.3128 43.3829 44.2522 43.4121 44.1982C43.4189 44.3098 43.4558 44.4175 43.5189 44.5097C43.4861 44.4941 43.4562 44.4731 43.4303 44.4475C43.4303 44.4475 43.4743 45.8555 43.7149 46.5836C43.7551 46.5366 43.7908 46.4859 43.8216 46.4322C43.8216 46.3882 43.804 46.8241 43.7595 47.1362C43.6973 47.4478 43.7419 47.8837 43.7419 47.8837C43.9023 47.7573 44.0786 47.6526 44.2663 47.5721C44.5333 47.4648 44.9703 47.1356 45.2367 46.4058C45.3912 45.9925 45.5103 45.5668 45.5928 45.1334C45.6788 45.299 45.7382 45.4772 45.7688 45.6614C45.787 45.8837 46.2053 45.7681 46.2053 45.7681L46.2944 44.7978L46.8224 42.5995L47.3029 41.2379L49.6167 37.634L53.7973 34.4144L57.4464 35.251L60.5252 31.068L55.2212 27.8818L50.2016 28.4069L45.6462 34.7165L41.9977 40.4394L41.3389 41.3828V41.3834Z" fill="#D8B65B"/>
<path fill-rule="evenodd" clip-rule="evenodd" d="M67.6287 32.2527C67.6287 32.2527 67.3171 32.3149 66.4184 32.7807C65.5196 33.2465 64.8966 33.3944 64.5492 34.0796C64.2019 34.7648 64.1755 35.3081 64.1755 35.3081C64.1755 35.3081 64.7898 35.0412 65.1459 34.952C65.5196 34.8634 65.9379 34.8898 65.8933 35.0412C65.8505 35.1449 65.7911 35.241 65.7173 35.3257C65.7173 35.3257 66.4213 35.3081 66.4025 35.6554C66.3838 36.0027 66.2693 36.3852 66.1362 36.5542C66.0024 36.7302 65.4509 36.9906 65.3888 37.1954C65.2374 37.6137 65.451 37.6313 65.3706 37.9692C65.3084 38.2989 65.0151 38.9396 64.0535 40.0607C63.0656 41.1824 62.6455 41.9744 62.6455 41.9744C62.6455 41.9744 62.165 41.0756 61.9157 40.3012C61.7397 40.3898 60.7946 40.9149 60.7946 40.9149L58.6051 33.2882L58.6491 32.7807C58.6491 32.7807 58.8451 32.5408 58.8897 32.0955C58.5606 31.9887 58.516 31.8996 58.0795 31.4818C57.643 31.0641 57.2875 30.5561 56.5583 30.2088C56.4515 30.0128 56.3177 29.7465 55.7839 29.6391C55.25 29.5318 54.9297 29.4438 54.9297 29.4438C54.9297 29.4438 55.2142 29.3364 55.348 29.1141C55.0183 29.1586 54.7519 29.2654 54.0309 29.2478C53.3011 29.2296 53.2207 29.2032 52.8206 29.2654C52.4205 29.3276 51.9406 29.506 51.7617 28.8917C51.5657 28.7404 51.1474 28.8741 50.7913 29.3986C50.4352 29.9231 50.3108 30.342 49.6256 30.5467C49.5774 30.8488 49.4717 31.1387 49.3141 31.4009C49.1182 31.7306 48.8066 32.0597 48.3883 32.549C47.7295 33.3234 47.8363 34.5959 46.7862 35.5662C45.7272 36.536 46.9622 32.8781 46.9622 32.8781L48.6529 28.8301L53.4677 24.1221L60.9436 23.6152L61.6734 27.4872L65.3225 28.7421L67.6275 32.2574L67.6287 32.2527Z" fill="#D3AE4D"/>
<path fill-rule="evenodd" clip-rule="evenodd" d="M68.8124 33.107L65.6708 28.5773L63.4726 26.886C63.4726 26.886 61.9062 24.0031 61.7994 23.9139C61.7103 23.8517 60.233 23.6916 59.2897 23.6294L59.4657 24.0653C59.6716 24.1322 59.8545 24.2556 59.9937 24.4214C60.412 24.9019 60.6789 25.8094 59.7267 26.7798C60.1004 26.913 60.2547 26.9558 60.5809 26.913C60.2518 27.3049 59.5044 28.1414 59.4598 28.8713C59.4152 29.4673 59.7889 29.6451 59.7889 29.6451C59.7889 29.6451 59.2193 30.3039 59.1929 31.4051C59.4619 31.1017 59.7563 30.8218 60.0729 30.5685C60.7317 30.0405 61.6393 29.4468 62.2535 29.0731C62.2451 29.2299 62.2662 29.3869 62.3157 29.536C62.3157 29.536 63.4632 28.5926 64.4277 29.0109C64.8636 29.2068 64.6676 29.8211 64.6676 29.8211C64.6676 29.8211 65.2643 29.5987 65.6826 30.017C66.1009 30.4353 66.6969 31.5118 66.9996 31.9307C67.1328 32.1267 67.4801 32.5004 67.8356 33.0782C68.3215 33.8883 68.727 34.7438 69.0465 35.6326C69.0641 35.2765 69.1357 34.7784 69.7505 34.7784L68.816 33.1052L68.8124 33.107Z" fill="#CAA13E"/>
<path fill-rule="evenodd" clip-rule="evenodd" d="M21.7155 45.9757C21.7155 45.9757 21.4932 45.4236 21.7155 44.3471C21.9379 43.2706 22.2852 42.7631 22.4007 41.1791C22.5163 39.5951 23.5489 37.6192 23.5489 37.6192L26.4053 36.3203L28.4258 36.8718L29.0219 39.5775L26.4675 40.9855C26.4675 40.9855 26.3343 41.5815 25.6133 42.062C24.8923 42.5425 23.8956 42.9162 23.6556 43.4061C23.5122 43.706 23.4075 44.023 23.3441 44.3494C23.3441 44.3494 22.6143 44.1981 22.1784 44.6786C21.7155 45.1684 21.7331 45.6043 21.7155 45.978V45.9757Z" fill="#F4EFC8"/>
<path fill-rule="evenodd" clip-rule="evenodd" d="M27.4823 45.2549C27.4823 45.2549 27.2418 45.4062 27.064 45.7829C26.888 45.4984 26.4674 43.807 26.4498 42.2852C26.4322 40.7634 26.3412 40.3861 26.6932 39.8617C27.0452 39.3372 28.4256 38.7845 28.2297 37.84C28.0338 36.9412 27.2148 36.5675 26.2092 36.8257C25.5052 37.0017 24.9813 38.4988 24.2515 39.2462C23.6995 39.8159 23.0412 39.7267 22.8635 40.0382C22.6229 40.4565 22.8453 40.8748 22.7743 41.1418C22.7561 41.2309 22.5338 41.7114 22.1331 42.2899C21.3235 43.4556 19.953 45.1023 19.7747 46.5796C19.8368 45.743 19.7928 45.7254 20.0152 44.7996L19.8814 44.5773L20.7614 41.6938L21.3311 39.3178L22.6042 35.339L24.8464 31.2723L27.027 28.8335L29.2963 28.9849L29.5632 32.3934L30.8627 38.7927L33.5948 42.1567L29.2159 45.1035L27.4805 45.2549H27.4823Z" fill="#EBCC73"/>
<path fill-rule="evenodd" clip-rule="evenodd" d="M28.8442 46.464C28.8442 46.464 28.4704 46.5532 28.3367 46.4822C28.2029 46.4112 28.0703 46.3309 28.1143 46.2417C28.1583 46.1525 28.3989 46.0018 28.3989 45.9302C28.4038 45.8655 28.3834 45.8015 28.3418 45.7516C28.3003 45.7018 28.241 45.6701 28.1765 45.6632C27.9718 45.6368 27.9096 45.77 27.9096 45.77C27.9096 45.77 27.7136 45.6192 27.5541 45.594C27.6485 45.5825 27.7435 45.5764 27.8386 45.5758C27.5927 45.4644 27.3318 45.3895 27.0642 45.3535C27.2866 45.2203 27.723 44.8284 28.0076 44.8284C28.2921 44.8284 28.4704 44.7844 28.4259 44.6331C28.3813 44.4817 28.1589 44.2594 27.919 44.1702C28.0076 44.0634 28.0703 43.9033 27.8568 43.4662C27.6339 43.0303 27.723 42.7364 27.7946 42.6302C27.8568 42.4964 28.0791 42.2565 28.1859 42.1051C28.2927 41.9538 28.3819 41.749 28.5596 41.6422C28.6488 41.58 28.9333 41.4662 29.2184 41.3577C29.53 41.2509 29.7881 41.1172 29.9659 41.2509C30.1618 41.3841 30.0726 41.5624 30.0726 41.5624C30.0726 41.5624 30.6869 41.3395 31.2383 41.6246C31.7904 41.891 33.1344 42.0605 33.1344 42.0605L33.6161 43.0309L30.4299 45.763L29.1128 46.4218L28.8459 46.4658L28.8442 46.464Z" fill="#E5C66B"/>
<path fill-rule="evenodd" clip-rule="evenodd" d="M33.2668 41.9977C33.2668 41.9977 32.2789 42.6565 32.0565 42.8965C32.1897 42.9147 32.4121 43.0038 32.3229 43.137C32.2161 43.2702 31.5755 43.7331 31.2194 44.1696C30.8457 44.6054 30.4896 45.1575 30.3652 45.4244C30.232 45.6644 29.2171 46.3678 28.8704 46.4564C29.6002 46.4564 31.0686 45.5576 31.6201 45.5576C31.6025 45.8245 31.7714 46.1273 32.0829 46.1537C32.3945 46.1801 33.2932 46.3496 34.5035 45.6022C35.7138 44.8724 35.3137 44.3291 35.8206 43.9736C36.7909 43.3324 37.1823 42.7627 37.7161 42.4072C38.25 42.0517 38.5263 41.9707 38.5263 41.9707C38.5263 41.9707 38.5439 41.7038 38.7023 41.7308C38.7457 41.7357 38.7868 41.7525 38.8214 41.7792C38.8559 41.8058 38.8825 41.8414 38.8983 41.8821C38.8983 41.8821 39.824 41.2233 41.0103 41.0456C40.9826 41.0332 40.9604 41.011 40.9481 40.9834C40.9481 40.9834 41.0367 40.9388 41.0548 40.8942C41.0548 40.8942 41.117 40.805 41.1616 40.8496C41.2062 40.8942 41.2684 41.2233 41.3576 41.3571C41.5535 41.2679 41.9272 40.4313 41.9272 40.4313L42.8266 37.8594V35.5098L42.1226 35.6435L36.8426 37.8858L33.6382 41.2057L33.2645 41.9977H33.2668Z" fill="#E6BD62"/>
<path fill-rule="evenodd" clip-rule="evenodd" d="M48.4674 30.4728C48.753 30.4035 49.0268 30.2924 49.28 30.1431C49.1732 30.4282 49.1732 30.7397 48.7103 31.4162C48.2474 32.0926 48.2298 32.1906 47.8561 32.8934C47.4824 33.6232 47.4378 34.6733 47.0817 35.1356C47.2413 35.0581 47.4125 35.0071 47.5886 34.9849C47.5886 34.9849 47.2331 35.2964 47.0817 35.6255C46.9304 35.9546 46.6634 36.6398 46.0052 37.0587C45.3469 37.4776 44.5098 37.744 43.611 38.7319C42.7116 39.7017 41.7865 40.9301 41.323 41.3719C41.5635 40.9536 41.8927 40.117 41.9818 39.5655C42.071 39.0141 41.9636 38.3547 42.115 37.6254C42.2664 36.8962 42.2664 36.3706 42.995 35.0975C43.7236 33.8244 44.9709 29.4015 44.9709 29.4015L47.6584 28.5474L48.4686 30.4699L48.4674 30.4728Z" fill="#B6933F"/>
<path fill-rule="evenodd" clip-rule="evenodd" d="M46.5275 28.8439C46.5275 28.8439 45.7179 30.0096 45.4955 31.0421C45.2732 32.0746 45.4773 31.9855 45.3442 32.4929C45.2645 32.8023 45.2645 33.1269 45.3442 33.4363C45.6246 32.9846 46.0085 32.6061 46.4641 32.3322C47.2297 31.8699 47.8528 31.5402 48.2241 31.1489C48.5978 30.7306 48.9093 30.0453 49.7189 29.5203C49.3898 29.4757 48.9269 29.3243 48.8389 29.3443C49.1686 28.9706 50.156 28.4009 51.1527 27.7157C52.1407 27.0117 52.0785 26.7277 53.6807 26.0249C53.1556 26.1141 52.9063 25.9803 52.4698 26.0249C52.6458 25.6512 53.2618 25.4729 53.8778 24.8592C54.4938 24.2456 53.4865 23.3374 53.4865 23.3374L48.7932 26.1763L46.524 28.8462L46.5275 28.8439Z" fill="#C49937"/>
<path fill-rule="evenodd" clip-rule="evenodd" d="M33.792 26.7256L33.8988 25.8714L35.2428 23.7178L36.6491 19.9355V14.7646L36.5423 11.7744L36.7646 9.81611L36.9336 9.19366L37.1119 8.95312L38.2595 9.54918L39.844 11.7028L39.9954 15.8594L38.4554 22.4183L34.0589 27.2155L33.792 26.7256Z" fill="#DFC068"/>
<path fill-rule="evenodd" clip-rule="evenodd" d="M37.2898 8.71249C37.2898 8.71249 36.5858 8.73067 36.4356 11.6587C36.2854 14.5868 36.2127 16.1262 36.1059 17.577C35.9991 19.0278 35.7504 19.9084 35.6254 20.7632C35.5005 21.618 35.4295 22.7831 35.0294 23.4953C34.8534 23.8244 34.4773 24.857 33.5961 25.6314C32.6082 26.4856 31.1321 27.0822 30.9086 27.1268C30.5167 27.2154 28.532 27.4113 27.7224 27.8566C27.4379 28.008 26.948 28.1857 26.4054 28.6932C25.3282 29.6629 23.8956 31.3983 22.8631 33.4898C21.2791 36.6138 19.6951 45.4331 19.6951 45.4331L20.0512 44.8371C20.0512 44.8371 20.0958 44.0451 20.8878 42.6564C21.6622 41.2684 21.4398 39.7108 22.5163 37.0497C22.9346 36.0353 23.4597 34.7182 24.1003 33.5965C25.1153 31.772 26.3432 30.2056 27.5805 29.3514C29.6003 27.9634 31.8256 27.6606 31.8256 27.6606L34.2198 26.0766C34.2198 26.0766 34.6381 25.267 35.1901 24.3413C35.9639 23.0424 36.9501 21.5916 37.1654 19.4825C37.4951 16.3585 36.7025 14.3116 36.7471 12.4607C36.7917 10.6098 36.8093 9.24811 37.1836 8.91841C37.5579 8.5887 37.2904 8.71366 37.2904 8.71366L37.2898 8.71249Z" fill="#A88F33"/>
<path fill-rule="evenodd" clip-rule="evenodd" d="M37.2897 22.6853C37.2897 22.6853 38.3457 20.0864 38.8291 17.7814C38.9183 17.3185 39.0961 16.8562 39.1407 16.4825C39.363 14.3019 39.4252 13.4031 39.1407 12.2104C38.9183 11.3304 38.0641 10.5372 37.6189 9.9224C37.183 9.28117 36.9782 9.0424 37.0674 8.90746C37.1566 8.77253 37.5033 8.55194 37.8412 8.57834C38.2004 8.5888 38.5537 8.6722 38.8797 8.82348C39.2057 8.97476 39.4974 9.19076 39.7373 9.45834C40.4225 10.2503 40.9652 12.9384 40.9652 12.9384L41.536 16.4854L42.9869 20.9529L37.2909 22.6888L37.2897 22.6853Z" fill="#C99E3D"/>
<path fill-rule="evenodd" clip-rule="evenodd" d="M47.2127 19.9801C47.2127 19.9801 47.0167 20.0687 46.6612 19.9801C46.6764 20.1254 46.6512 20.272 46.5883 20.4039C46.5255 20.5358 46.4275 20.6477 46.3051 20.7275C45.9314 20.5761 42.4331 20.8789 42.4331 20.8789C42.4331 20.8789 40.8045 20.5937 40.2971 18.4401C39.9415 17.0069 40.564 15.0315 40.3592 13.7321C40.0477 11.8184 39.6118 11.4441 39.5672 10.8486C39.5227 10.2531 39.4781 10.1012 39.4781 9.72749C39.2821 9.68291 39.1665 9.62072 38.9712 9.62072C38.9266 9.44472 39.0152 9.29101 38.8198 8.97949C38.9266 9.02408 39.6564 9.11325 40.5106 9.92285C41.2146 10.5817 41.2146 10.8216 41.3208 10.9554C41.454 11.0886 42.5311 12.0114 42.994 12.9313C43.4568 13.8512 44.3556 16.7845 44.5604 17.265C44.6225 17.4609 44.7563 17.6569 45.0884 18.1016C45.6046 18.7428 46.3608 19.8029 47.215 19.9789L47.2127 19.9801Z" fill="#B58634"/>
<path fill-rule="evenodd" clip-rule="evenodd" d="M41.4463 11C41.9854 11.8709 42.4698 12.7746 42.8965 13.7057C43.4216 14.889 43.7331 15.8594 44.3919 16.6514C44.0358 15.6194 43.404 13.5901 43.0303 12.8691C42.612 12.1065 41.7578 11.2851 41.4463 11.0006V11Z" fill="#A88F33"/>
<path fill-rule="evenodd" clip-rule="evenodd" d="M35.3941 25.6314C35.3941 25.6314 34.4953 25.8538 32.8221 26.735C32.2701 27.0195 31.7456 27.2594 31.2381 27.4824C29.9199 28.0784 28.506 28.6293 27.3843 28.9332C27.4735 29.04 27.5175 29.084 27.5175 29.084C27.5175 29.084 27.5175 29.5205 27.758 29.7692C27.6249 29.903 25.8443 31.1133 26.37 35.1624C26.7255 35.0293 27.1438 34.8509 27.206 34.8509C27.3133 34.8691 27.3397 35.1624 27.4729 35.1624C27.6061 35.1624 28.0426 34.9864 28.5054 34.388C28.4878 34.6286 28.2209 37.0492 29.6536 38.6777C29.9205 38.3662 30.5969 37.3337 30.5969 37.3337L30.6145 37.0046C30.6145 37.0046 30.6767 35.8565 31.051 34.8063C31.4253 33.7562 32.1545 32.9818 32.1545 32.9818L35.9626 27.544L35.3929 25.6309L35.3941 25.6314Z" fill="#E6C367"/>
<path fill-rule="evenodd" clip-rule="evenodd" d="M31.8342 33.6161C31.6598 33.7393 31.4678 33.8353 31.2645 33.9007C31.2024 33.6783 31.1132 32.9127 31.6382 32.1653C32.2525 31.266 33.596 30.1003 33.9697 29.1733C34.2102 28.5767 34.1034 27.0819 36.2395 25.1681C38.3755 23.2544 39.2115 22.5962 39.2115 22.5962L42.6646 20.8608L46.9098 22.534L44.8007 30.8001L43.1633 34.6721L36.6513 33.4443L31.8336 33.6161H31.8342Z" fill="#DCBA5A"/>
<path fill-rule="evenodd" clip-rule="evenodd" d="M34.3201 31.3716L35.1303 30.3572V29.6362C35.1303 29.6362 36.029 29.3957 36.9988 28.4077C37.9685 27.4198 39.3126 25.5242 40.4965 25.6398C41.6804 25.7736 41.796 28.2118 41.8405 28.8976C41.8851 29.5834 42.0365 31.1398 42.2764 31.977C42.5434 32.8136 39.393 35.9816 39.393 35.9816L37.2534 37.6102L34.3201 31.3716Z" fill="#E9CE77"/>
<path fill-rule="evenodd" clip-rule="evenodd" d="M36.8269 39.8169C36.8269 39.8169 37.4857 38.7844 37.0029 38.562C37.2874 37.9214 37.8125 37.245 37.8125 37.245C37.8125 37.245 38.1862 36.3198 39.3965 35.1805C40.6068 34.0412 41.3548 33.2844 41.5507 32.5194C41.6715 32.0208 41.7373 31.5105 41.7467 30.9976C41.8775 31.1045 42.0175 31.1997 42.165 31.2821C42.3609 31.3713 43.2861 32.1363 43.1529 33.6763C43.0198 35.2163 42.4489 35.8569 42.4489 35.8569C42.4489 35.8569 41.8975 36.4084 41.5062 36.6935C41.0873 36.978 40.9365 37.3072 40.2331 37.3341C40.3054 37.2767 40.3867 37.2315 40.4736 37.2004C40.4736 37.2004 39.7438 37.1118 39.3519 37.4673C38.96 37.8228 38.127 38.9181 37.7087 39.2479C37.2904 39.5148 36.8287 39.8175 36.8287 39.8175L36.8269 39.8169Z" fill="#CDAE50"/>
<path fill-rule="evenodd" clip-rule="evenodd" d="M66.4183 22.507C65.3669 22.1238 64.2619 21.9077 63.1436 21.8664C61.2744 21.8042 58.5423 21.911 55.8636 21.9286C52.9801 21.9462 50.3636 20.9406 46.7327 20.7629C46.1367 20.4068 44.6207 18.8492 39.8887 22.1509C40.1732 22.1333 43.3242 21.4211 44.4183 22.7922C45.5218 24.1538 45.2103 26.4676 45.0596 27.0191C44.7744 28.2476 43.8487 30.0363 43.4756 31.2912C43.1024 32.5461 43.1904 33.2055 42.9235 34.0855C42.6566 34.9655 42.0693 35.4026 42.416 36.4169C42.8789 36.1324 43.12 36.1324 43.8933 34.397C44.6665 32.6616 44.5075 31.4244 45.7894 29.9559C47.0442 28.4787 49.1334 26.4582 49.9277 25.9508C50.7221 25.4433 57.0293 22.1685 63.6334 25.2925C65.2262 25.1236 66.4189 22.5064 66.4189 22.5064L66.4183 22.507Z" fill="#D2A83E"/>
<path fill-rule="evenodd" clip-rule="evenodd" d="M42.5491 21.2959C42.5426 21.229 42.5278 21.1632 42.5051 21.0999C42.4433 20.9698 42.3623 20.8497 42.2646 20.7438C42.2646 20.7438 40.6982 20.4593 39.9062 20.5479C38.5175 20.6992 37.2627 22.417 36.6754 23.2982C36.0882 24.1793 35.3583 25.5404 34.5663 26.2438C34.575 26.1753 34.5592 26.1059 34.5218 26.0479C34.5218 26.0479 34.5663 26.11 34.4778 26.1992C34.3892 26.2884 34.3886 26.3324 34.4332 26.3752L34.5669 26.5084C34.6109 26.5084 35.8394 25.9563 37.5126 24.3964C39.2925 22.7678 40.6542 21.9324 41.3664 21.6461C41.7462 21.4847 42.1432 21.3672 42.5497 21.2959H42.5491Z" fill="#C29637"/>
<path fill-rule="evenodd" clip-rule="evenodd" d="M72.9333 14.6045C72.9333 14.6045 72.6481 14.96 72.292 15.3519C71.5 16.1885 70.4675 17.1313 69.5863 18.1016C68.7503 19.0274 67.807 19.7484 66.7474 20.9587C65.6879 22.169 64.4594 23.5124 64.1485 23.9043C63.864 24.2962 63.6416 24.9369 63.6416 25.266C63.4903 25.1592 63.3125 25.0436 63.3125 25.0436C63.3873 25.1834 63.4768 25.3147 63.5794 25.4355C63.8018 25.7471 64.1485 26.1395 64.3268 26.3789C64.5457 26.6836 64.7027 27.0282 64.7891 27.3932C64.8959 27.4108 65.5811 27.5446 66.4359 26.1384C67.2907 24.7321 68.4112 23.1927 68.4112 23.1927L70.1912 20.5492L71.3129 18.3069L72.7209 15.7972L72.935 14.6045H72.9333Z" fill="#AC8132"/>
<path fill-rule="evenodd" clip-rule="evenodd" d="M74.7577 12.8071C74.7577 12.8071 73.6805 13.6871 73.2622 14.2151C72.844 14.7431 71.8542 16.1288 71.8542 16.1288L72.2104 16.0842L74.0173 14.4826L74.7213 13.2278L74.7571 12.8095L74.7577 12.8071Z" fill="#A88F33"/>
<path fill-rule="evenodd" clip-rule="evenodd" d="M74.428 83.5325C74.428 83.5325 74.4104 82.8027 74.8199 82.3668C75.2382 81.9303 76.2972 81.2897 77.3297 78.8867C78.3622 76.4837 78.4772 75.941 78.4772 75.941C78.4772 75.941 76.6263 77.525 75.4852 77.8987C75.7521 77.3467 75.9035 76.9554 76.0373 76.6703C75.8859 76.5371 75.2453 76.3857 75.1831 76.3147C75.5386 75.9586 75.7345 75.0863 76.4556 74.5078C77.3813 73.8038 79.0721 72.5941 80.3862 71.5158C81.7004 70.4375 84.284 67.9295 84.6137 67.1997C84.8097 67.4842 84.8537 67.662 84.8537 67.662C84.8537 67.662 83.5548 69.3534 82.8784 70.4299C82.2817 71.3557 82.3263 71.8807 82.3263 71.8807L83.5548 71.3527C83.5548 71.3527 83.9103 72.6698 82.2999 74.6727C83.0039 74.4057 83.2879 74.5659 83.688 74.343C83.0292 74.7618 82.1216 75.3315 81.2674 76.8973C80.4308 78.4637 79.2915 80.2882 77.3696 81.427C75.5005 82.6285 74.4233 83.5272 74.4233 83.5272L74.428 83.5325Z" fill="#A67A2E"/>
<path fill-rule="evenodd" clip-rule="evenodd" d="M69.6045 23.4331C69.6045 23.4331 68.8747 24.9544 68.7679 26.1383C68.7503 26.4234 68.6787 26.6457 68.6787 26.9748C68.6611 28.0338 68.7409 29.2177 68.5027 29.7691C68.4136 29.5468 68.369 29.3954 68.2798 29.3068C68.1466 29.6806 67.9061 30.8463 67.7101 31.2822C67.6216 30.9976 67.4256 30.0097 67.4438 28.844C67.462 27.6783 67.4878 27.4553 67.4878 27.2154C67.4438 27.5709 67.2033 28.052 67.1141 28.3365C66.9809 28.0966 66.8296 27.785 66.6512 27.5269C66.5444 27.7029 66.4113 27.9628 66.2957 28.0966C66.2775 27.9898 66.2335 27.7047 66.2065 27.3046C66.1889 26.8417 66.1619 26.2456 66.1889 26.1207C66.2329 25.8807 66.6072 24.9374 67.3992 24.0738C68.3426 23.0412 69.3129 21.0571 69.5974 20.4429C69.882 19.8287 71.0923 17.2749 71.0923 17.2749H72.018L70.674 20.3361C70.674 20.3361 69.8644 22.0093 69.4461 22.6241C69.0278 23.239 68.1466 25.0007 67.7547 25.6859C68.0393 25.3122 68.2798 25.1163 68.5649 24.7602C68.8407 24.5108 69.6057 23.4343 69.6057 23.4343L69.6045 23.4331Z" fill="#8C6228"/>
<path fill-rule="evenodd" clip-rule="evenodd" d="M74.7753 12.6909C74.6241 13.1563 74.3851 13.5885 74.0713 13.964C73.5193 14.6228 72.3354 15.5034 71.7575 16.2062C71.2295 16.8915 70.1735 18.7606 70.6534 20.9764C70.8294 20.4959 71.1609 19.5438 72.0421 18.4667C72.9232 17.3895 73.8666 16.1528 74.3301 15.1919C74.7923 14.2215 74.8545 13.4565 74.8545 13.4565L75.0305 13.2342L74.9238 12.7267L74.7724 12.6909H74.7753Z" fill="#CBA94C"/>
<path fill-rule="evenodd" clip-rule="evenodd" d="M92.7972 71.7222C92.7972 71.7222 92.4411 70.7525 92.3344 69.8713C92.2276 68.9901 92.5104 68.8153 92.183 67.8068C91.9871 67.1926 91.6315 67.2788 91.5424 67.1926C91.4532 67.1063 91.391 66.1782 91.4086 65.6708C91.4262 65.1633 91.391 64.5051 91.3018 64.2199C91.1686 64.1132 91.0795 64.024 90.8835 63.3657C90.6612 62.7069 90.5544 62.3778 90.4476 62.1824C90.3409 61.9871 90.0288 61.8087 90.0288 61.6128C90.0288 61.2209 90.3849 61.0167 90.3849 60.9088C90.3673 60.6864 90.1003 60.8648 90.0288 60.802C89.9402 60.6952 90.2517 60.0546 90.1361 59.9654C90.0915 59.9214 89.78 60.2951 89.6996 60.1884C89.6105 60.081 89.5037 59.0221 89.3435 58.3192C89.1928 57.634 89.032 57.1359 89.0144 56.9312C88.9968 56.7352 87.7859 53.2821 87.4926 52.4455C87.2562 51.7386 87.0572 51.0197 86.8965 50.2919C86.8074 49.8736 86.7452 49.0188 86.7006 49.108C86.656 49.1972 86.683 49.6331 86.6114 49.6155C86.5492 49.5973 86.3269 48.076 86.2559 47.8355C86.1937 47.595 85.8194 46.7795 85.7279 46.1893C85.6387 45.5927 85.4434 44.0351 85.3096 42.9761C85.1758 41.9172 85.1137 41.4813 85.1137 41.2161C85.1355 40.5676 85.0998 39.9183 85.0069 39.276C84.8309 38.1543 84.4789 36.7927 84.1703 36.0013C83.5742 34.5059 81.9897 30.679 81.7063 29.7269C81.7063 29.4863 82.0178 29.6201 82.0178 29.6201C82.0178 29.6201 82.7916 31.5602 83.3613 33.055C83.9133 34.5504 84.4384 35.8675 84.5722 36.0013C84.6789 36.1344 85.5155 37.6029 85.8892 40.0059C86.2629 42.4088 86.3961 44.6247 86.619 46.1019C86.7258 46.8059 86.815 47.5527 87.0373 48.3001C87.2773 49.1103 87.651 49.9469 88.1409 51.2282C88.5592 52.3053 88.8707 53.2041 89.0396 53.9785C89.2356 54.9664 89.2356 55.7139 89.3512 56.2037C89.4585 56.622 89.6181 57.458 89.9924 58.6677C90.3667 59.8774 90.9176 61.4356 91.2913 62.4054C92.0217 64.3455 92.3473 65.9653 92.4576 66.8288C92.5549 67.7188 92.8846 70.7982 92.7955 71.7234L92.7972 71.7222Z" fill="#A88F33"/>
<path fill-rule="evenodd" clip-rule="evenodd" d="M74.82 12.5841L74.7754 12.6909C74.7754 12.6909 74.9086 12.7355 74.8822 12.9138C74.8841 13.1578 74.8692 13.4017 74.8376 13.6436C74.7936 13.9551 74.7044 14.1951 74.6868 14.391C74.6868 14.8093 74.749 15.2898 74.1588 16.4825C73.9828 16.8116 73.8743 17.0961 73.7851 17.2921C73.5628 17.7726 73.5182 17.8441 73.3223 18.0665C73.6338 17.8905 74.7555 17.1865 75.3246 17.2921C74.9332 17.5144 74.3366 17.9509 73.9629 18.5206C74.0521 18.5382 74.4258 18.6097 75.0189 18.5206C76.0068 18.3692 77.1104 18.0131 78.0801 18.0841C79.1397 18.1463 78.7214 16.8116 78.7214 16.8116L77.4987 14.1241L75.1849 12.4961L74.82 12.5847V12.5841Z" fill="#BE9C44"/>
<path fill-rule="evenodd" clip-rule="evenodd" d="M80.8539 32.7153C80.8539 32.7153 79.8214 31.6827 79.4031 28.1393C78.9848 24.5794 79.074 19.3393 79.074 19.3393L78.2374 17.2924C78.2374 17.2924 78.0614 15.9307 77.6232 15.4239C77.1849 14.917 76.3243 14.0622 75.9324 13.6439C75.5405 13.2256 75.0958 12.656 74.8289 12.5668C74.962 12.3444 75.5587 11.0896 77.8455 11.072C80.1323 11.0544 80.8375 12.3268 81.0763 12.7897C81.315 13.2526 82.3933 15.2537 82.7934 19.0671C83.1672 22.8757 83.1853 23.1608 83.1232 24.4779C83.0786 25.2077 82.838 26.8985 82.4192 28.7048C82.0366 30.236 81.6184 31.945 80.8528 32.7188L80.8539 32.7153Z" fill="#A17C34"/>
<path fill-rule="evenodd" clip-rule="evenodd" d="M77.6161 35.7505C77.9602 35.7753 78.3039 35.6977 78.604 35.5276C78.9332 35.51 80.1258 35.6613 81.0422 34.4956C81.1044 34.762 81.2652 35.4836 80.8463 36.1242C81.0692 35.9013 81.3983 35.8127 81.4429 35.7505C81.4605 36.0796 81.772 37.094 80.455 39.5591C80.8105 39.1678 81.2288 39.1854 81.6025 39.1408C81.6207 39.6037 81.8694 41.1607 81.2112 41.9979C80.7753 42.5676 80.0631 42.3892 80.0631 42.3892C80.0735 42.2649 80.0735 42.1398 80.0631 42.0155C80.0455 41.775 79.9563 41.535 80.0191 41.3749C79.6749 41.2177 79.3615 41.0005 79.0933 40.7336C78.3189 40.0038 77.3134 38.7583 77.2424 37.8326C77.1532 36.8 78.079 36.5777 78.079 36.5777C78.0014 36.5083 77.9353 36.4271 77.883 36.3372C77.8384 36.1864 77.7938 35.9458 77.6161 35.7505Z" fill="#8C6228"/>
<path fill-rule="evenodd" clip-rule="evenodd" d="M70.7521 24.5542C70.7521 24.5542 70.7075 24.492 70.4675 24.7765C70.5121 24.492 70.5567 24.2244 70.5743 23.9663C70.6879 23.7273 70.8348 23.5057 71.0108 23.3081C70.877 23.5744 70.7878 23.815 70.7878 23.815C70.7878 23.815 71.1176 23.2007 71.598 22.827C71.9272 22.5601 72.3454 22.4357 72.5232 22.1864C72.7192 21.9194 72.6746 21.8748 72.7192 21.8303C72.7192 21.8303 73.1556 21.5457 73.8233 20.7086C73.9118 20.6018 74.0456 20.4862 74.1348 20.3794C74.2856 20.3172 74.6417 20.1571 75.06 19.943C75.4964 19.703 75.9857 19.3739 76.2884 19.239C76.8845 18.972 77.5169 18.999 77.8103 18.5801C78.0326 18.5179 78.2725 17.8503 78.2285 17.2812C78.5577 17.4144 80.2484 18.4646 80.8275 20.7608C81.2458 22.3894 80.4978 24.8991 80.1863 26.11C79.8747 27.3209 79.8307 28.2191 79.3943 28.7705C78.8422 29.5009 77.0628 30.5305 76.6264 31.0403C76.2526 31.4586 75.1315 32.5176 75.1755 33.2826C75.2201 33.8522 75.9229 34.1626 76.0749 34.2705C76.2268 34.3785 76.2257 34.5111 76.5108 34.4465C76.7959 34.382 76.9021 34.2506 77.0183 34.2506C77.1514 34.2682 77.1514 34.2952 77.2136 34.2952C77.2587 34.2938 77.3035 34.2877 77.3474 34.277C77.3474 34.277 77.3028 35.0872 75.4073 35.333C75.2735 35.3512 75.1403 35.3952 74.9708 35.4222C75.1937 35.3154 75.3269 35.3154 75.5674 34.9863C75.3005 34.9417 74.5349 34.8971 74.3389 34.8349C74.4011 34.7281 74.6059 34.443 74.7748 34.3098C74.9262 34.1767 74.7572 34.1338 74.6241 34.2031C74.3948 34.3591 74.1748 34.5283 73.9652 34.7099C73.7429 34.9059 73.5469 35.1728 73.1908 35.4139C73.0841 35.0578 73.1017 34.3814 73.5205 33.8921C73.4132 33.9097 73.2084 34.2213 73.0131 34.1591C72.9778 33.8344 72.9988 33.5062 73.0753 33.1887C73.182 32.788 73.7605 32.0852 73.7605 32.0852L76.5548 27.0921L77.1508 23.3098L70.7521 24.553V24.5542Z" fill="#92723A"/>
<path fill-rule="evenodd" clip-rule="evenodd" d="M70.6011 24.7677C70.6011 24.7677 70.4498 24.8745 70.7525 25.0792C70.7079 25.1414 70.6011 25.3638 70.4674 25.5151C70.3166 25.6911 70.1559 25.8002 70.0937 25.9516C69.9605 26.2631 69.8537 26.4767 69.8537 26.6104C69.8537 26.7442 69.8091 27.5984 69.4354 28.1498C69.3017 28.3458 69.1503 28.6749 69.0435 28.8973C68.8212 29.2886 68.6252 29.6013 68.5807 29.7773C68.4921 30.0888 68.4299 30.943 68.4299 30.943C68.4299 30.943 68.6258 30.7024 68.6968 30.6139C68.5895 30.8362 68.4739 31.0761 68.3049 31.2545C68.4117 31.1653 68.7232 30.943 69.2483 30.4801C69.9781 29.8664 71.1174 28.8339 72.5061 28.0161C72.0872 28.1674 71.7316 28.1675 71.4471 28.212C71.6695 27.9897 73.6718 25.6401 74.7219 25.4177C74.7856 25.3369 74.8174 25.2354 74.8111 25.1326L73.9117 25.044L72.0872 25.4353L71.8208 24.0273L70.6011 24.766V24.7677Z" fill="#B18E3E"/>
<path fill-rule="evenodd" clip-rule="evenodd" d="M73.5028 32.7775C73.5028 32.7775 73.2623 33.0174 73.0399 33.6141C72.8687 33.4353 72.722 33.2347 72.6034 33.0174C72.2743 32.4659 71.7674 31.7625 70.5835 32.1632C70.5659 31.7895 70.539 31.5936 70.5835 31.3266C70.7795 31.2826 71.3755 30.8022 71.9716 30.0987C72.3905 29.6183 72.7818 29.0662 73.0487 28.3634C73.2247 28.2296 73.5292 28.0073 73.9287 27.7491C74.4984 27.3578 75.1836 26.8234 75.2904 26.2273C75.0234 26.3341 74.4538 26.601 73.599 26.557C73.9287 26.4057 74.4356 26.2455 74.3734 25.5867C74.5072 25.4975 74.6139 25.4353 74.6139 25.4353C74.5136 25.4019 74.4081 25.3868 74.3024 25.3907C74.2842 25.3286 74.2578 25.24 74.1065 25.284C73.9551 25.328 73.9305 25.3286 73.9105 25.3907C73.8483 25.4089 73.6436 25.3907 73.4922 25.4981C73.3409 25.6055 72.9226 25.9604 72.7624 26.0226C72.8246 25.9158 72.9132 25.7562 72.9132 25.7562C72.9132 25.7562 72.4773 25.8002 72.1658 25.9322C71.5961 26.1282 70.9379 26.4843 70.2703 26.831C70.3325 26.7242 70.3594 26.655 70.4034 26.6351C70.4474 26.6151 70.5548 26.5911 70.5548 26.5729C70.5548 26.5547 70.5108 26.3969 70.5372 26.3329C70.7368 25.9101 70.9723 25.5052 71.2412 25.1226C71.5527 24.7038 71.6149 24.1077 71.6149 24.1077L72.9766 23.4225L76.8034 22.5425L79.2867 22.6938L78.9752 24.4116L77.5086 27.4106L76.2537 30.1427L74.8204 31.8165L73.5034 32.7775H73.5028Z" fill="#543E26"/>
<path fill-rule="evenodd" clip-rule="evenodd" d="M79.7058 25.3438C79.7058 25.3438 78.2104 27.1947 77.7921 27.4799C78.059 26.9102 79.7058 23.5193 80.3018 22.5759C80.1687 22.4691 79.9903 22.4691 80.4086 20.8159C80.0531 21.6519 79.9281 22.0884 79.6348 22.3107C79.3415 22.5331 79.3051 22.4621 79.1068 22.4621C79.1442 22.3944 79.1596 22.3166 79.1508 22.2398C79.1508 22.2398 77.8959 22.0884 77.0388 22.0884C76.1817 22.0884 74.485 22.5513 73.5411 22.925C72.7937 23.2365 72.3754 23.2365 72.1084 23.4319C71.8415 23.6542 71.6901 23.8947 71.5564 23.9569C71.4496 24.0191 70.9427 24.1793 70.8266 24.3482C70.7198 24.5242 70.542 24.7219 70.542 24.7665C70.542 24.8111 70.4975 24.8739 70.6312 24.8287C70.6752 24.8111 71.0049 24.6328 71.3786 24.4104C71.8855 24.1259 72.4998 23.7968 72.945 23.6008C74.2175 23.0934 74.6182 23.1825 75.1873 23.0758C75.7833 22.969 76.6381 22.7197 77.2072 22.7197C77.7768 22.7021 78.8539 22.7197 79.1033 22.7642C78.9965 22.8534 78.9073 22.9602 78.9519 23.3339C78.9519 23.4407 78.8627 23.5562 78.7759 23.8144C78.5096 24.5442 78.0021 25.7545 77.7199 26.3687C77.3286 27.2047 76.8839 27.9081 76.6639 28.344C76.4439 28.7799 75.9599 29.928 75.4806 30.5423C75.0013 31.1565 74.7508 31.5302 74.6006 31.664C74.4504 31.7977 73.3721 32.5891 73.4525 32.8743C73.6484 32.8121 74.8857 32.3463 75.7839 31.3349C76.6821 30.3234 76.861 29.7063 77.5639 29.1542C78.2667 28.6022 78.8187 27.677 79.1479 26.912C79.4236 26.1998 79.3614 25.9774 79.7081 25.3456L79.7058 25.3438Z" fill="#806031"/>
<path fill-rule="evenodd" clip-rule="evenodd" d="M47.4801 39.1588C47.4801 39.1588 47.2841 39.9684 46.8389 40.3691C46.403 40.761 45.6286 41.0989 45.54 41.7577C45.4332 42.416 46.3144 42.7457 46.3144 42.7457C46.3144 42.7457 45.8333 43.5377 45.8333 44.1337C45.8333 44.748 45.8157 44.8635 45.8779 45.4508C45.8073 45.4962 45.7473 45.5562 45.7019 45.6268C45.7019 45.6268 45.7459 46.1964 46.1824 46.552C46.6189 46.9075 46.992 47.1216 47.2143 47.0324C47.2483 47.105 47.2781 47.1794 47.3035 47.2554C47.3035 47.2554 47.6332 46.4188 47.8556 45.689C48.0779 44.9416 48.2738 45.0478 48.3624 44.0422C48.451 43.0367 49.4184 41.3101 49.4184 41.3101L50.0784 39.8346L49.0019 38.998L47.4801 39.1582V39.1588Z" fill="#B6903C"/>
<path fill-rule="evenodd" clip-rule="evenodd" d="M49.4823 40.6089C49.2603 40.8368 49.0554 41.0807 48.8692 41.3387C48.5847 41.7306 48.3624 42.0861 47.9441 42.2381C47.5258 42.39 47.2588 42.3888 47.2852 42.8077C47.3116 43.2266 47.7035 43.4038 47.9259 43.6173C48.1664 43.8397 48.3624 44.2134 48.2556 44.6322C48.3888 44.5701 48.6293 44.4985 48.8516 44.018C49.074 43.5375 50.6292 40.6095 50.6292 40.6095H49.4823V40.6089Z" fill="#685026"/>
<path fill-rule="evenodd" clip-rule="evenodd" d="M55.616 33.8544C55.616 33.8544 55.7492 33.4989 55.616 33.2408C55.4822 32.9738 54.6726 32.8847 54.2719 32.5819C53.8536 32.2704 53.3462 32.0539 52.9279 32.1906C52.9901 32.0393 53.2394 31.7096 53.0346 31.6386C52.8387 31.5764 52.1095 31.9055 51.9135 32.0569C51.7176 32.2082 51.2723 32.386 51.1837 32.4934C51.0951 32.6007 50.9432 32.8049 50.854 32.7157C50.7648 32.6535 50.7208 32.4934 50.5695 32.5819C50.4181 32.6705 49.6895 33.2672 49.5551 33.6145C49.4208 33.9618 49.1186 34.7362 48.2111 35.6168C47.3035 36.4974 46.9116 37.0676 47.1785 37.3967C47.4455 37.7258 47.5704 37.4859 47.615 37.7704C47.6493 38.0497 47.6342 38.3329 47.5704 38.607C47.4637 39.0699 47.2859 39.5058 47.5258 39.595C48.1401 39.7909 48.7367 39.419 48.8699 39.5328C49.1368 39.7727 48.7185 40.6363 49.3504 40.8053C49.9916 40.9813 50.6234 40.6539 50.6234 40.6539L52.9549 39.399L55.1977 38.2157L56.3452 35.9459L55.7298 34.0504L55.6125 33.8544H55.616Z" fill="#D4B968"/>
<path fill-rule="evenodd" clip-rule="evenodd" d="M53.4161 39.2743C53.4161 39.2743 53.0242 38.6783 53.5053 38.1526C53.9863 37.627 54.671 37.4052 54.9379 37.0761C54.8871 37.0134 54.819 36.9671 54.742 36.9429C54.9192 36.6259 55.1895 36.3709 55.5164 36.2125C55.3832 36.0793 55.2049 35.9726 55.0095 35.9726C54.573 35.9726 54.3055 36.2395 53.9054 36.2395C53.5141 36.2395 53.4695 36.0436 53.4695 36.0436C53.4695 36.0436 54.1283 35.9814 54.0655 35.6875C54.0034 35.3759 53.8895 35.3759 53.8895 35.3759C53.8895 35.3759 55.162 34.8479 55.3844 34.5663C55.6067 34.2847 55.5803 33.9521 55.6249 33.8189C55.7757 33.8189 56.6569 33.356 57.013 33.552C57.3691 33.7479 57.1197 34.2818 57.1197 34.2818C57.1197 34.2818 58.1974 33.4716 58.7466 32.6773C59.227 32.7219 59.4506 32.3481 59.8026 32.3481C60.239 32.3481 60.9243 32.9442 61.0574 34.2167C61.1466 34.9465 61.2798 35.3648 61.1466 36.6555C61.0844 37.3853 61.102 38.9434 61.3226 39.7167C61.4734 40.3309 61.8295 40.2687 61.8295 40.2687C61.7749 40.4559 61.6665 40.6229 61.518 40.7492C61.2774 40.9716 61.251 41.5594 61.2774 41.7817C61.3129 41.9443 61.3576 42.1047 61.4112 42.2622C61.4112 42.2622 61.1267 42.5913 61.0551 42.8143C60.9929 43.0366 60.6996 43.188 60.4854 43.188C60.2713 43.188 60.3787 43.1698 60.0941 43.188C59.8096 43.2062 59.7204 43.2502 59.5421 43.188C59.3637 43.1258 59.2306 43.0542 59.3021 42.484C59.3643 41.9143 57.1039 40.5885 57.1039 40.5885L53.4079 39.2714L53.4161 39.2743Z" fill="#CCA849"/>
<path fill-rule="evenodd" clip-rule="evenodd" d="M49.1709 44.899C49.1709 44.899 49.9805 45.9761 53.3092 45.9761C54.8932 45.9761 55.4453 45.8247 55.7732 45.7356C56.1294 45.6464 57.464 45.1219 58.8081 43.5373C60.0184 42.1047 59.7514 41.5174 59.7514 41.5174L59.0474 41.4106L56.7594 41.7222L49.9893 44.6056L49.168 44.899H49.1709Z" fill="#585136"/>
<path fill-rule="evenodd" clip-rule="evenodd" d="M51.6537 45.1658C51.6537 45.1658 48.7703 45.807 48.7703 43.9825C48.7703 42.2025 50.5502 40.3334 50.9955 40.0043C51.4584 39.6746 52.5619 39.3003 52.5619 39.3003H55.223L55.7299 40.6443L55.5075 43.5454L51.6537 45.1652V45.1658Z" fill="#252211"/>
<path fill-rule="evenodd" clip-rule="evenodd" d="M54.3147 39.8438C54.3147 39.8438 53.7632 39.3363 52.5083 40.0198C51.2534 40.7033 50.2385 42.1318 50.1763 43.4289C50.1141 44.5765 51.1197 45.4312 52.6861 45.4758C53.8518 45.5198 54.5552 45.3866 54.9113 45.2998C54.8221 45.193 54.3592 44.6146 54.3592 44.6146L54.3152 39.8444L54.3147 39.8438Z" fill="#C3B378"/>
<path fill-rule="evenodd" clip-rule="evenodd" d="M53.772 40.1278C53.772 40.1278 53.6388 40.021 53.244 40.2345C52.9149 40.4105 52.4344 40.8758 52.0607 41.2049C51.8202 41.4008 51.6688 41.4894 51.5327 41.6408C50.9806 42.2996 50.5178 43.3767 50.7853 43.9106C51.0528 44.4445 51.9334 45.0587 54.1762 44.6404L53.7655 40.1284L53.772 40.1278Z" fill="#E6D89C"/>
<path fill-rule="evenodd" clip-rule="evenodd" d="M53.0424 41.2321C53.0424 41.2321 52.6863 41.7842 52.6863 42.6654C52.6863 43.5641 53.1937 44.9968 55.0629 45.1036C56.4955 45.1927 57.4565 43.0391 58.4978 42.2025C59.2898 41.5618 59.7703 41.5437 59.7703 41.5437C59.7703 41.5437 58.9607 40.6637 56.7982 39.5238C54.6622 38.3757 52.268 38.2243 50.9685 39.9866C51.5827 39.9421 53.5674 39.4346 53.5674 39.4346L54.5378 39.7461L53.0424 41.2327V41.2321Z" fill="#252211"/>
<path fill-rule="evenodd" clip-rule="evenodd" d="M55.8367 42.3978C55.7745 42.2646 55.7299 42.0863 55.9881 42.0423C56.2462 41.9983 56.3618 42.0241 56.4509 42.2183C56.5401 42.4124 56.6269 42.5744 56.4949 42.6547C56.3618 42.7257 56.0145 42.6547 55.8361 42.3966L55.8367 42.3978ZM55.4184 41.1429C55.4184 41.1429 55.3292 41.2051 55.3738 41.0807C55.3914 40.9299 55.5076 40.6624 55.7921 40.7252C56.0766 40.788 56.015 41.0989 55.9681 41.1881C55.9212 41.2772 55.6836 41.428 55.5052 41.3641C55.4826 41.3583 55.4617 41.3473 55.4441 41.3319C55.4266 41.3165 55.4129 41.2972 55.4042 41.2755C55.3955 41.2539 55.3921 41.2305 55.3941 41.2072C55.3962 41.184 55.4037 41.1615 55.4161 41.1417L55.4184 41.1429Z" fill="#6F674D"/>
<path fill-rule="evenodd" clip-rule="evenodd" d="M31.3279 41.7121C31.3279 41.7121 32.0319 42.2401 32.8497 42.2195C33.6593 42.2014 34.7006 41.3653 35.1811 40.8309C35.4656 40.5194 35.7091 40.1903 35.9731 39.9321C36.196 39.7098 36.3468 39.603 36.4536 39.4516C36.6049 39.2756 36.7651 38.9448 36.8455 38.8374C36.6495 38.9888 36.365 39.2563 36.0711 39.434C35.7865 39.61 35.1723 39.9409 34.923 40.0301C34.683 40.1193 32.1909 41.4381 32.1909 41.4381L31.3279 41.7121Z" fill="#AC924C"/>
<path fill-rule="evenodd" clip-rule="evenodd" d="M32.4041 35.1362C32.4041 35.1362 32.7954 34.8693 33.5522 34.6997C34.282 34.5237 35.7504 34.3882 35.7504 34.3882L36.9607 34.9162L37.4412 36.7407L36.5612 38.6368L35.4401 39.3408L34.167 37.2939L32.407 35.1397L32.4041 35.1362Z" fill="#9F8E57"/>
<path fill-rule="evenodd" clip-rule="evenodd" d="M30.82 36.7647L30.4011 37.0774C30.4011 37.0774 30.5085 36.8815 30.5971 36.2854C30.6857 35.6893 31.1491 34.2385 31.8255 33.4019C32.502 32.5653 32.4844 32.6099 32.4844 32.6099C32.4221 32.5985 32.3582 32.6006 32.2968 32.6158C32.2354 32.6311 32.1779 32.6593 32.1283 32.6985C32.2174 32.5014 32.7871 31.7974 33.3567 31.4454C33.9264 31.0934 34.1487 30.9825 34.7448 31.2694C35.3409 31.5563 35.4922 31.7053 35.9287 31.6877C36.3652 31.6701 36.7383 31.2072 36.7383 31.2072C36.7383 31.2072 36.8275 31.4917 36.4983 32.1506C36.1692 32.8094 34.8698 34.1529 34.8698 34.1529L32.1641 36.0038L30.82 36.7665V36.7647Z" fill="#EAC970"/>
<path fill-rule="evenodd" clip-rule="evenodd" d="M32.8217 34.9137C32.8217 34.9137 34.78 35.1807 35.376 34.6292C35.3936 34.6914 35.4652 34.6914 35.4652 34.736C35.4604 34.7696 35.4448 34.8007 35.4206 34.8246C35.4855 34.8142 35.5509 34.8083 35.6166 34.807C35.6949 34.8303 35.7756 34.8453 35.8571 34.8516C35.9228 34.8501 35.9882 34.8441 36.053 34.8334C36.0469 34.8776 36.0318 34.9201 36.0088 34.9584C35.9859 34.9968 35.9554 35.03 35.9193 35.0563C36.0085 35.0563 36.0953 35.0739 36.0953 35.1449C36.0953 35.2159 36.1129 35.43 36.0061 35.4746C35.9177 35.4991 35.8235 35.4926 35.7392 35.4564C35.7462 35.6249 35.792 35.7895 35.8729 35.9375C36.0489 36.2666 36.4244 36.6415 36.9289 36.5335C36.9289 36.5335 37.1953 37.1742 36.0742 38.598C35.9234 38.794 35.7626 39.0609 35.5673 39.2832C35.4901 39.4515 35.4311 39.6275 35.3913 39.8083C35.3913 39.8083 37.2874 39.0785 37.8301 37.4141C38.3821 35.7409 38.4889 34.0948 38.3821 32.5553C38.3639 32.1189 38.2929 31.8079 38.1862 31.585C37.9192 31.0329 37.1712 31.1221 36.8691 31.4336C36.4326 31.8701 35.7028 32.9555 34.6885 33.7029C33.6559 34.4503 33.6119 34.5829 32.8193 34.9137H32.8217Z" fill="#D7BC6B"/>
<path fill-rule="evenodd" clip-rule="evenodd" d="M30.4725 37.3168C30.4725 37.3168 30.0988 37.5392 29.9029 38.3728C29.7069 39.227 30.0789 40.2684 30.2942 40.5975C30.5095 40.9266 30.9982 41.826 32.0119 41.8706C32.2629 41.8692 32.511 41.8178 32.7418 41.7192C33.0957 41.5569 33.4276 41.3505 33.7297 41.105C34.1662 40.7758 34.5217 40.4913 34.4771 40.4643C34.3703 40.4197 31.7896 38.2837 31.7896 38.2837L30.8193 37.2007L30.4719 37.318L30.4725 37.3168Z" fill="#585136"/>
<path fill-rule="evenodd" clip-rule="evenodd" d="M32.912 40.8584C32.912 40.8584 33.4371 40.8144 33.7486 40.6185C34.0601 40.4226 31.9241 38.3047 31.9241 38.3047L32.0754 40.5927L32.912 40.8584Z" fill="#453A25"/>
<path fill-rule="evenodd" clip-rule="evenodd" d="M30.6417 37.1562C30.6417 37.1562 30.3748 37.6636 30.3748 37.7974C30.3302 38.2333 30.464 39.6037 30.5707 40.0396C30.6775 40.5025 31.256 41.2053 32.004 41.2053C32.4662 41.2053 33.1075 40.9208 33.1075 40.8498C33.1075 40.7607 32.4486 40.6738 32.2709 40.3424C32.1641 40.1664 32.1195 39.7287 32.0949 39.2864C32.0773 39.0018 32.0773 38.6903 32.1841 38.5824C32.4246 38.3154 32.4686 37.5498 32.4686 37.5498L33.3228 35.9629H32.1993L30.8553 36.7995L30.6417 37.1562Z" fill="#84754B"/>
<path fill-rule="evenodd" clip-rule="evenodd" d="M30.3125 37.6458C30.3125 37.6458 31.1925 36.4801 31.9857 36.2126C32.7788 35.9451 33.1338 36.1058 33.1338 36.1058L32.6709 37.2897L32.0121 38.0195L32.0567 38.3932C32.0567 38.3932 31.9493 39.3812 32.6081 40.0664C33.267 40.7516 33.7562 40.7252 34.0414 40.7252C34.3265 40.7252 35.1449 40.4847 35.5632 39.4967C35.9369 38.5716 36.2484 37.3847 35.501 36.195C34.7706 35.0111 33.4805 34.9653 33.2312 34.9653C32.9818 34.9653 31.0241 35.0633 30.3125 37.6441V37.6458Z" fill="#252211"/>
<path fill-rule="evenodd" clip-rule="evenodd" d="M52.9086 41.6057C52.5795 41.4544 52.891 40.5292 53.2201 40.2441C53.5493 39.959 53.9675 39.6304 54.6979 39.5852C54.9643 39.5676 55.2224 39.7366 55.1784 39.915C55.1162 40.2441 54.6534 40.707 54.2351 41.0361C53.6566 41.4902 53.2823 41.7747 52.9086 41.6057Z" fill="#F7F7E7"/>
<path fill-rule="evenodd" clip-rule="evenodd" d="M35.109 36.5597C35.3495 36.5421 35.661 36.7357 35.7232 36.9962C35.7854 37.2807 35.5718 37.8504 35.109 37.8504C34.7353 37.8504 34.5393 37.3875 34.5393 37.2543C34.5435 37.1448 34.5741 37.0379 34.6285 36.9428C34.6461 36.9158 34.6907 36.6043 35.109 36.5597Z" fill="#F8F6DE"/>
<path fill-rule="evenodd" clip-rule="evenodd" d="M31.6383 36.7646C31.6383 36.7646 31.024 37.0492 30.7395 37.6446C30.5362 38.0844 30.4747 38.5764 30.5635 39.0526C30.6081 39.275 30.8304 39.8265 30.9818 40.0224C31.1332 40.2184 31.3379 40.3521 31.4893 40.3339C31.6406 40.3157 31.9516 39.9156 31.9516 39.6757C31.9516 39.4357 31.9697 38.4208 32.2631 37.8688C32.5212 37.3173 31.64 36.7652 31.64 36.7652L31.6383 36.7646Z" fill="#D4C38B"/>
<path fill-rule="evenodd" clip-rule="evenodd" d="M31.7276 36.7201C31.6208 36.7823 31.4431 36.8715 31.4871 36.9871C31.5317 37.0938 31.9054 37.1631 32.0391 37.4236C32.1905 37.6905 32.1905 37.975 32.1459 38.1088C32.2622 38.0536 32.3677 37.9781 32.4574 37.8858C32.6534 37.6635 32.8933 37.3614 33.0981 37.3614C33.2318 37.3614 33.365 37.4236 33.49 37.4236C33.6859 37.4236 33.8813 37.3614 33.9083 37.1566C33.9523 36.8897 33.5346 36.6492 33.294 36.6937C33.3386 36.5177 33.4008 36.2578 33.2048 36.0795C33.0089 35.9012 32.3952 36.2133 32.2615 36.3024C32.1277 36.3916 31.7276 36.7207 31.7276 36.7207V36.7201Z" fill="#E2D59D"/>
<path fill-rule="evenodd" clip-rule="evenodd" d="M45.8691 55.4183L47.1862 55.0293L47.5599 55.2962C47.5599 55.2962 47.8263 55.8659 48.2451 55.9369C48.1114 56.2214 47.7641 56.4649 47.7823 56.6667C47.8005 56.8685 47.9782 57.0228 47.9782 57.0228C47.9782 57.0228 46.7943 58.9805 49.1263 60.9535C48.5743 61.1758 47.8714 61.4815 47.4977 61.6575C47.7641 61.7196 48.3337 61.8335 48.5743 62.0494C48.8148 62.2652 48.8148 62.3339 49.0371 62.4676C49.2595 62.6014 49.3927 62.7792 49.3487 62.8589C49.1973 62.7698 48.6898 62.5034 48.6013 62.7522C48.5127 63.0009 46.403 62.9035 46.403 62.9035L42.8431 63.5888C42.8431 63.5888 42.9763 63.2327 42.6026 62.9035C42.1667 62.5122 41.6328 62.9211 41.0632 62.4852C40.3158 61.9156 40.2888 61.2568 40.0488 61.008C40.2888 60.8567 40.7786 60.6343 41.9443 60.48C41.8998 60.3908 41.7484 60.1239 41.8376 59.884C41.9443 59.5724 42.389 59.3765 42.2559 59.004C42.4518 58.9594 42.5404 58.9594 43.0303 58.3451C43.4931 57.7309 43.7777 57.5977 44.1338 57.5531C44.4899 57.5086 44.7034 57.5531 45.3623 56.9389C45.8246 56.503 45.6738 56.1293 45.6738 56.1293C45.6738 56.1293 45.9759 56.0313 45.8697 55.4171L45.8691 55.4183Z" fill="#CBAC5A"/>
<path fill-rule="evenodd" clip-rule="evenodd" d="M41.9801 55.616C41.9977 55.5268 42.0693 55.4822 42.5497 55.5268C43.0302 55.5714 46.0738 55.2423 46.9016 55.1977C47.7382 55.1355 50.6839 55.1795 52.1171 55.4822C53.5503 55.7849 55.0006 56.141 55.7034 56.3188C56.4074 56.5148 56.6292 56.5852 56.6022 56.6743C56.5846 56.7635 56.4262 56.8503 56.3352 56.8257C56.2466 56.8081 53.9146 56.0959 53.1942 55.9457C52.4738 55.7955 49.981 55.3936 48.6182 55.4177C47.3457 55.4359 46.8383 55.4001 45.7617 55.5245C44.6846 55.6582 42.9047 55.836 42.3708 55.765C41.8428 55.7028 41.9519 55.7028 41.9789 55.6136L41.9801 55.616Z" fill="#D6BC6F"/>
<path fill-rule="evenodd" clip-rule="evenodd" d="M49.1439 62.5917C49.1439 62.5917 50.9684 63.5796 51.6272 64.7899C52.1077 65.6887 51.3427 66.134 51.3427 66.134C51.3427 66.134 52.3752 66.134 52.2415 66.7036C52.1793 67.0592 50.4615 68.0201 49.3134 68.5276C48.1477 69.0351 48.1923 69.0087 47.6227 69.0972C47.0706 69.1864 45.5576 68.9212 45.2461 69.3642C44.9345 69.8071 45.0701 70.2635 45.1569 70.3345C45.2461 70.3967 45.9671 70.4859 45.9671 70.4859C45.9671 70.4859 45.8157 70.9042 44.3209 70.9488C42.8261 70.9933 42.4518 71.0995 42.3626 71.2603C42.2734 71.4111 42.6471 71.3225 43.3329 71.4363C44.0182 71.5431 44.9791 71.6123 44.9791 71.6123C44.9791 71.6123 44.6676 71.8792 43.858 72.0928C42.9323 72.3327 41.4814 72.5556 41.0455 72.8226C41.2679 72.9739 41.5976 73.1963 41.7495 73.2139C41.3758 73.3031 40.8502 73.499 40.7616 73.57C40.8948 73.6592 41.0731 73.7659 41.0731 73.7659C41.0731 73.7659 40.3251 74.6647 39.8892 74.8876C39.4533 75.1106 36.9436 76.2757 36.08 76.0533C33.9263 75.4837 33.6594 73.1253 33.1343 72.9475C32.3423 72.6806 31.9686 73.2139 31.2652 72.8402C31.5767 72.6178 31.7463 72.4847 32.0754 72.3333C31.7193 72.1573 29.8772 70.9892 29.8772 70.9892C29.6845 70.5694 29.4707 70.1595 29.2365 69.7613C28.8804 69.1471 28.3565 68.3281 27.9635 67.6071C27.1093 66.0231 27.0647 65.2933 26.2903 64.3945C26.424 64.2185 26.8863 64.2432 26.8863 64.2432L33.3749 66.3792L44.88 66.7124L47.872 62.4409L49.1445 62.5923L49.1439 62.5917Z" fill="#DFC677"/>
<path fill-rule="evenodd" clip-rule="evenodd" d="M32.1013 69.1057C32.1707 69.1829 32.2517 69.249 32.3413 69.3016C32.5642 69.453 32.8933 69.6313 33.1157 69.8977C33.2048 69.7645 33.4272 69.524 33.8197 69.8977C34.2121 70.2714 34.6997 70.005 35.003 70.0936C35.3145 70.201 35.3321 70.245 35.3321 70.245C35.3321 70.245 35.5081 70.0936 35.9017 69.9335C36.1423 69.8443 36.4268 69.7821 36.7383 69.6935C37.0229 69.6313 37.3344 69.5422 37.5485 69.5422C37.7445 69.6753 38.4473 70.4222 41.2686 69.3198C43.9297 68.2873 44.5433 68.1717 44.9886 68.3313C45.0332 68.2245 45.0778 68.0198 45.763 68.0467C45.763 67.7622 45.1934 66.7919 45.1934 66.7919L42.0518 65.7153H40.3334L35.1807 66.6587L32.3254 68.2879L32.1031 69.1092L32.1013 69.1057Z" fill="#C4A859"/>
<path fill-rule="evenodd" clip-rule="evenodd" d="M30.3835 67.2994C30.3835 67.2994 30.4457 67.7799 31.1579 68.2874C31.8619 68.7942 32.0831 69.097 32.0831 69.097C32.0831 69.097 32.2169 68.921 32.3236 68.7414C32.4304 68.5455 32.5196 68.3231 32.6974 68.261C33.0535 68.1096 33.8631 68.3941 34.0414 68.3495C34.1928 68.3055 34.1482 67.994 34.3083 67.994C34.682 67.9758 34.922 68.234 35.0558 68.234C35.1895 68.234 35.518 68.2164 35.5626 68.1454C35.6072 68.0744 35.6248 67.3352 36.1323 66.9791C36.6843 66.5878 37.3608 66.7567 37.5403 66.8459C37.5403 66.9791 37.5579 67.3088 37.914 67.3264C38.2701 67.344 38.3053 67.2818 38.618 67.3886C38.9307 67.4954 39.3032 67.371 39.4722 67.8955C39.6235 67.8515 39.9797 67.8069 39.8905 67.2994C40.0665 67.1662 40.2202 67.0771 40.5945 66.552C40.6837 66.4188 40.8344 66.2675 40.9506 66.0715C41.2621 66.0715 41.6358 66.0093 42.1339 66.4452C41.9825 66.552 41.8934 66.6212 41.8494 66.7298C41.9796 66.8587 42.0986 66.9987 42.2049 67.148C42.3386 67.324 42.4278 67.5399 42.5968 67.5845C42.9705 67.6913 43.5847 67.5399 44.2699 67.5845C44.9288 67.6291 45.4802 67.8691 45.7208 68.0204C45.8099 67.9764 45.8099 67.9582 46.0323 68.0028C46.2546 68.0474 46.4236 68.065 46.1836 67.7805C46.3168 67.8427 46.4682 67.9764 46.6019 67.8427C46.7357 67.7089 46.8419 67.5135 47.2156 67.469C47.5893 67.4244 47.7231 67.4866 47.8744 67.0953C48.0704 66.6148 47.3939 66.6148 47.3939 66.6148C47.3939 66.6148 47.7055 66.3297 48.0528 65.9559C48.4711 65.5646 48.9515 65.0572 49.0671 64.4341C49.2631 63.286 48.1419 63.1353 48.1419 63.1353L42.7041 64.8084L36.056 64.4787L30.3871 67.3L30.3835 67.2994Z" fill="#927D49"/>
<path fill-rule="evenodd" clip-rule="evenodd" d="M25.4978 51.5913C25.4978 51.5913 25.3218 51.8137 25.2132 52.3387C25.1047 52.8638 25.1511 52.8016 25.0619 53.1753C24.9727 53.549 23.8774 57.2691 24.2881 58.524C24.6987 59.7788 25.4098 60.2417 25.8545 61.2561C25.9436 61.4784 26.0305 61.6122 26.0768 61.8081C26.2282 62.4664 26.095 62.9738 26.2728 63.6327C26.335 63.855 26.4957 64.1131 26.7356 64.3801C27.2636 64.9315 28.1243 65.4566 28.4956 65.8303C29.0201 66.3824 29.7681 67.5041 30.7203 67.6103C31.2278 67.6724 31.9488 67.4589 32.5448 67.1034C33.0728 66.7737 33.399 66.3114 33.9528 66.0474C34.3441 65.8514 34.7624 65.7804 35.1361 65.6913C35.9105 65.5399 36.6139 65.5153 37.0322 65.6021C37.6729 65.7359 39.1859 66.1987 40.0242 66.1987C40.6793 66.1882 41.3307 66.0985 41.9643 65.9318C43.2368 65.5581 44.7762 64.9169 45.7912 64.6323C46.3872 64.4563 46.8677 64.41 47.3576 64.3032C48.1942 64.1073 48.897 63.8403 49.2977 63.3329C49.0307 63.0214 48.7016 62.5409 46.9211 62.5585C44.9012 62.6031 42.5692 63.7242 41.4211 63.9025C40.273 64.0809 39.7749 64.2316 38.493 63.7688C37.2364 63.3012 37.1947 62.992 37.1947 62.992C37.1947 62.992 35.8753 62.0692 35.3233 59.7167C34.7712 57.3641 35.3233 55.6499 36.7565 54.0207C37.1302 53.6024 37.041 53.2287 37.041 53.2287C37.041 53.2287 37.9844 51.9562 37.7263 50.7647C37.4417 49.5808 35.6172 49.8214 35.6172 49.8214L25.4984 51.5913H25.4978Z" fill="#6E6342"/>
<path fill-rule="evenodd" clip-rule="evenodd" d="M27.0196 55.5522C26.9412 55.6998 26.9042 55.8659 26.9128 56.0327C26.9304 56.2727 27.002 56.5842 27.7224 57.2876C28.3367 57.9013 28.2029 58.5865 28.2029 58.5865C28.2029 58.5865 28.5121 58.6487 29.351 58.2562C30.0099 57.9447 30.231 58.4967 30.231 58.4967C30.4228 58.3962 30.6307 58.3298 30.8453 58.3008C31.0397 58.2829 31.2279 58.2228 31.3967 58.1248C31.3967 58.1248 32.1711 58.9168 32.8476 59.2905C33.4618 59.6202 33.8179 59.8425 34.1206 59.6202C34.4052 59.4242 34.4052 59.0236 34.387 58.8458C34.3164 58.6817 34.227 58.5264 34.1206 58.3829C33.9247 58.0984 33.6132 57.7687 33.5926 57.5029C33.548 56.8893 34.0555 56.1589 33.9481 55.9811C33.8408 55.8033 33.4413 55.7588 32.4533 56.1149C31.4302 56.4528 27.0155 55.554 27.0155 55.554L27.0196 55.5522Z" fill="#39331F"/>
<path fill-rule="evenodd" clip-rule="evenodd" d="M29.3511 59.5301C29.3511 59.5301 28.8442 59.0496 29.0219 56.7176C29.2371 56.7145 29.452 56.7353 29.6626 56.7798C29.6626 56.7798 29.9389 58.5867 29.3511 59.5301Z" fill="#292311"/>
<path fill-rule="evenodd" clip-rule="evenodd" d="M25.7382 49.8113C25.8089 49.759 25.8746 49.7 25.9342 49.6353C25.7582 49.9644 24.9456 51.2815 25.6045 53.3554C26.2633 55.4198 27.9183 56.9593 29.9563 57.0308C31.9944 57.1024 33.0657 56.1051 34.2906 54.6102C34.7711 54.0142 35.3232 53.2662 35.8125 52.7593C36.5423 51.9667 37.1119 51.7444 37.1119 50.9794C37.1119 49.413 35.5097 48.7096 33.1513 48.0067C30.7929 47.3039 28.6657 47.3907 27.5622 47.8718C26.4856 48.3963 26.0227 48.9483 25.7376 49.8119L25.7382 49.8113Z" fill="#252211"/>
<path fill-rule="evenodd" clip-rule="evenodd" d="M33.3116 60.2333L33.4876 60.1441C33.4876 60.1441 33.5316 59.4401 33.8167 59.4589C34.1012 59.5035 34.235 59.8777 34.208 60.0109C34.1904 60.1441 34.1194 60.367 33.8343 60.34C33.4606 60.3488 33.3098 60.2333 33.3098 60.2333H33.3116Z" fill="#3F3824"/>
<path fill-rule="evenodd" clip-rule="evenodd" d="M32.5195 57.2428C32.5195 57.2428 32.6955 57.1806 32.9108 57.3942C33.0868 57.3942 33.8542 57.305 34.0947 57.4563C34.3353 57.6077 34.4062 57.7409 34.4062 57.7409C34.4062 57.7409 33.5075 57.9368 33.0176 57.7409C32.5195 57.5719 32.5195 57.2428 32.5195 57.2428Z" fill="#2D2815"/>
<path fill-rule="evenodd" clip-rule="evenodd" d="M36.4801 57.3759C36.4801 57.3313 35.9996 57.0022 35.4922 56.8949C35.403 56.8773 35.3848 56.9394 35.3162 56.9394C35.2716 56.9218 35.254 56.7881 35.254 56.7881L34.9654 56.94C34.9654 56.94 34.9208 57.0022 35.0721 57.116C35.2053 57.2228 35.4282 57.312 35.4904 57.4897C35.5526 57.6675 35.5526 57.7297 35.5796 57.7567C35.5972 57.7743 35.9087 57.7567 36.0601 57.6675C36.2114 57.5783 36.4966 57.4328 36.4784 57.3742L36.4801 57.3759Z" fill="#82764F"/>
<path fill-rule="evenodd" clip-rule="evenodd" d="M31.9856 59.1831C31.9856 59.1831 32.0742 58.5694 32.6708 58.5424C33.2845 58.4978 33.4006 59.0939 33.4006 59.0939L33.0445 59.45C33.0445 59.4412 32.7776 59.0675 31.9885 59.1831H31.9856Z" fill="#2D2816"/>
<path fill-rule="evenodd" clip-rule="evenodd" d="M35.8571 56.5394C35.8571 56.5394 35.5274 56.8955 34.7982 57.0022C34.736 56.9131 34.6022 56.7353 34.7982 56.4508C34.9941 56.1662 35.2165 56.0771 35.4388 56.1657C35.5369 56.1816 35.6284 56.2252 35.7025 56.2914C35.7767 56.3576 35.8303 56.4437 35.8571 56.5394Z" fill="#574F35"/>
<path fill-rule="evenodd" clip-rule="evenodd" d="M37.2006 56.9761C37.2188 56.8869 37.1566 56.8693 37.2006 56.8247C37.2446 56.7801 37.4857 56.6915 37.5303 56.7355C37.5479 56.7537 37.5303 56.8247 37.5303 56.9115C37.5303 56.9984 37.5303 57.0875 37.4857 57.1515C37.4235 57.2407 37.2457 57.2852 37.1566 57.2588C37.0674 57.2324 37.0498 57.1075 37.0498 57.0828C37.0938 57.0652 37.2006 57.0207 37.2006 56.9761ZM38.72 56.0151C38.72 55.9705 38.8714 55.8813 38.9606 55.8813C39.0937 55.8813 39.0937 55.9881 39.1119 56.0151C39.1559 56.0327 39.1559 55.9969 39.2005 56.0773C39.2451 56.1577 39.3079 56.2996 39.2627 56.3888C39.2175 56.478 39.0404 56.5396 38.9964 56.522C38.9342 56.4774 38.7382 56.0773 38.72 56.0151Z" fill="#82764F"/>
<path fill-rule="evenodd" clip-rule="evenodd" d="M35.6611 57.1808C35.6611 57.1808 35.8571 57.2248 36.124 57.4477C36.0348 57.5099 35.9011 57.5809 35.9011 57.5809C35.9011 57.5809 35.8835 57.3761 35.6611 57.1802V57.1808Z" fill="#6E6342"/>
<path fill-rule="evenodd" clip-rule="evenodd" d="M35.2253 55.2223C35.1807 55.1783 35.3585 55.0715 35.4652 55.0891C35.572 55.1067 35.6166 55.1783 35.7322 55.1959C35.8478 55.2135 35.8659 55.1513 35.9082 55.1067C35.9504 55.0622 36.1041 55.0891 36.1305 55.1067C36.147 55.1263 36.1619 55.1471 36.1751 55.1689C36.177 55.1351 36.1858 55.102 36.201 55.0717C36.2163 55.0414 36.2376 55.0146 36.2637 54.9929C36.2978 54.9678 36.3372 54.9508 36.3789 54.9431C36.4205 54.9354 36.4634 54.9372 36.5042 54.9483C36.5218 55.0105 36.611 55.2329 36.5934 55.2775C36.5758 55.322 36.3089 55.3848 36.2637 55.3396C36.3083 55.447 36.5042 55.6694 36.5306 55.7134C36.557 55.7574 36.3347 55.8647 36.2461 55.8471C36.1217 55.8383 35.3561 55.393 35.223 55.2241L35.2253 55.2223ZM36.391 53.7451C36.3745 53.7003 36.343 53.6625 36.3018 53.6383C36.2396 53.6207 36.0349 53.6383 36.0349 53.7451C36.0349 53.8519 36.2109 54.4491 36.4086 54.76C36.6315 55.0715 36.7823 55.3291 36.9337 55.4007C36.9812 55.4223 37.0352 55.4251 37.0847 55.4086C37.1342 55.392 37.1756 55.3573 37.2006 55.3115C37.2182 55.2669 37.2628 54.9378 37.2452 54.1634C37.2276 53.389 37.2006 52.6416 37.156 52.597C37.1114 52.5524 36.9337 52.553 36.8715 52.6416C36.8093 52.7302 36.4086 53.6119 36.3904 53.7451H36.391Z" fill="#585136"/>
<path fill-rule="evenodd" clip-rule="evenodd" d="M35.5989 58.3018C35.5989 58.3018 35.2874 58.1058 34.9847 58.2396C34.7001 58.3734 34.7177 58.8984 34.7177 58.8984C34.7818 58.9235 34.8509 58.9325 34.9192 58.9248C34.9875 58.917 35.0529 58.8926 35.1096 58.8538C35.3056 58.7207 35.5543 58.4983 35.5989 58.3024V58.3018Z" fill="#574F35"/>
<path fill-rule="evenodd" clip-rule="evenodd" d="M36.1863 59.0051C36.1687 58.8291 36.0103 58.8291 36.0103 58.7382C36.0212 58.6947 36.0463 58.6562 36.0818 58.6287C36.1172 58.6013 36.1608 58.5865 36.2056 58.5868C36.2948 58.5868 36.3816 58.6936 36.4907 58.7628C36.5975 58.825 36.7577 58.9388 36.7753 59.0744C36.7929 59.2099 36.5993 59.5812 36.384 59.5812C36.1687 59.5812 36.2326 59.1805 36.188 59.0028L36.1863 59.0051ZM37.904 58.7646C37.904 58.7646 37.5479 58.8714 37.5743 58.7646C37.6007 58.6578 37.6817 58.6314 37.7972 58.6314C37.856 58.57 37.9349 58.5318 38.0196 58.5241C38.068 58.5217 38.1155 58.5376 38.1528 58.5687C38.1528 58.5687 38.3933 58.4619 38.4643 58.5241C38.5353 58.5863 38.4825 58.5863 38.5265 58.6578C38.5825 58.7373 38.6193 58.8287 38.6338 58.9248C38.6338 58.9957 38.3669 59.1471 38.1528 59.1207C37.904 59.0673 37.948 58.8092 37.904 58.7646ZM39.9773 58.3639C39.9773 58.3639 40.0841 58.4261 39.9955 58.4977C39.9333 58.5599 39.6218 58.6737 39.3543 58.6936C39.0873 58.6936 38.8474 58.7376 38.8474 58.649C38.8474 58.5604 39.0697 58.3821 39.2029 58.3375C39.2296 58.3041 39.2635 58.2771 39.3021 58.2586C39.3407 58.2401 39.383 58.2306 39.4258 58.2307C39.5326 58.2307 39.9503 58.1861 40.0665 58.1685C40.1732 58.1504 40.2624 58.2125 40.1996 58.3017C40.1732 58.3639 39.9773 58.3639 39.9773 58.3639ZM40.5915 55.616C40.5915 55.616 40.4578 55.9005 40.307 55.9005C40.1556 55.8829 40.1556 55.8383 40.1556 55.7937C40.1556 55.7315 40.307 55.5714 40.2888 55.5268C40.2448 55.5268 40.1375 55.5268 40.1556 55.42C40.1556 55.3308 40.307 55.2241 40.4402 55.244C40.5408 55.1613 40.6661 55.1145 40.7963 55.1108C40.9476 55.1108 41.0808 55.1548 41.0808 55.244C41.0808 55.3332 40.9048 55.5285 40.8403 55.5737C40.7693 55.6447 40.6801 55.6911 40.5915 55.6177V55.616ZM38.5623 60.8754C38.5623 60.8754 38.3863 60.8936 38.3863 60.9822C38.3863 61.0268 38.4303 61.0268 38.493 61.0004C38.5292 60.9983 38.565 60.9922 38.5998 60.9822C38.6174 61.0004 38.6174 61.089 38.7512 61.089C38.861 61.0741 38.9668 61.0379 39.0627 60.9822C39.1695 60.9382 39.2586 60.893 39.2586 60.8062C39.214 60.6548 39.1249 60.5833 38.9917 60.5833C38.9234 60.5789 38.8554 60.5944 38.7957 60.6279C38.7957 60.6279 38.7512 60.5387 38.5998 60.6279C38.4484 60.717 38.466 60.717 38.5106 60.7616C38.5904 60.8326 38.564 60.8789 38.564 60.8789L38.5623 60.8754ZM37.5567 61.8012C37.5567 61.7566 37.7791 61.6674 37.8412 61.6944C37.9034 61.712 38.0812 62.0499 38.0812 62.0857C38.0812 62.1303 37.8588 62.2371 37.7697 62.2371C37.6805 62.2371 37.5297 62.0857 37.5297 62.0611C37.5297 62.0435 37.6365 62.0171 37.6365 61.9989C37.6629 61.9549 37.5567 61.8475 37.5567 61.8029V61.8012ZM36.8527 60.5017C36.8973 60.4841 36.8973 60.4395 36.9595 60.3949C36.979 60.382 37.0011 60.3737 37.0243 60.3706C37.0475 60.3676 37.0711 60.3699 37.0932 60.3773C37.1089 60.3494 37.1307 60.3252 37.1568 60.3066C37.183 60.2881 37.213 60.2755 37.2446 60.27C37.3514 60.2524 37.4405 60.27 37.4206 60.3146C37.4206 60.4483 37.5098 60.5369 37.5098 60.6437C37.5098 60.7505 37.4476 60.8842 37.2252 60.9734C37.0029 61.0356 36.7002 61.0356 36.6556 61.018C36.611 61.0004 36.5664 60.822 36.611 60.7329C36.6556 60.6437 36.78 60.5463 36.8515 60.5017H36.8527Z" fill="#82764F"/>
<path fill-rule="evenodd" clip-rule="evenodd" d="M37.1361 60.562C37.1361 60.562 36.9847 60.6512 36.9847 60.6958C36.9713 60.7388 36.9653 60.7839 36.9671 60.8289C36.9671 60.8553 37.163 60.8113 37.1894 60.7844C37.1982 60.7668 37.1361 60.6084 37.1361 60.562Z" fill="#6E6342"/>
<path fill-rule="evenodd" clip-rule="evenodd" d="M35.8125 60.1437C35.9011 60.1619 36.0525 60.1437 36.168 60.1883C36.2572 60.2329 36.3194 60.322 36.2302 60.4288C36.141 60.5356 36.0542 60.6958 35.8565 60.6688C35.6342 60.6512 35.4206 60.5356 35.4206 60.4464C35.4169 60.39 35.4244 60.3334 35.4427 60.2799C35.461 60.2265 35.4898 60.1772 35.5274 60.1349C35.6166 60.0639 35.6606 60.1085 35.8119 60.1437H35.8125Z" fill="#585136"/>
<path fill-rule="evenodd" clip-rule="evenodd" d="M35.7057 60.2329C35.7057 60.2329 35.4211 60.4553 35.3496 60.5626C35.2604 60.6694 34.8245 61.2209 34.6913 61.3364C34.7356 61.2584 34.786 61.184 34.8421 61.1141C34.6661 61.2266 34.5342 61.3963 34.4684 61.5946C34.3616 61.9243 35.065 62.102 35.5273 62.2358C35.9896 62.3696 36.1686 62.4118 36.1686 62.4118C35.9983 62.156 35.8522 61.885 35.7321 61.6022C35.5561 61.1839 35.4651 61.1393 35.5807 60.9434C35.6699 60.7474 35.8036 60.6142 35.8036 60.4629C35.7503 60.3221 35.7057 60.2329 35.7057 60.2329Z" fill="#574F35"/>
<path fill-rule="evenodd" clip-rule="evenodd" d="M25.56 60.9367C25.6248 60.9486 25.6912 60.9486 25.756 60.9367C25.8891 60.9185 27.2778 60.4087 28.7286 60.5002C29.8147 60.5659 30.8912 60.7428 31.9412 61.0282C33.7657 61.5087 36.0349 62.4609 37.5034 63.0041C37.8947 63.1549 38.2778 63.4224 38.5594 63.5286C39.6811 63.9651 39.7251 63.9651 40.3839 64.0807C41.1583 64.1874 41.9503 63.9293 42.7781 63.7516C43.7924 63.5286 45.5278 63.4218 47.0496 63.1995C47.5417 63.1313 48.0271 63.0212 48.5004 62.8704C48.5004 62.8704 47.2901 64.0807 44.3885 64.5166C43.2156 64.6947 42.0238 64.7097 40.8468 64.5611C39.921 64.472 39.3074 64.3382 38.8445 64.205C38.3194 64.0537 37.2423 63.653 35.9164 63.325C34.9907 63.0845 33.9581 62.9067 32.7748 62.6844C29.8556 62.1499 26.6876 61.5363 25.5588 60.9402L25.56 60.9367Z" fill="#252211"/>
<path fill-rule="evenodd" clip-rule="evenodd" d="M22.2846 55.4365C21.5806 56.0326 20.8338 56.6022 20.1045 57.1537L17.9063 58.8427C17.1589 59.3942 16.4291 59.9638 15.6811 60.5159C14.9331 61.0679 14.1862 61.5924 13.3931 62.0999C14.0971 61.5038 14.8439 60.9518 15.5913 60.4091C16.3387 59.8664 17.1137 59.3343 17.8347 58.784L20.033 57.0927C20.7892 56.5412 21.519 55.9716 22.2846 55.4377V55.4365ZM18.3956 61.6663C18.3956 61.6663 19.1876 61.0075 20.1755 60.0823C21.4034 58.9348 22.9076 57.4658 23.3881 57.1995L18.395 61.6669L18.3956 61.6663Z" fill="#CFB66C"/>
<path fill-rule="evenodd" clip-rule="evenodd" d="M18.3955 61.6658C18.7874 61.2745 19.2057 60.892 19.624 60.5177L20.2646 59.9663C20.4606 59.7903 20.6835 59.5926 20.8789 59.3966C21.2702 59.0053 21.6533 58.5864 22.0446 58.1863C22.2385 57.9851 22.4436 57.7949 22.6588 57.6167C22.7664 57.5214 22.8859 57.4406 23.0143 57.3761C23.1217 57.3139 23.2373 57.2001 23.388 57.1802C23.2995 57.3139 23.1927 57.3761 23.1035 57.4917C22.9967 57.5809 22.9076 57.6876 22.819 57.7762C22.623 57.9722 22.4007 58.1499 22.2047 58.3283C21.7864 58.6844 21.3505 59.0323 20.9323 59.4048C20.514 59.7774 20.1227 60.1792 19.7038 60.5529C19.2503 60.936 18.832 61.3097 18.3955 61.6676V61.6658ZM23.7177 58.1059C23.7177 58.1059 20.8167 60.9454 20.22 61.4077L23.7177 58.1059Z" fill="#CFB66C"/>
<path fill-rule="evenodd" clip-rule="evenodd" d="M23.7177 58.106C23.4567 58.4081 23.1769 58.6934 22.8799 58.9601L21.9999 59.7967C21.7154 60.0813 21.4479 60.3664 21.1457 60.6509C20.8342 60.9178 20.5497 61.1789 20.22 61.4253L21.0742 60.5887C21.3593 60.3042 21.6708 60.0643 21.9735 59.7791L22.8277 58.9425C23.121 58.6492 23.4062 58.3641 23.7177 58.106ZM23.8508 59.6454C23.5834 60.3917 23.2683 61.1201 22.9075 61.826C22.1601 63.3214 21.039 65.19 20.5491 66.1427L23.8508 59.6454Z" fill="#CFB66C"/>
<path fill-rule="evenodd" clip-rule="evenodd" d="M23.8508 59.646C23.8508 59.9751 23.7616 60.2602 23.6549 60.5448C23.5508 60.8295 23.4321 61.1088 23.2994 61.3814C23.1656 61.6483 23.0142 61.9334 22.8629 62.1915C22.7115 62.4497 22.5338 62.716 22.4 62.9835L21.5012 64.5675C21.1897 65.0955 20.887 65.6265 20.5579 66.1339C20.7802 65.5643 21.0829 65.0304 21.368 64.5054C21.6796 63.9774 21.9641 63.4494 22.248 62.9032C22.3867 62.631 22.5114 62.352 22.6218 62.0672C22.7549 61.782 22.8881 61.5151 22.9955 61.257C23.1286 60.9725 23.2354 60.7049 23.3692 60.4474C23.5199 60.1711 23.6449 59.9041 23.8496 59.646H23.8508Z" fill="#CFB66C"/>
<path fill-rule="evenodd" clip-rule="evenodd" d="M27.0196 66.9434C27.0196 66.9434 26.1396 68.1091 26.2276 69.5863C26.4676 68.8125 26.7703 67.6286 27.0196 66.9434ZM27.8562 68.112C27.8562 68.112 27.5447 71.28 27.2866 72.8376C27.6515 71.0371 27.7224 71.1885 27.8562 68.112ZM33.6853 73.0247C33.6853 73.0247 32.3683 76.8967 32.3413 77.9727C32.6264 76.8662 33.1779 74.6058 33.6853 73.0218V73.0247Z" fill="#DEC270"/>
<path fill-rule="evenodd" clip-rule="evenodd" d="M36.7646 66.7041C36.7646 66.7041 38.9007 70.2282 40.5029 73.236C40.0693 71.7224 39.072 68.9463 36.7646 66.7041Z" fill="#CBAF59"/>
<path fill-rule="evenodd" clip-rule="evenodd" d="M42.5051 71.8921C43.6779 73.9652 44.7355 76.1013 45.6731 78.2909C45.4954 76.7778 45.0143 74.1883 42.5051 71.8921Z" fill="#E3C677"/>
<path fill-rule="evenodd" clip-rule="evenodd" d="M59.3788 77.0879C59.7343 76.8656 60.4377 75.6547 61.052 75.3526C61.6656 75.0411 62.1285 74.9789 62.6806 74.3646C63.232 73.7234 63.3846 73.3321 64.5937 72.8252C66.2851 72.0948 65.1217 71.1515 65.1217 71.1515C65.308 70.9685 65.5072 70.7991 65.7177 70.6446C66.1542 70.3155 66.6611 69.9148 66.6171 69.2114C66.5549 68.028 66.3326 66.3103 65.3622 65.3135C66.3056 65.1176 68.1119 64.9844 69.2342 64.6999C70.5331 64.3702 71.1297 63.9073 71.1297 63.9073C71.1297 63.9073 70.3823 62.6348 71.5926 61.3535C72.8029 60.0723 73.7909 59.3067 74.5207 57.8734C73.6841 57.7667 72.4087 57.322 69.1539 58.5587C69.3296 58.6413 69.4991 58.7364 69.6613 58.8432C69.6613 58.8432 67.659 59.3952 66.9292 60.0095C65.6561 61.086 65.496 61.9672 64.1167 62.626C62.7375 63.2848 61.3488 63.1065 60.2013 63.6404C59.0538 64.1742 58.8843 64.6283 58.4654 64.8243C58.5545 64.931 58.4478 65.1088 58.6167 65.2602C58.51 65.4115 57.8869 66.4259 57.2551 66.4259C57.3173 66.6664 57.8511 66.8442 57.8511 66.8442C57.8511 66.8442 57.4598 67.1293 56.4631 67.2003C56.97 67.7283 57.451 68.3038 58.7769 69.1404C58.6701 69.3627 58.2248 69.6924 58.4032 70.1107C58.5991 70.529 59.1072 71.0987 61.1353 71.5615C60.1028 71.6055 58.8931 71.8461 57.2633 71.6237C55.6347 71.4278 55.3678 71.3122 54.3622 71.5615C54.469 71.6683 54.7535 71.6683 55.0029 71.9528C54.7359 71.9704 53.0628 71.7569 52.4931 72.5049C51.8971 73.2787 51.6389 74.5518 51.6835 75.406C51.372 75.5573 51.0693 75.8243 51.2206 76.3763C51.372 76.9284 52.164 77.1061 52.6715 77.4528C53.1783 77.8266 53.2229 77.9597 53.704 77.8711C54.2109 77.7644 54.9583 77.2575 55.3948 77.2575C55.8312 77.2575 56.1422 77.5866 56.1422 77.5866C56.1422 77.5866 57.3261 77.017 57.4416 77.1237C57.5484 77.2305 57.4592 77.9157 57.5748 78.0225C57.6921 78.1029 59.0256 77.3109 59.3817 77.0879H59.3788Z" fill="#ECD592"/>
<path fill-rule="evenodd" clip-rule="evenodd" d="M85.2504 41.4728C79.6882 27.1089 65.9379 24.4478 65.9379 24.4478H26.7081L26.8595 39.0786H34.6721V71.7495H26.7075V86.354H64.852C74.0451 86.354 81.4142 77.1158 81.4142 77.1158C93.215 60.367 85.2498 41.4728 85.2498 41.4728H85.2504ZM65.0567 67.2727C65.0567 67.2727 62.0647 71.5894 58.8093 71.5894H52.2973L52.143 39.1144H60.5001C60.5001 39.1144 64.3721 39.924 67.0772 47.5865C67.0772 47.5865 70.6635 58.5571 65.0567 67.2727Z" fill="white" fill-opacity="0.8"/>
</g>
<defs>
<clipPath id="clip0_745_162">
<rect width="110" height="110" fill="white"/>
</clipPath>
</defs>
</svg>
