<svg width="110" height="110" viewBox="0 0 110 110" fill="none" xmlns="http://www.w3.org/2000/svg">
<mask id="mask0_716_320" style="mask-type:luminance" maskUnits="userSpaceOnUse" x="15" y="35" width="80" height="41">
<path d="M95 35H15V75.09H95V35Z" fill="white"/>
</mask>
<g mask="url(#mask0_716_320)">
<path d="M75.5574 35C71.0981 35 66.2152 37.4304 61.0647 42.2242C58.6343 44.4762 56.4939 46.9289 54.9331 48.8687C54.9331 48.8687 57.4303 51.745 60.1728 54.8443C61.6667 52.9714 63.7848 50.4295 66.2597 48.1329C70.8305 43.8519 73.8183 42.9823 75.5351 42.9823C81.9565 42.9823 87.1739 48.3782 87.1739 55.045C87.1739 61.6449 81.9565 67.0408 75.5351 67.1077C75.223 67.1077 74.8662 67.0631 74.4203 66.9739C76.2932 67.8435 78.3222 68.4678 80.2174 68.4678C91.99 68.4678 94.3088 60.3294 94.4426 59.7497C94.777 58.2558 94.9777 56.695 94.9777 55.0896C94.9554 44.008 86.2598 35 75.5574 35Z" fill="url(#paint0_linear_716_320)"/>
<path d="M34.4203 75.0899C38.8796 75.0899 43.7625 72.6595 48.913 67.8657C51.3434 65.6137 53.4838 63.161 55.0446 61.2212C55.0446 61.2212 52.5474 58.3449 49.8049 55.2456C48.311 57.1185 46.1929 59.6604 43.718 61.957C39.1472 66.1934 36.1371 67.1076 34.4426 67.1076C28.0212 67.1076 22.8038 61.7117 22.8038 55.0449C22.8038 48.445 28.0212 43.0491 34.4426 42.9822C34.7547 42.9822 35.1115 43.0268 35.5574 43.116C33.6845 42.2464 31.6555 41.6221 29.7603 41.6221C17.9877 41.5998 15.6689 49.7382 15.5351 50.3402C15.2007 51.8341 15 53.3949 15 55.0003C15 66.0819 23.6957 75.0899 34.4203 75.0899Z" fill="url(#paint1_linear_716_320)"/>
<path fill-rule="evenodd" clip-rule="evenodd" d="M43.3835 48.3113C42.0903 47.0627 35.8027 41.9567 29.7827 41.7783C19.0357 41.5107 15.8919 49.3147 15.6021 50.318C17.6756 41.5776 25.3456 35.0446 34.4426 35C41.8674 35 49.3813 42.2911 54.9332 48.8687L54.9555 48.8464C54.9555 48.8464 57.4527 51.7227 60.1951 54.822C60.1951 54.822 63.3167 58.501 66.6165 61.7341C67.9097 62.9827 74.1751 68.0219 80.1951 68.2002C91.2319 68.5124 94.2866 60.2625 94.4426 59.6382C92.4136 68.4455 84.7213 75.0008 75.5798 75.0454C68.155 75.0454 60.6411 67.7543 55.0669 61.1767C55.0669 61.199 55.0446 61.199 55.0446 61.2213C55.0446 61.2213 52.5474 58.345 49.805 55.2457C49.8272 55.2457 46.7057 51.5444 43.3835 48.3113Z" fill="#29ABE2"/>
</g>
<defs>
<linearGradient id="paint0_linear_716_320" x1="65.1193" y1="38.1764" x2="92.6072" y2="65.8902" gradientUnits="userSpaceOnUse">
<stop offset="0.21" stop-color="#F15A24"/>
<stop offset="0.6841" stop-color="#FBB03B"/>
</linearGradient>
<linearGradient id="paint1_linear_716_320" x1="44.8653" y1="71.9179" x2="17.3774" y2="44.2042" gradientUnits="userSpaceOnUse">
<stop offset="0.21" stop-color="#ED1E79"/>
<stop offset="0.8929" stop-color="#522785"/>
</linearGradient>
</defs>
</svg>
