<svg width="110" height="110" viewBox="0 0 110 110" fill="none" xmlns="http://www.w3.org/2000/svg">
<g clip-path="url(#clip0_716_331)">
<path d="M27.9946 71.954C28.4774 71.4702 29.1412 71.188 29.8453 71.188H93.6924C94.8591 71.188 95.4424 72.599 94.6177 73.4254L82.0052 86.064C81.5224 86.5478 80.8586 86.83 80.1545 86.83H16.3074C15.1407 86.83 14.5574 85.419 15.3821 84.5925L27.9946 71.954Z" fill="url(#paint0_linear_716_331)"/>
<path d="M27.9946 24.766C28.4975 24.2822 29.1613 24 29.8453 24H93.6924C94.8591 24 95.4424 25.411 94.6177 26.2374L82.0052 38.876C81.5224 39.3598 80.8586 39.642 80.1545 39.642H16.3074C15.1407 39.642 14.5574 38.231 15.3821 37.4045L27.9946 24.766Z" fill="url(#paint1_linear_716_331)"/>
<path d="M82.0052 48.2088C81.5224 47.7251 80.8586 47.4429 80.1545 47.4429H16.3074C15.1407 47.4429 14.5574 48.8539 15.3821 49.6803L27.9946 62.3189C28.4774 62.8027 29.1412 63.0849 29.8453 63.0849H93.6924C94.8591 63.0849 95.4424 61.6739 94.6177 60.8474L82.0052 48.2088Z" fill="url(#paint2_linear_716_331)"/>
</g>
<defs>
<linearGradient id="paint0_linear_716_331" x1="87.5931" y1="16.45" x2="43.2624" y2="101.186" gradientUnits="userSpaceOnUse">
<stop stop-color="#00FFA3"/>
<stop offset="1" stop-color="#DC1FFF"/>
</linearGradient>
<linearGradient id="paint1_linear_716_331" x1="68.272" y1="6.34201" x2="23.9413" y2="91.0782" gradientUnits="userSpaceOnUse">
<stop stop-color="#00FFA3"/>
<stop offset="1" stop-color="#DC1FFF"/>
</linearGradient>
<linearGradient id="paint2_linear_716_331" x1="77.8711" y1="11.3639" x2="33.5404" y2="96.1001" gradientUnits="userSpaceOnUse">
<stop stop-color="#00FFA3"/>
<stop offset="1" stop-color="#DC1FFF"/>
</linearGradient>
<clipPath id="clip0_716_331">
<rect width="80" height="62.83" fill="white" transform="translate(15 24)"/>
</clipPath>
</defs>
</svg>
