<svg width="110" height="110" viewBox="0 0 110 110" fill="none" xmlns="http://www.w3.org/2000/svg">
<path d="M92.0058 39.1007C88.2555 35.6383 83.0676 30.3509 78.8423 26.6009L78.5922 26.4259C78.1762 26.0919 77.7072 25.8299 77.2046 25.6509C67.0163 23.7509 19.6002 14.8886 18.6751 15.0011C18.4159 15.0374 18.1682 15.1313 17.9501 15.2761L17.7126 15.4636C17.4201 15.7606 17.198 16.1194 17.0625 16.5135L17 16.676V17.5635V17.701C22.3379 32.5633 43.4145 81.2502 47.5649 92.675C47.8149 93.45 48.2899 94.925 49.1775 95H49.3775C49.8525 95 51.8777 92.325 51.8777 92.325C51.8777 92.325 88.0805 48.4256 91.7432 43.7507C92.2174 43.1748 92.6359 42.5554 92.9933 41.9007C93.0846 41.3885 93.0416 40.8613 92.8685 40.3706C92.6954 39.8799 92.3982 39.4424 92.0058 39.1007ZM61.1659 44.2132L76.6171 31.4008L85.6803 39.7507L61.1659 44.2132ZM55.1654 43.3757L28.5634 21.576L71.6042 29.5134L55.1654 43.3757ZM57.5656 49.0881L84.7927 44.7007L53.6653 82.2002L57.5656 49.0881ZM24.9506 23.7509L52.9403 47.5006L48.89 82.2252L24.9506 23.7509Z" fill="#FF060A"/>
</svg>
