<svg width="110" height="110" viewBox="0 0 110 110" fill="none" xmlns="http://www.w3.org/2000/svg">
<path d="M100.757 35.1259C96.0693 30.7979 89.5845 24.1886 84.3028 19.5011L83.9903 19.2824C83.4703 18.8649 82.884 18.5374 82.2558 18.3137C69.5204 15.9387 10.2502 4.8607 9.09391 5.00133C8.7699 5.0467 8.46019 5.16417 8.18759 5.34507L7.89069 5.57944C7.52511 5.95069 7.24744 6.39919 7.07813 6.89193L7 7.09505V8.20441V8.37628C13.6724 26.9542 40.0182 87.8127 45.2061 102.094C45.5186 103.063 46.1124 104.906 47.2218 105H47.4719C48.0657 105 50.5971 101.656 50.5971 101.656C50.5971 101.656 95.8506 46.782 100.429 40.9384C101.022 40.2185 101.545 39.4443 101.992 38.6259C102.106 37.9856 102.052 37.3266 101.836 36.7133C101.619 36.0999 101.248 35.553 100.757 35.1259ZM62.2074 41.5165L81.5214 25.5011L92.8503 35.9384L62.2074 41.5165ZM54.7068 40.4696L21.4542 13.22L75.2552 23.1417L54.7068 40.4696ZM57.707 47.6101L91.7409 42.1258L52.8316 89.0002L57.707 47.6101ZM16.9383 15.9387L51.9253 45.6258L46.8624 89.0315L16.9383 15.9387Z" fill="#FF060A"/>
</svg>
