<svg width="110" height="110" viewBox="0 0 110 110" fill="none" xmlns="http://www.w3.org/2000/svg">
<g clip-path="url(#clip0_716_338)">
<path d="M55 110C85.4793 110 110 85.4793 110 55C110 24.5207 85.4793 0 55 0C24.5207 0 0 24.5207 0 55C0 85.4793 24.5207 110 55 110Z" fill="#2775CA"/>
<path d="M70.1249 63.708C70.1249 55.6874 65.3124 52.9374 55.6874 51.7917C48.8124 50.8749 47.4374 49.0417 47.4374 45.833C47.4374 42.6243 49.7292 40.5624 54.3124 40.5624C58.4374 40.5624 60.7292 41.9374 61.8749 45.3749C62.1042 46.0624 62.7918 46.5205 63.4793 46.5205H67.1455C68.0624 46.5205 68.7499 45.833 68.7499 44.9167V44.6874C67.833 39.6455 63.708 35.7499 58.4374 35.2917V29.7917C58.4374 28.8749 57.7499 28.1874 56.6043 27.958H53.1667C52.2499 27.958 51.5624 28.6455 51.333 29.7917V35.0624C44.458 35.9792 40.1042 40.5624 40.1042 46.2917C40.1042 53.8542 44.6874 56.833 54.3124 57.9792C60.7292 59.1249 62.7918 60.4999 62.7918 64.1667C62.7918 67.8336 59.583 70.3542 55.2292 70.3542C49.2705 70.3542 47.208 67.833 46.5205 64.3955C46.2917 63.4792 45.6042 63.0205 44.9167 63.0205H41.0205C40.1042 63.0205 39.4167 63.708 39.4167 64.6249V64.8542C40.333 70.583 43.9999 74.708 51.5624 75.8542V81.3542C51.5624 82.2705 52.2499 82.958 53.3955 83.1874H56.833C57.7499 83.1874 58.4374 82.4999 58.6668 81.3542V75.8542C65.5418 74.708 70.1249 69.8955 70.1249 63.708Z" fill="white"/>
<path d="M43.3126 87.7708C25.4376 81.3545 16.2707 61.417 22.9169 43.7708C26.3544 34.1458 33.9169 26.8126 43.3126 23.3751C44.2294 22.917 44.6876 22.2295 44.6876 21.0833V17.8751C44.6876 16.9583 44.2294 16.2708 43.3126 16.042C43.0832 16.042 42.6251 16.042 42.3957 16.2708C20.6251 23.1458 8.70822 46.292 15.5832 68.0626C19.7082 80.8958 29.5626 90.7501 42.3957 94.8751C43.3126 95.3333 44.2294 94.8751 44.4582 93.9583C44.6876 93.7295 44.6876 93.5001 44.6876 93.042V89.8333C44.6876 89.1458 44.0001 88.2295 43.3126 87.7708ZM67.6044 16.2708C66.6876 15.8126 65.7707 16.2708 65.5419 17.1876C65.3126 17.417 65.3126 17.6458 65.3126 18.1045V21.3126C65.3126 22.2295 66.0001 23.1458 66.6876 23.6045C84.5626 30.0208 93.7294 49.9583 87.0832 67.6045C83.6457 77.2295 76.0832 84.5626 66.6876 88.0001C65.7707 88.4583 65.3126 89.1458 65.3126 90.292V93.5001C65.3126 94.417 65.7707 95.1045 66.6876 95.3333C66.9169 95.3333 67.3751 95.3333 67.6044 95.1045C89.3751 88.2295 101.292 65.0833 94.4169 43.3126C90.2919 30.2501 80.2082 20.3958 67.6044 16.2708Z" fill="white"/>
</g>
<defs>
<clipPath id="clip0_716_338">
<rect width="110" height="110" fill="white"/>
</clipPath>
</defs>
</svg>
