<svg width="110" height="110" viewBox="0 0 110 110" fill="none" xmlns="http://www.w3.org/2000/svg">
<g clip-path="url(#clip0_744_25)">
<path d="M83.2813 22H94.8438L70.7813 45.7351C62.0673 54.326 47.9392 54.326 39.2188 45.7351L15.147 22H26.7188L45.0001 40.0301C47.6637 42.6454 51.2533 44.1115 54.9931 44.1115C58.7329 44.1115 62.3225 42.6454 64.986 40.0301L83.2813 22Z" fill="#23292F"/>
<path d="M26.5703 87.9999H15L39.2188 64.1185C47.9328 55.5276 62.0609 55.5276 70.7812 64.1185L95 87.9999H83.4375L65 69.8234C62.3364 67.2082 58.7468 65.7421 55.007 65.7421C51.2672 65.7421 47.6776 67.2082 45.0141 69.8234L26.5703 87.9999Z" fill="#23292F"/>
</g>
<defs>
<clipPath id="clip0_744_25">
<rect width="80" height="66" fill="white" transform="translate(15 22)"/>
</clipPath>
</defs>
</svg>
