<svg width="760" height="760" viewBox="0 0 760 760" fill="none" xmlns="http://www.w3.org/2000/svg">
<path fill-rule="evenodd" clip-rule="evenodd" d="M759.442 380.275C759.442 589.873 589.539 759.786 379.953 759.786C170.364 759.786 0.460449 589.873 0.460449 380.275C0.460449 170.677 170.364 0.764648 379.953 0.764648C589.539 0.764648 759.442 170.677 759.442 380.275ZM471.122 239.273C523.913 257.402 562.527 284.546 554.951 335.063C549.449 372.056 528.866 389.948 501.52 396.212C539.038 415.671 551.826 452.598 539.943 497.247C517.386 561.503 463.762 566.913 392.44 553.482L375.122 622.555L333.315 612.162L350.395 544.016C339.558 541.334 328.48 538.463 317.068 535.402L299.918 603.882L258.158 593.489L275.452 524.273L191.243 503.108L212.016 455.414C212.016 455.414 242.84 463.553 242.412 462.96C254.252 465.878 259.515 458.191 261.588 453.089L308.518 265.612C309.04 256.76 305.967 245.609 289.031 241.386C289.673 240.934 258.659 233.863 258.659 233.863L269.784 189.373L354.111 210.183L371.264 141.75L413.047 152.143L396.252 219.223C407.496 221.762 418.788 224.348 429.769 227.077L446.445 160.424L488.252 170.817L471.122 239.273ZM371.089 353.428C399.567 360.979 461.536 377.409 472.339 334.329C483.358 290.254 423.153 276.943 393.675 270.426C390.336 269.687 387.386 269.035 384.983 268.438L364.165 351.628C366.148 352.118 368.478 352.736 371.089 353.428ZM338.823 487.369C372.932 496.355 447.532 516.005 459.402 468.536C471.553 420 399.223 403.835 363.932 395.946C359.993 395.066 356.506 394.287 353.659 393.579L330.694 485.266C333.026 485.842 335.767 486.565 338.823 487.369Z" fill="#F7931A"/>
</svg>
