<svg width="550" height="550" viewBox="0 0 550 550" fill="none" xmlns="http://www.w3.org/2000/svg">
<circle cx="275" cy="275" r="275" fill="white"/>
<g clip-path="url(#clip0_586_13)">
<path d="M140.6 356.9C143 354.5 146.3 353.1 149.8 353.1H467.2C473 353.1 475.9 360.1 471.8 364.2L409.1 426.9C406.7 429.3 403.4 430.7 399.9 430.7H82.5C76.7 430.7 73.8 423.7 77.9 419.6L140.6 356.9Z" fill="url(#paint0_linear_586_13)"/>
<path d="M140.6 122.8C143.1 120.4 146.4 119 149.8 119H467.2C473 119 475.9 126 471.8 130.1L409.1 192.8C406.7 195.2 403.4 196.6 399.9 196.6H82.5C76.7 196.6 73.8 189.6 77.9 185.5L140.6 122.8Z" fill="url(#paint1_linear_586_13)"/>
<path d="M409.1 239.1C406.7 236.7 403.4 235.3 399.9 235.3H82.5C76.7 235.3 73.8 242.3 77.9 246.4L140.6 309.1C143 311.5 146.3 312.9 149.8 312.9H467.2C473 312.9 475.9 305.9 471.8 301.8L409.1 239.1Z" fill="url(#paint2_linear_586_13)"/>
</g>
<defs>
<linearGradient id="paint0_linear_586_13" x1="436.879" y1="81.5448" x2="217.213" y2="502.294" gradientUnits="userSpaceOnUse">
<stop stop-color="#00FFA3"/>
<stop offset="1" stop-color="#DC1FFF"/>
</linearGradient>
<linearGradient id="paint1_linear_586_13" x1="340.829" y1="31.3986" x2="121.163" y2="452.147" gradientUnits="userSpaceOnUse">
<stop stop-color="#00FFA3"/>
<stop offset="1" stop-color="#DC1FFF"/>
</linearGradient>
<linearGradient id="paint2_linear_586_13" x1="388.548" y1="56.3118" x2="168.882" y2="477.061" gradientUnits="userSpaceOnUse">
<stop stop-color="#00FFA3"/>
<stop offset="1" stop-color="#DC1FFF"/>
</linearGradient>
<clipPath id="clip0_586_13">
<rect width="397.7" height="311.7" fill="white" transform="translate(76 119)"/>
</clipPath>
</defs>
</svg>
