<svg width="369" height="554" viewBox="0 0 369 554" fill="none" xmlns="http://www.w3.org/2000/svg">
<path d="M142.114 142.011L142.111 239.57C177.222 242.113 250.487 241.793 250.487 191.902C250.487 142.011 188.836 142.011 142.114 142.011Z" stroke="white" stroke-width="20"/>
<path d="M226.334 91.4051C283.832 97.7321 328.918 117.32 333.918 175.669C337.311 218.207 321.222 243.517 294.617 257.78C337.569 269.73 363.695 297.827 358.298 360.15C351.724 438.27 299.295 458.56 224.333 462.84L224.452 543.49L180.305 543.553L180.186 462.903C168.914 462.72 156.444 463.403 143.927 462.957L144.043 543.607L99.9778 543.67L99.8603 463.02L11.5742 461.073L19.0142 402.133C19.0142 402.133 39.9994 402.523 51.7401 402.523C64.0155 402.45 67.6588 392.75 68.5662 386.38L68.3466 257.093L68.6932 165.079C67.3377 155.488 61.482 143.98 43.4351 143.631C44.4179 142.648 11.1116 143.677 11.1116 143.677L11 89.6421L101.471 89.5124L101.356 10.5145L146.935 10.4491L147.051 89.4471C158.735 89.0865 170.213 89.3418 181.987 89.3971L181.871 10.3991L226.218 10.3354L226.334 91.4051Z" stroke="white" stroke-width="20"/>
<path d="M141.5 398.227C170.245 399.44 272.168 406.467 271.733 350.967C272.168 293.867 169.871 301.547 141.5 301.253V398.227Z" stroke="white" stroke-width="20"/>
</svg>
