<svg fill="none" viewBox="-3.2 -3.2 38.40 38.40" version="1.1" xmlns="http://www.w3.org/2000/svg" stroke="#000000" stroke-width="0.00032"><g id="SVGRepo_bgCarrier" stroke-width="0"></g><g id="SVGRepo_tracerCarrier" stroke-linecap="round" stroke-linejoin="round"></g><g id="SVGRepo_iconCarrier"> <title>bitcoin</title> <path d="M11.28 18.6c0-1.44-0.72-2.72-1.84-3.48 0.68-0.64 1.080-1.52 1.080-2.52 0-1.84-1.44-3.36-3.24-3.44v-1.48c0-0.48-0.4-0.84-0.84-0.84s-0.84 0.4-0.84 0.84v1.48h-0.56v-1.48c0-0.48-0.4-0.84-0.84-0.84s-0.84 0.4-0.84 0.84v1.48h-2.52c-0.44 0-0.84 0.36-0.84 0.84s0.4 0.84 0.84 0.84h0.8v10.32h-0.8c-0.44 0-0.84 0.36-0.84 0.84s0.4 0.84 0.84 0.84h2.44v1.48c0 0.48 0.4 0.84 0.84 0.84s0.84-0.4 0.84-0.84v-1.48h0.56v1.48c0 0.48 0.4 0.84 0.84 0.84s0.84-0.4 0.84-0.84v-1.48c2.32-0.12 4.080-1.96 4.080-4.24zM7.040 10.84c0.96 0 1.76 0.8 1.76 1.76s-0.8 1.76-1.76 1.76h-3.68v-3.52h3.68zM7.040 21.16h-3.68v-5.080h3.72c1.4 0 2.52 1.12 2.52 2.52s-1.16 2.56-2.56 2.56z"></path> </g></svg>