<svg width="178" height="161" viewBox="0 0 178 161" fill="none" xmlns="http://www.w3.org/2000/svg">
<path d="M98.9471 39.7366L97.7 40.4589V41.9V130.658L50.1 158.211L2.5 130.658V75.539L50.1 47.8911L64.3 56.139V76.1568L51.3556 68.6382L50.1018 67.91L48.8471 68.6366L21.0471 84.7366L19.8 85.4589V86.9V119.2V120.641L21.0471 121.363L48.8471 137.463L50.1 138.189L51.3529 137.463L79.1529 121.363L80.4 120.641V119.2V30.4415L128 2.88862L175.6 30.4415V85.5585L128.002 113.11L113.8 104.861V84.8432L126.744 92.3618L127.998 93.09L129.253 92.3634L157.053 76.2634L158.3 75.5411V74.1V41.9V40.4589L157.053 39.7366L129.253 23.6366L128 22.911L126.747 23.6366L98.9471 39.7366Z" stroke="#333333" stroke-width="5"/>
</svg>
