<svg width="350" height="350" viewBox="0 0 350 350" fill="none" xmlns="http://www.w3.org/2000/svg">
<path d="M287.109 42.5469H332.937L237.562 137.047C203 171.172 147 171.172 112.437 137.047L16.9531 42.5469H62.8906L135.406 114.297C157.281 135.953 192.609 135.953 214.594 114.297L287.109 42.5469Z" stroke="white" stroke-width="10" stroke-miterlimit="10" stroke-linecap="round" stroke-linejoin="round"/>
<path d="M62.2344 307.453H16.4062L112.437 212.406C147 178.172 203 178.172 237.562 212.406L333.594 307.453H287.766L214.594 235.047C192.719 213.391 157.391 213.391 135.406 235.047L62.2344 307.453Z" stroke="white" stroke-width="10" stroke-miterlimit="10" stroke-linecap="round" stroke-linejoin="round"/>
<path d="M287.109 42.5469H332.937L237.562 137.047C203 171.172 147 171.172 112.437 137.047L16.9531 42.5469H62.8906L135.406 114.297C157.281 135.953 192.609 135.953 214.594 114.297L287.109 42.5469Z" stroke="white" stroke-width="10" stroke-miterlimit="10" stroke-linecap="round" stroke-linejoin="round"/>
<path d="M62.2344 307.453H16.4062L112.437 212.406C147 178.172 203 178.172 237.562 212.406L333.594 307.453H287.766L214.594 235.047C192.719 213.391 157.391 213.391 135.406 235.047L62.2344 307.453Z" stroke="white" stroke-width="10" stroke-miterlimit="10" stroke-linecap="round" stroke-linejoin="round"/>
</svg>
