<svg width="380" height="380" viewBox="0 0 380 380" fill="none" xmlns="http://www.w3.org/2000/svg">
<g clip-path="url(#clip0_636_12)">
<path d="M282.6 100C262.6 100 240.7 110.9 217.6 132.4C206.7 142.5 197.1 153.5 190.1 162.2C190.1 162.2 201.3 175.1 213.6 189C220.3 180.6 229.8 169.2 240.9 158.9C261.4 139.7 274.8 135.8 282.5 135.8C311.3 135.8 334.7 160 334.7 189.9C334.7 219.5 311.3 243.7 282.5 244C281.1 244 279.5 243.8 277.5 243.4C285.9 247.3 295 250.1 303.5 250.1C356.3 250.1 366.7 213.6 367.3 211C368.8 204.3 369.7 197.3 369.7 190.1C369.6 140.4 330.6 100 282.6 100Z" fill="url(#paint0_linear_636_12)"/>
<path d="M98.1 279.8C118.1 279.8 140 268.9 163.1 247.4C174 237.3 183.6 226.3 190.6 217.6C190.6 217.6 179.4 204.7 167.1 190.8C160.4 199.2 150.9 210.6 139.8 220.9C119.3 239.9 105.8 244 98.2 244C69.4 244 46 219.8 46 189.9C46 160.3 69.4 136.1 98.2 135.8C99.6 135.8 101.2 136 103.2 136.4C94.8 132.5 85.7 129.7 77.2 129.7C24.4 129.6 14 166.1 13.4 168.8C11.9 175.5 11 182.5 11 189.7C11 239.4 50 279.8 98.1 279.8Z" fill="url(#paint1_linear_636_12)"/>
<path fill-rule="evenodd" clip-rule="evenodd" d="M138.3 159.7C132.5 154.1 104.3 131.2 77.3 130.4C29.1 129.2 15 164.2 13.7 168.7C23 129.5 57.4 100.2 98.2 100C131.5 100 165.2 132.7 190.1 162.2L190.2 162.1C190.2 162.1 201.4 175 213.7 188.9C213.7 188.9 227.7 205.4 242.5 219.9C248.3 225.5 276.4 248.1 303.4 248.9C352.9 250.3 366.6 213.3 367.3 210.5C358.2 250 323.7 279.4 282.7 279.6C249.4 279.6 215.7 246.9 190.7 217.4C190.7 217.5 190.6 217.5 190.6 217.6C190.6 217.6 179.4 204.7 167.1 190.8C167.2 190.8 153.2 174.2 138.3 159.7Z" fill="#29ABE2"/>
</g>
<defs>
<linearGradient id="paint0_linear_636_12" x1="235.785" y1="114.246" x2="359.066" y2="238.542" gradientUnits="userSpaceOnUse">
<stop offset="0.21" stop-color="#F15A24"/>
<stop offset="0.6841" stop-color="#FBB03B"/>
</linearGradient>
<linearGradient id="paint1_linear_636_12" x1="144.946" y1="265.574" x2="21.6653" y2="141.278" gradientUnits="userSpaceOnUse">
<stop offset="0.21" stop-color="#ED1E79"/>
<stop offset="0.8929" stop-color="#522785"/>
</linearGradient>
<clipPath id="clip0_636_12">
<rect width="358.8" height="179.8" fill="white" transform="translate(11 100)"/>
</clipPath>
</defs>
</svg>
